<svg width="13" height="9" viewBox="0 0 13 9" fill="none" xmlns="http://www.w3.org/2000/svg">
<path id="icon:after" d="M8.06641 0.658203C8.20312 0.548828 8.39453 0.548828 8.53125 0.658203L12.1406 4.26758C12.25 4.4043 12.25 4.5957 12.1406 4.73242L8.53125 8.3418C8.39453 8.45117 8.20312 8.45117 8.06641 8.3418L7.51953 7.79492C7.41016 7.6582 7.41016 7.4668 7.54688 7.33008L9.73438 5.19727H0.328125C0.136719 5.19727 0 5.06055 0 4.86914V4.10352C0 3.93945 0.136719 3.77539 0.328125 3.77539H9.73438L7.54688 1.66992C7.41016 1.5332 7.41016 1.3418 7.51953 1.20508L8.06641 0.658203Z" fill="#262625"/>
</svg>
