<svg width="46" height="53" viewBox="0 0 46 53" fill="none" xmlns="http://www.w3.org/2000/svg">
<g id="icon:SVG">
<path id="Desktop" d="M23 3.3833C12.2344 3.3833 3.5 6.32861 3.5 9.8833V13.1333C3.5 16.7896 12.2344 19.6333 23 19.6333C33.7656 19.6333 42.5 16.7896 42.5 13.1333V9.8833C42.5 6.32861 33.7656 3.3833 23 3.3833ZM42.5 18.6177C38.2344 21.563 30.6172 22.8833 23 22.8833C15.2812 22.8833 7.66406 21.563 3.5 18.6177V22.8833C3.5 26.5396 12.2344 29.3833 23 29.3833C33.7656 29.3833 42.5 26.5396 42.5 22.8833V18.6177ZM42.5 28.3677C38.2344 31.313 30.6172 32.6333 23 32.6333C15.2812 32.6333 7.66406 31.313 3.5 28.3677V32.6333C3.5 36.2896 12.2344 39.1333 23 39.1333C33.7656 39.1333 42.5 36.2896 42.5 32.6333V28.3677ZM42.5 38.1177C38.2344 41.063 30.6172 42.3833 23 42.3833C15.2812 42.3833 7.66406 41.063 3.5 38.1177V42.3833C3.5 46.0396 12.2344 48.8833 23 48.8833C33.7656 48.8833 42.5 46.0396 42.5 42.3833V38.1177ZM23 0.133301C30.8203 0.133301 45.75 2.06299 45.75 9.8833V42.3833C45.75 50.3052 30.9219 52.1333 23 52.1333C15.0781 52.1333 0.25 50.3052 0.25 42.3833V9.8833C0.25 2.06299 14.9766 0.133301 23 0.133301Z" fill="#FF6000"/>
</g>
</svg>
