<svg width="196" height="29" viewBox="0 0 196 29" fill="none" xmlns="http://www.w3.org/2000/svg">
<path d="M31.2043 1.60475C31.2043 1.18251 30.8617 0.839844 30.4398 0.839844C30.3488 0.839844 1.43383 0.839844 1.36855 0.839844C0.945654 0.839844 0.603638 1.18251 0.603638 1.60475C0.603638 1.67556 0.603638 28.0431 0.603638 28.0749C0.603638 28.4975 0.945979 28.8398 1.36855 28.8398C1.42312 28.8398 5.299 28.8398 5.36363 28.8398C5.78588 28.8398 6.12854 28.4972 6.12854 28.0749C6.12854 28.0464 6.12854 18.6566 6.12854 18.6566C6.12854 18.2162 6.39748 17.8349 6.77815 17.6705C10.6583 16.114 24.7183 10.5875 24.7917 10.5586C24.8655 10.5294 24.946 10.5144 25.0292 10.5144C25.3881 10.5144 25.6798 10.8552 25.6798 11.2144C25.6798 11.2657 25.6798 27.9944 25.6798 28.0746C25.6798 28.4975 26.0221 28.8392 26.4443 28.8392C26.5369 28.8392 30.3303 28.8392 30.4398 28.8392C30.8623 28.8392 31.2047 28.4972 31.2047 28.0746C31.2043 27.9742 31.2043 1.6957 31.2043 1.60475Z" fill="#FF6000"/>
<path d="M80.224 4.01317H84.4714C84.6637 4.01317 84.8193 4.16875 84.8193 4.36201V8.00208C84.8193 8.16221 84.7271 8.3009 84.5926 8.36749C84.5367 8.40614 80.2454 10.0779 80.2454 10.0779C80.2454 10.0779 80.2201 10.0873 80.2133 10.0893C80.1899 10.0961 80.1655 10.0997 80.1395 10.0997C80.0047 10.0997 79.895 9.99865 79.8787 9.8684C79.8761 9.85866 79.8752 9.82065 79.8752 9.80864V4.36169C79.8755 4.16908 80.0311 4.01317 80.224 4.01317Z" fill="#FF6000"/>
<path d="M91.4719 4.0135H87.2238C87.0319 4.0135 86.8763 4.16875 86.8763 4.36039V26.4054C86.8763 26.5984 87.0319 26.7536 87.2238 26.7536H91.4719C91.6645 26.7536 91.8198 26.5981 91.8198 26.4054V4.36071C91.8198 4.16875 91.6642 4.0135 91.4719 4.0135ZM57.8431 14.594C57.7577 14.5521 57.6651 14.502 57.5719 14.4501C58.0292 14.1061 58.4385 13.7017 58.7925 13.2473C59.5915 12.2573 59.9965 11.1562 59.9965 9.97461C59.9965 8.2564 59.3313 6.81752 58.0214 5.69793C56.7186 4.58645 55.13 4.02194 53.2981 4.02194L45.2261 4.02292C45.2248 4.02292 45.2235 4.02194 45.2222 4.02194H44.4602L44.4573 4.02292H44.4316C44.4297 4.02292 44.4284 4.02194 44.4274 4.02194H43.6651C43.4842 4.02194 43.338 4.16875 43.338 4.34934V4.9184C43.338 4.921 43.338 25.7367 43.338 25.7367C43.338 25.7454 43.3387 25.7545 43.339 25.763C43.339 25.7659 43.338 26.3947 43.338 26.3947C43.338 26.5916 43.4985 26.7533 43.6963 26.7533H53.5138C55.6201 26.7533 57.416 26.1118 58.85 24.8496C60.321 23.553 61.0677 21.9173 61.0677 19.9851C61.0674 18.5101 60.5269 17.0264 59.4577 15.8864C58.9572 15.3644 58.4657 14.9366 57.8431 14.594ZM48.087 8.60752H52.6583C53.2945 8.60719 53.7954 8.7985 54.1956 9.19866C54.5658 9.54523 54.7536 10.0406 54.7536 10.6694C54.7536 11.3164 54.5558 11.8555 54.164 12.2719C53.7743 12.6857 53.2673 12.8965 52.6583 12.8965H48.087V8.60752ZM55.0361 21.2466C54.5775 21.7059 53.977 21.9482 53.2997 21.9482H48.087V17.146H52.8707C53.6606 17.146 54.3118 17.3749 54.9179 17.8654C55.4847 18.3234 55.7367 18.8203 55.7367 19.4754C55.7361 20.1855 55.5006 20.7821 55.0361 21.2466ZM77.4567 10.544H73.4132C73.2212 10.544 73.065 10.6999 73.065 10.8925V11.2631C73.0644 11.28 73.063 11.2966 73.063 11.3141V19.0194C73.063 20.4167 72.6873 21.2021 72.1195 21.8095C71.4712 22.4584 70.6322 22.7829 69.8215 22.7829C67.8357 22.7829 66.8632 21.6071 66.8632 19.2978V11.3141C66.8632 11.2875 66.8619 11.2628 66.8606 11.2378V10.8925C66.8606 10.6996 66.705 10.544 66.5124 10.544H62.3481C62.1555 10.544 62.0006 10.6993 62.0006 10.8925V19.1756C62.0006 21.485 62.5271 23.3101 63.5395 24.7278C64.7146 26.3493 66.4984 27.16 68.8484 27.16C70.2272 27.16 71.4423 26.8352 72.4963 26.2281C72.861 26.0251 73.2254 25.7415 73.5905 25.458C73.6347 25.4128 73.6789 25.3696 73.7231 25.3242L74.0255 26.1462C74.1872 26.5523 74.4308 26.7546 74.7956 26.7546H77.456C77.6486 26.7546 77.8039 26.599 77.8039 26.4058V10.8941C77.8045 10.7002 77.6486 10.544 77.4567 10.544ZM193.857 12.5708C192.682 10.949 190.899 10.1396 188.548 10.1396C187.17 10.1396 185.955 10.4638 184.9 11.0715C184.792 11.1312 184.685 11.1998 184.577 11.2719V4.97459C184.577 4.97102 184.577 4.96907 184.577 4.9655V4.36071C184.577 4.16875 184.422 4.0135 184.229 4.0135H179.94C179.748 4.0135 179.592 4.16875 179.592 4.36071V26.4048C179.592 26.5977 179.748 26.7536 179.94 26.7536H183.988C184.181 26.7536 184.336 26.5977 184.336 26.4048V25.8013C184.336 25.7916 184.334 25.7808 184.333 25.7711V17.5546C184.454 16.7838 184.819 16.0955 185.387 15.4885C186.035 14.8398 186.765 14.5154 187.575 14.5154C189.561 14.5154 190.534 15.6902 190.534 18.0005V25.7692C190.532 25.7799 190.53 25.7903 190.53 25.8013V26.4048C190.53 26.5981 190.686 26.7536 190.878 26.7536H194.626C195.152 26.7536 195.396 26.51 195.396 25.9842V18.1217C195.397 15.812 194.87 13.9889 193.857 12.5708ZM109.049 4.0135H104.761C104.568 4.0135 104.413 4.16875 104.413 4.36039V10.8678C104.169 10.7869 103.966 10.7067 103.764 10.6249C103.48 10.5437 103.237 10.4631 102.954 10.3816C102.225 10.2202 101.495 10.1383 100.806 10.1383C98.4153 10.1383 96.47 10.949 94.971 12.6104C93.5117 14.2312 92.7825 16.2576 92.7825 18.6491C92.7825 20.9988 93.5117 22.9846 95.0113 24.6466C96.5109 26.3087 98.3746 27.1593 100.563 27.1593C102.506 27.1593 104.091 26.5636 105.295 25.3755L105.579 26.1456C105.74 26.5516 105.984 26.754 106.349 26.754H109.05C109.242 26.754 109.398 26.5984 109.398 26.4051V4.36071C109.397 4.16875 109.241 4.0135 109.049 4.0135ZM104.574 20.0188C104.492 20.2962 104.371 20.5333 104.209 20.8104C104.047 21.128 103.845 21.4057 103.561 21.6429C102.913 22.2765 102.102 22.5932 101.171 22.5932C100.117 22.5932 99.2253 22.1966 98.5364 21.4054C97.8472 20.6535 97.4827 19.7031 97.4827 18.5543C97.4827 17.4061 97.8475 16.4551 98.6176 15.7028C99.3471 14.9116 100.279 14.5154 101.414 14.5154C102.75 14.5154 103.898 14.9188 104.574 15.8925V20.0188ZM125.968 14.594C125.883 14.5521 125.79 14.502 125.696 14.4501C126.153 14.1061 126.563 13.7017 126.917 13.2473C127.716 12.2573 128.121 11.1562 128.121 9.97461C128.121 8.2564 127.456 6.81752 126.146 5.69793C124.844 4.58645 123.255 4.02194 121.422 4.02194L113.351 4.02292C113.349 4.02292 113.348 4.02194 113.346 4.02194H112.585C112.585 4.02194 112.583 4.02292 112.582 4.02292H112.556C112.554 4.02292 112.553 4.02194 112.552 4.02194H111.79C111.609 4.02194 111.462 4.16875 111.462 4.34934V4.9184C111.462 4.921 111.462 25.7367 111.462 25.7367C111.462 25.7454 111.463 25.7545 111.464 25.763C111.464 25.7659 111.462 26.3947 111.462 26.3947C111.462 26.5916 111.623 26.7533 111.821 26.7533H121.638C123.745 26.7533 125.54 26.1118 126.975 24.8496C128.445 23.553 129.192 21.9173 129.192 19.9851C129.191 18.5101 128.651 17.0264 127.582 15.8864C127.081 15.3644 126.59 14.9366 125.968 14.594ZM116.212 8.60752H120.783C121.42 8.60719 121.92 8.7985 122.321 9.19866C122.691 9.5449 122.879 10.0402 122.879 10.6694C122.879 11.3164 122.681 11.8555 122.289 12.2719C121.899 12.6857 121.392 12.8965 120.783 12.8965H116.212L116.212 8.60752ZM123.161 21.2466C122.702 21.7059 122.101 21.9482 121.424 21.9482H116.211V17.146H120.995C121.785 17.146 122.436 17.3749 123.042 17.8654C123.609 18.3234 123.861 18.8203 123.861 19.4754C123.861 20.1855 123.625 20.7821 123.161 21.2466ZM155.59 10.1393C154.211 10.1393 152.996 10.4634 151.942 11.0712C151.577 11.2738 151.212 11.5577 150.848 11.8409C150.803 11.8854 150.76 11.9293 150.715 11.9744L150.412 11.1517C150.251 10.747 150.007 10.5437 149.643 10.5437H146.982C146.789 10.5437 146.634 10.6992 146.634 10.8922V26.4045C146.634 26.5974 146.79 26.7533 146.982 26.7533H151.026C151.218 26.7533 151.373 26.5974 151.373 26.4045V26.0342C151.374 26.0176 151.375 26.0014 151.375 25.9838V18.2785C151.355 15.8552 152.495 14.5144 154.617 14.5144C156.603 14.515 157.576 15.9432 157.576 18.2532V25.9838C157.576 26.0098 157.577 26.0342 157.579 26.0592V26.4041C157.579 26.5971 157.734 26.753 157.926 26.753H162.09C162.283 26.753 162.438 26.5971 162.438 26.4041V18.121C162.438 15.8117 161.912 13.9876 160.898 12.5698C159.723 10.949 157.94 10.1393 155.59 10.1393ZM142.409 11.3817C141.105 10.5027 139.555 10.0883 137.832 10.1494C134.456 10.266 132.034 11.8819 130.633 14.9516C129.965 16.4168 129.736 18.0749 129.954 19.8792C130.307 22.8082 131.757 24.9331 134.263 26.1943C135.552 26.8439 136.951 27.1593 138.539 27.1593C139.07 27.1593 139.633 27.1226 140.21 27.0495C141.533 26.8826 142.64 26.5415 143.595 26.0069C144.12 25.7136 144.154 25.6178 143.929 25.0676C143.573 24.1978 142.676 22.1291 142.667 22.1073L142.651 22.0778C142.629 22.0359 142.592 21.966 142.492 21.9313C142.417 21.9037 142.323 21.9128 142.242 21.9514C142.192 21.9722 142.144 21.9985 142.097 22.0261C141.135 22.5952 140.06 22.9041 138.808 22.9719C137.846 23.0242 136.966 22.8069 136.223 22.321C135.512 21.8566 135.029 21.2404 134.712 20.3898H137.553C139.945 20.3898 142.336 20.3898 144.728 20.3875C145.376 20.3872 145.508 20.3297 145.561 19.6716L145.571 19.5576C145.615 19.0571 145.717 17.8829 145.654 17.0937C145.453 14.6196 144.361 12.6978 142.409 11.3817ZM140.972 16.9663H134.662C134.688 16.3674 134.98 15.747 135.473 15.2455C136.109 14.5972 136.972 14.2403 137.901 14.2403H137.943C138.391 14.2455 138.817 14.3205 139.211 14.4634C140.21 14.8256 141.037 16.0156 140.972 16.9663ZM177.788 22.3717L176.71 21.4447C176.708 21.4428 176.707 21.4412 176.706 21.4399L176.148 20.9228C176.006 20.7925 175.701 20.8208 175.57 20.9621C175.57 20.9621 175.384 21.167 175.154 21.3954C175.151 21.3979 175.149 21.4018 175.146 21.4054L174.754 21.7695C174.511 21.9722 174.268 22.1343 174.065 22.2558C173.497 22.6205 172.849 22.7826 172.079 22.7826C170.985 22.7826 170.054 22.3776 169.283 21.5668C168.513 20.7964 168.149 19.824 168.149 18.6491C168.149 17.5136 168.554 16.5418 169.324 15.7314C170.094 14.921 171.025 14.5157 172.12 14.5157C173.151 14.5157 174.038 14.9119 174.781 15.6697C174.786 15.6756 174.79 15.683 174.795 15.6895L175.182 16.1043C175.313 16.2459 175.591 16.2485 175.732 16.117L175.914 15.9445C175.919 15.9413 175.924 15.938 175.929 15.9341L177.605 14.3315L178.215 13.7995C178.359 13.6725 178.374 13.4526 178.248 13.3074L177.769 12.753C177.765 12.7491 177.762 12.7468 177.759 12.7445C176.214 11.0205 174.271 10.1396 171.998 10.1396C171.94 10.1396 171.883 10.1429 171.826 10.1435C171.826 10.1425 171.827 10.1406 171.827 10.1396C168.029 10.1607 164.821 12.6705 163.749 16.1215C163.543 16.7659 163.421 17.4428 163.382 18.1509C163.381 18.1623 163.379 18.1736 163.379 18.1853C163.374 18.2737 163.373 18.364 163.371 18.4543C163.37 18.5082 163.367 18.5618 163.367 18.616L163.367 18.615C163.367 18.6271 163.367 18.6371 163.367 18.6491C163.367 21.0403 164.217 23.0661 165.96 24.7272C167.622 26.3486 169.649 27.1593 171.959 27.1593C174.712 27.1593 176.836 26.0579 178.293 23.8574L178.409 23.6875L178.409 23.6855L178.579 23.4358C178.679 23.2896 178.651 23.095 178.523 22.9801C178.511 22.971 177.806 22.387 177.788 22.3717ZM84.5552 10.544C84.5296 10.544 84.5049 10.5479 84.4815 10.5547C84.4747 10.5563 84.4588 10.5625 84.4523 10.5648C84.4523 10.5648 80.1581 12.2378 80.1022 12.2765C79.9677 12.3431 79.8755 12.4818 79.8755 12.6419V26.4064C79.8755 26.5993 80.0314 26.7546 80.2233 26.7546H84.4711C84.6637 26.7546 84.8193 26.599 84.8193 26.4064V10.8236C84.8193 10.8116 84.8177 10.7853 84.8157 10.7756C84.7998 10.6453 84.69 10.544 84.5552 10.544Z" fill="#1B1B1A"/>
</svg>
