<svg width="26" height="26" viewBox="0 0 26 26" fill="none" xmlns="http://www.w3.org/2000/svg">
<path d="M23.6606 0.0922852C24.6069 0.0922852 25.4419 0.927246 25.4419 1.9292V23.2485C25.4419 24.2505 24.6069 25.0298 23.6606 25.0298H2.22998C1.28369 25.0298 0.504395 24.2505 0.504395 23.2485V1.9292C0.504395 0.927246 1.28369 0.0922852 2.22998 0.0922852H23.6606ZM8.01904 21.4673V9.61084H4.34521V21.4673H8.01904ZM6.18213 7.94092C7.35107 7.94092 8.29736 6.99463 8.29736 5.82568C8.29736 4.65674 7.35107 3.65479 6.18213 3.65479C4.95752 3.65479 4.01123 4.65674 4.01123 5.82568C4.01123 6.99463 4.95752 7.94092 6.18213 7.94092ZM21.8794 21.4673V14.9546C21.8794 11.7817 21.1558 9.27686 17.4263 9.27686C15.645 9.27686 14.4204 10.2788 13.9194 11.2251H13.8638V9.61084H10.3569V21.4673H14.0308V15.6226C14.0308 14.064 14.3091 12.561 16.2573 12.561C18.1499 12.561 18.1499 14.3423 18.1499 15.6782V21.4673H21.8794Z" fill="#1B1B1A"/>
</svg>
