<svg width="150" height="80" viewBox="0 0 150 80" fill="none" xmlns="http://www.w3.org/2000/svg">
<path d="M69.9175 45.0441C68.2817 48.3795 68.4354 51.7887 70.3785 55.2715C70.4282 55.3599 70.4091 55.4276 70.3213 55.4748C63.0086 59.5174 54.8886 62.1133 46.6998 61.9571C38.9491 61.8068 32.6902 56.9362 32.0775 48.6712C31.6423 42.79 32.6873 36.8911 35.6736 31.7877C41.0164 22.6564 51.175 17.5914 61.6028 18.0657C67.4857 18.3329 72.7054 19.2257 77.2617 20.7441C81.5565 22.1761 86.4125 24.6748 88.7288 28.8883C90.5612 32.2179 90.6729 35.6624 89.0638 39.2218C89.043 39.2668 89.0103 39.305 88.9693 39.332C88.9284 39.3591 88.8808 39.374 88.8319 39.375C86.4974 39.4182 83.931 39.4152 81.1327 39.3661C78.7181 39.3249 76.9878 39.4791 75.9417 39.8287C73.1759 40.7559 71.1678 42.4944 69.9175 45.0441ZM44.7443 44.9439C44.7023 44.7612 44.6985 44.4204 44.7328 43.9215C44.7404 43.7898 44.708 43.669 44.6355 43.559C44.4961 43.3489 44.4818 43.1249 44.5925 42.8872C44.6421 42.7831 44.6488 42.6761 44.6126 42.5661C44.5524 42.3804 44.4465 42.2773 44.435 42.0622C44.3864 41.137 44.0485 40.3179 43.9139 39.4192C43.6734 37.8045 43.4262 36.2811 43.1724 34.8491C42.9204 33.4377 41.5232 33.3729 41.128 34.693C40.3454 37.3114 39.5495 39.7551 38.7401 42.0239C38.5951 42.4286 38.6943 42.7546 39.0379 43.0021C39.1047 43.0493 39.1811 43.0788 39.267 43.0905C39.7842 43.1632 40.1374 42.9491 40.3263 42.4482C40.7138 41.4208 41.0908 40.3532 41.4573 39.2453C41.4917 39.1432 41.5556 39.0715 41.6491 39.0302C41.7179 38.9988 41.7894 38.9978 41.8639 39.0273C41.9631 39.0646 42.0204 39.1373 42.0357 39.2453C42.4766 42.2076 42.929 45.2248 43.3928 48.297C43.6276 49.8508 43.8901 51.383 44.1802 52.8936C44.415 54.1223 45.7407 53.7069 45.8953 52.6962C46.2026 50.6611 46.4622 48.6457 46.6741 46.6499C46.6912 46.4869 46.7447 46.3337 46.8344 46.1903C46.8955 46.094 46.9165 45.9889 46.8974 45.875C46.8058 45.3348 46.9088 44.8192 47.2066 44.3281C47.2792 44.2083 47.2811 44.0874 47.2123 43.9657L47.1293 43.8183C47.0778 43.7299 47.0644 43.6347 47.0892 43.5325C47.2458 42.8666 47.366 42.2125 47.45 41.5701C47.5015 41.1783 47.7449 40.8571 47.6533 40.4563C47.6323 40.3719 47.638 40.2894 47.6705 40.2088C47.785 39.926 47.8642 39.6274 47.9081 39.3131C48.1123 37.8202 48.517 36.398 49.1221 35.0465C49.3168 34.6105 49.2338 34.251 49.3683 33.8061C49.5936 33.0773 49.8083 32.3475 50.0126 31.6168C50.4077 30.2044 51.0815 28.3746 52.034 26.1274C52.4406 25.1649 53.0132 24.3507 53.7519 23.6848C54.0898 23.3783 54.5135 22.5828 54.4963 22.1202C54.4658 21.3933 54.1203 20.9072 53.4599 20.6616C52.4606 20.2933 51.5787 21.2568 51.2466 22.1113C49.8837 25.6265 48.455 29.4865 47.4729 33.2904C46.3992 37.4421 45.6462 41.0899 45.1795 44.9203C45.0783 45.7552 44.9332 45.763 44.7443 44.9439ZM67.5636 27.9166C67.441 27.7715 67.2333 27.713 66.9862 27.7539C66.7391 27.7949 66.4728 27.932 66.2458 28.135C66.1334 28.2355 66.0341 28.3492 65.9535 28.4696C65.8729 28.59 65.8126 28.7146 65.7761 28.8365C65.7395 28.9584 65.7274 29.0751 65.7405 29.1799C65.7536 29.2848 65.7915 29.3757 65.8522 29.4476C65.9748 29.5926 66.1824 29.6511 66.4296 29.6102C66.6767 29.5692 66.943 29.4321 67.17 29.2291C67.2824 29.1286 67.3817 29.0149 67.4623 28.8945C67.5429 28.7741 67.6032 28.6495 67.6397 28.5276C67.6763 28.4057 67.6884 28.289 67.6753 28.1842C67.6622 28.0793 67.6243 27.9884 67.5636 27.9166ZM62.8741 41.8029L63.3894 34.0919C63.4162 33.697 63.2577 33.4102 62.9142 33.2315C62.7576 33.1509 62.6011 33.1411 62.4446 33.202C61.9063 33.4142 61.619 33.8169 61.5828 34.4101C61.4816 36.0896 61.3251 37.7858 61.1132 39.4987C61.0407 40.0998 60.7267 40.5202 60.1712 40.7598C60.1025 40.7893 60.0309 40.804 59.9565 40.804C59.5308 40.7942 59.318 40.5703 59.318 40.1322C59.3161 39.374 59.3571 38.601 59.4411 37.8133C59.5346 36.9392 59.9288 36.0935 60.6236 35.2764C60.7935 35.076 60.8622 34.8481 60.8297 34.5928C60.8193 34.5175 60.7924 34.4456 60.7512 34.3825C60.7099 34.3195 60.6553 34.2669 60.5916 34.2289C60.5279 34.1908 60.4566 34.1683 60.3833 34.1629C60.3099 34.1575 60.2364 34.1695 60.1683 34.1979C58.7215 34.8049 57.8806 36.0631 57.6459 37.9724C57.5561 38.7071 57.5017 39.4791 57.4827 40.2884C57.4712 40.7913 57.5056 41.2588 57.5857 41.6909C57.9064 43.3793 60.028 42.7487 60.9357 42.0298C61.075 41.9178 61.1437 41.9532 61.1418 42.1359L61.1332 42.8312C61.1332 42.9982 61.0674 43.1308 60.9357 43.229C58.2691 45.2405 56.5368 46.5694 55.739 47.2157C53.2098 49.2625 50.8152 51.3997 48.5552 53.6273C48.3185 53.8591 48.0828 54.138 47.848 54.4641C47.2353 55.3068 48.0455 56.3823 48.9704 56.1053C49.23 56.0267 49.4676 55.8676 49.6833 55.628C50.7255 54.4671 51.7677 53.3376 52.8099 52.2395C53.7605 51.2377 54.8743 50.2025 56.1513 49.1339C57.747 47.7961 59.2979 46.5223 60.804 45.3122C61.0197 45.1374 61.1266 45.1924 61.1247 45.4772C61.1094 48.7145 61.0559 52.0293 60.9643 55.4217C60.95 55.9904 61.0416 56.7889 61.6114 57.0836C62.1898 57.3841 62.687 57.2761 63.1031 56.7594C63.3684 56.4314 63.4228 56.0906 63.2663 55.737C63.2281 55.6506 63.2253 55.5632 63.2577 55.4748C63.2921 55.3805 63.3036 55.2862 63.2921 55.1919C63.2806 55.0956 63.2282 55.0367 63.1346 55.0151C63.0545 54.9974 63.0096 54.9346 63 54.8265C62.9945 54.7792 63.0069 54.7317 63.0344 54.6939C63.252 54.3718 63.2281 54.084 62.9628 53.8306C62.8903 53.7619 62.8664 53.6794 62.8912 53.5831C62.9581 53.312 62.9762 53.1323 62.9456 53.0439C62.8063 52.6432 62.7395 52.0774 62.7452 51.3467C62.7662 49.017 62.8025 46.6234 62.854 44.166C62.855 44.0929 62.871 44.0209 62.9011 43.9548C62.9313 43.8887 62.9748 43.8301 63.0287 43.783C63.3303 43.5198 63.65 43.2722 63.9879 43.0404C66.9961 40.9798 70.244 39.0568 73.7313 37.2712C74.6762 36.7879 75.7795 36.3548 77.0412 35.9717C77.7455 35.7576 78.2476 35.2832 78.5472 34.5486C78.6007 34.415 78.6007 34.2814 78.5472 34.1479C78.2609 33.4466 77.2874 33.4937 76.7635 33.7854C76.1927 34.1037 75.5762 34.4229 74.9138 34.743C74.8386 34.7791 74.754 34.7883 74.6735 34.7691C74.593 34.7498 74.5213 34.7033 74.47 34.637C74.241 34.3463 74.137 34.0143 74.158 33.6411C74.1847 33.1185 74.1751 32.595 74.1293 32.0706C74.0749 31.4577 74.2725 30.8919 74.2267 30.2938C74.1837 29.7664 74.3212 29.1977 73.9919 28.7292C73.1931 27.5859 71.7099 29.1299 71.1774 29.731C71.1374 29.7758 71.0895 29.812 71.0364 29.8373C70.9833 29.8626 70.9261 29.8765 70.8681 29.8783C70.6811 29.8842 70.4911 29.8803 70.2984 29.8666C68.8038 29.7428 68.4029 30.7122 68.3399 32.0882C68.2731 33.5792 68.212 35.0839 68.1567 36.6023C68.1538 36.6852 68.1692 36.7676 68.2017 36.8435C68.2342 36.9194 68.2831 36.9866 68.3446 37.0403C68.406 37.0939 68.4785 37.1324 68.5566 37.153C68.6346 37.1736 68.7162 37.1757 68.7952 37.1592C69.5835 36.9922 70.0292 36.5267 70.1323 35.7625C70.1953 35.2852 70.0435 34.858 70.0578 34.3895C70.0617 34.2912 70.0865 34.1989 70.1323 34.1125C70.2754 33.8473 70.181 33.5762 70.2096 33.2786C70.2764 32.6127 70.4024 32.0598 70.5875 31.6197C70.7593 31.2161 71.4608 30.2584 72.0449 30.391C72.3274 30.4539 72.4591 30.6336 72.44 30.9303C72.358 32.2267 72.2969 33.5831 72.2568 34.9994C72.2541 35.0863 72.2695 35.1731 72.3021 35.2538C72.3346 35.3346 72.3836 35.4076 72.4458 35.4679L72.7206 35.736C72.8256 35.8382 72.8142 35.9236 72.6863 35.9924C69.3707 37.8271 66.1229 39.7787 62.9428 41.8471C62.9356 41.8514 62.9274 41.8536 62.919 41.8535C62.9107 41.8534 62.9025 41.8509 62.8955 41.8463C62.8884 41.8418 62.8827 41.8353 62.8789 41.8277C62.8751 41.82 62.8735 41.8115 62.8741 41.8029ZM66.8138 32.0676C66.8211 31.9435 66.7902 31.8202 66.7256 31.7151C66.6609 31.6101 66.5658 31.5286 66.4536 31.4824C66.3415 31.4361 66.218 31.4273 66.1008 31.4572C65.9835 31.4872 65.8784 31.5543 65.8003 31.6492L65.2792 32.2827C65.2044 32.3745 65.1585 32.4876 65.1475 32.6068L64.6006 38.27C64.5898 38.3821 64.6103 38.495 64.6597 38.5954C64.7091 38.6959 64.7852 38.7799 64.8793 38.8374C64.9734 38.8949 65.0814 38.9236 65.1908 38.9202C65.3001 38.9168 65.4063 38.8814 65.4968 38.8181L66.2412 38.3024C66.3145 38.2514 66.3754 38.1836 66.4191 38.1044C66.4628 38.0252 66.4881 37.9367 66.4932 37.8457L66.8138 32.0676ZM50.5526 36.1221C50.6188 36.188 50.7066 36.2296 50.8109 36.2445C50.9152 36.2594 51.034 36.2474 51.1605 36.2092C51.2869 36.1709 51.4186 36.1071 51.548 36.0215C51.6773 35.9359 51.8018 35.83 51.9144 35.7101C52.027 35.5901 52.1254 35.4583 52.2041 35.3223C52.2827 35.1863 52.34 35.0486 52.3728 34.9172C52.4055 34.7858 52.413 34.6633 52.3949 34.5565C52.3768 34.4498 52.3333 34.3609 52.267 34.2951C52.2008 34.2292 52.113 34.1876 52.0087 34.1727C51.9044 34.1578 51.7856 34.1698 51.6592 34.208C51.5327 34.2463 51.401 34.3101 51.2717 34.3957C51.1423 34.4813 51.0178 34.5872 50.9052 34.7071C50.7926 34.8271 50.6942 34.9589 50.6155 35.0949C50.5369 35.2309 50.4796 35.3686 50.4468 35.5C50.4141 35.6314 50.4066 35.7539 50.4247 35.8607C50.4428 35.9674 50.4863 36.0563 50.5526 36.1221ZM54.0554 44.4607C54.5689 44.0678 54.8361 43.5423 54.8571 42.8843C54.8838 42.0652 54.9325 41.2244 55.0031 40.3621C55.0757 39.4702 55.4345 38.7582 56.0797 38.2258C56.7726 37.6572 57.4311 37.2211 56.5922 36.4019C56.545 36.3549 56.4849 36.3235 56.4196 36.312C56.3543 36.3004 56.2867 36.3092 56.2257 36.3371C55.6416 36.6111 55.1033 36.8793 54.4563 36.9942C53.666 37.1317 53.2346 37.6503 53.1621 38.55C53.0132 40.3748 52.9025 42.1467 52.83 43.8655C52.8013 44.5628 53.1115 44.8123 53.7605 44.6139C53.8655 44.5825 53.9638 44.5314 54.0554 44.4607ZM49.5029 40.2088C49.4571 40.4131 49.4285 40.6194 49.417 40.8276L49.0849 46.0459C49.0429 46.7216 49.3273 46.9338 49.9381 46.6823C50.0393 46.6411 50.0946 46.6175 50.1042 46.6116C50.6425 46.3916 50.9278 46.0047 50.9603 45.4507C51.0595 43.7673 51.2514 42.0141 51.5358 40.1912C51.5549 40.0635 51.5453 39.9378 51.5072 39.814C51.4155 39.5135 51.5787 39.2748 51.4442 38.9654C51.3201 38.6825 51.112 38.5922 50.82 38.6943C50.1118 38.9379 49.6728 39.4427 49.5029 40.2088Z" fill="#262625"/>
<path d="M78.668 58.7079C71.6904 58.6932 67.6762 50.2868 71.7476 44.488C73.6059 41.845 76.2057 40.7165 79.3294 40.7253C89.0089 40.7528 98.6159 40.7499 108.15 40.7165C109.832 40.7106 111.095 40.854 111.938 41.1467C114.595 42.0689 116.646 44.1138 117.539 46.8099C119.154 51.6775 116.542 56.8251 111.775 58.3337C110.972 58.5871 110.054 58.7148 109.024 58.7168C97.7637 58.7286 87.6451 58.7256 78.668 58.7079ZM94.8852 47.022L94.9052 44.8063C94.909 44.4075 94.7373 44.1177 94.3899 43.937C94.3078 43.8958 94.2247 43.8781 94.1408 43.884C93.6349 43.9252 93.382 44.2071 93.382 44.7296L93.3791 53.4955C93.3791 53.6095 93.4297 53.689 93.5309 53.7342C95.3319 54.5327 97.7198 54.2999 98.5472 52.2521C99.5293 49.8242 98.3554 45.9672 95.1028 47.1782C94.9558 47.2332 94.8833 47.1811 94.8852 47.022ZM104.517 44.6766C104.517 44.5745 104.497 44.4733 104.459 44.3789C104.421 44.2845 104.366 44.1988 104.296 44.1266C104.225 44.0543 104.142 43.997 104.05 43.9579C103.959 43.9188 103.86 43.8987 103.761 43.8987H103.721C103.521 43.8987 103.328 43.9807 103.187 44.1266C103.045 44.2724 102.965 44.4703 102.965 44.6766V53.2274C102.965 53.4337 103.045 53.6316 103.187 53.7775C103.328 53.9233 103.521 54.0053 103.721 54.0053H103.761C103.86 54.0053 103.959 53.9852 104.05 53.9461C104.142 53.907 104.225 53.8497 104.296 53.7775C104.366 53.7052 104.421 53.6195 104.459 53.5251C104.497 53.4307 104.517 53.3296 104.517 53.2274V44.6766ZM101.647 45.0319C101.643 44.931 101.616 44.8321 101.57 44.7409C101.523 44.6497 101.457 44.5679 101.375 44.5002C101.293 44.4326 101.198 44.3803 101.093 44.3465C100.989 44.3127 100.878 44.298 100.767 44.3032C100.655 44.3084 100.546 44.3334 100.445 44.3768C100.344 44.4202 100.253 44.4812 100.178 44.5562C100.102 44.6312 100.044 44.7188 100.005 44.814C99.967 44.9092 99.9495 45.0101 99.9539 45.111C99.9584 45.2119 99.9847 45.3108 100.031 45.402C100.078 45.4932 100.144 45.575 100.226 45.6427C100.308 45.7103 100.403 45.7625 100.508 45.7964C100.612 45.8302 100.723 45.8449 100.834 45.8397C100.946 45.8345 101.055 45.8095 101.156 45.7661C101.257 45.7227 101.348 45.6617 101.423 45.5867C101.499 45.5117 101.557 45.4241 101.596 45.3289C101.634 45.2337 101.652 45.1328 101.647 45.0319ZM81.159 47.5701C80.197 46.583 78.104 46.8835 76.9329 47.3078C76.7745 47.3648 76.6962 47.4797 76.6981 47.6526L76.701 53.1773C76.701 53.5977 76.8957 53.8717 77.2851 53.9994C77.3557 54.021 77.4282 54.0249 77.5027 54.0112C77.9837 53.9169 78.2242 53.6173 78.2242 53.1125L78.2185 48.6691C78.2185 48.0739 78.5038 47.8186 79.0746 47.903C79.3036 47.9364 79.4497 47.958 79.5127 47.9679C80.1616 48.0641 80.4861 48.4491 80.4861 49.1229L80.4833 53.1655C80.4814 53.5938 80.6789 53.8727 81.076 54.0023C81.1447 54.0259 81.2124 54.0328 81.2792 54.023C81.7679 53.9581 82.0122 53.6723 82.0122 53.1655L82.0065 48.9726C82.0065 48.2576 82.3539 47.9129 83.0487 47.9384C83.0907 47.9404 83.1308 47.9423 83.169 47.9443C83.9096 47.9698 84.2789 48.3637 84.277 49.1259V53.0771C84.2751 53.5663 84.5032 53.8756 84.9613 54.0053C85.0568 54.0328 85.1493 54.0289 85.2391 53.9935C85.6227 53.8442 85.8098 53.5584 85.8002 53.1361C85.7754 51.9182 85.7773 50.6011 85.806 49.1848C85.8546 46.639 82.9456 46.4534 81.4281 47.5907C81.3327 47.6634 81.243 47.6565 81.159 47.5701ZM90.2468 47.0044C85.6456 45.9171 85.534 55.125 90.2697 54.0583C91.561 53.7666 92.2196 52.5733 92.3513 51.2886C92.5316 49.5295 92.1537 47.4522 90.2468 47.0044ZM107.208 51.0912L111.019 50.5137C111.153 50.494 111.221 50.4135 111.223 50.272C111.251 48.3686 110.352 46.7893 108.262 46.9484C107.102 47.0368 106.321 47.6388 105.92 48.7546C105.218 50.7111 105.614 53.6311 108.047 54.0642C109.09 54.2489 110.088 54.1015 111.042 53.6222C111.101 53.593 111.151 53.5499 111.19 53.4965C111.228 53.4431 111.253 53.3811 111.263 53.3158C111.291 53.141 111.26 52.9946 111.168 52.8768C110.981 52.641 110.753 52.587 110.484 52.7147C109.058 53.3983 107.403 53.2215 107.057 51.3063C107.034 51.1806 107.084 51.1089 107.208 51.0912ZM101.554 47.8205C101.554 47.6189 101.476 47.4256 101.337 47.283C101.199 47.1404 101.011 47.0603 100.815 47.0603H100.775C100.579 47.0603 100.391 47.1404 100.252 47.283C100.114 47.4256 100.036 47.6189 100.036 47.8205V53.2421C100.036 53.342 100.055 53.4408 100.092 53.5331C100.129 53.6253 100.184 53.7091 100.252 53.7797C100.321 53.8503 100.402 53.9063 100.492 53.9445C100.582 53.9827 100.678 54.0023 100.775 54.0023H100.815C100.912 54.0023 101.008 53.9827 101.098 53.9445C101.187 53.9063 101.269 53.8503 101.337 53.7797C101.406 53.7091 101.46 53.6253 101.497 53.5331C101.534 53.4408 101.554 53.342 101.554 53.2421V47.8205Z" fill="#262625"/>
<path d="M90.8043 49.2613C90.9532 50.4105 91.1708 53.1389 89.4958 53.08C87.8982 53.024 88.1616 49.3291 88.6741 48.4392C88.8211 48.1858 89.0339 48.0218 89.3126 47.9472C90.183 47.7114 90.7012 48.4775 90.8043 49.2613Z" fill="#262625"/>
<path d="M94.8796 48.3009C94.88 48.2417 94.8917 48.1832 94.9141 48.1286C94.9364 48.0741 94.969 48.0246 95.01 47.983C95.0509 47.9414 95.0994 47.9085 95.1527 47.8862C95.206 47.8639 95.263 47.8526 95.3206 47.853H95.6842C96.1303 47.8546 96.5576 48.072 96.8722 48.4576C97.1867 48.8433 97.3629 49.3655 97.362 49.9097V51.1355C97.3616 51.4054 97.3175 51.6726 97.2323 51.9218C97.1472 52.171 97.0226 52.3973 96.8657 52.5878C96.7088 52.7783 96.5227 52.9292 96.318 53.0318C96.1133 53.1345 95.894 53.187 95.6727 53.1862H95.3091C95.2516 53.1859 95.1947 53.1738 95.1417 53.1508C95.0887 53.1278 95.0406 53.0943 95.0002 53.0521C94.9598 53.01 94.9278 52.9601 94.9062 52.9052C94.8845 52.8504 94.8735 52.7917 94.8739 52.7325L94.8796 48.3009Z" fill="#262625"/>
<path d="M107.128 50.2952C107.111 50.2977 107.094 50.2933 107.08 50.2828C107.066 50.2723 107.056 50.2567 107.054 50.2392L107.011 49.9681C106.973 49.727 106.973 49.4824 107.009 49.2482C107.045 49.014 107.117 48.7948 107.22 48.6033C107.324 48.4117 107.458 48.2514 107.613 48.1317C107.769 48.012 107.944 47.9351 108.127 47.9055L108.19 47.8967C108.561 47.8368 108.945 47.9723 109.26 48.2734C109.575 48.5745 109.793 49.0166 109.868 49.5025L109.911 49.7736C109.912 49.7825 109.912 49.7916 109.91 49.8003C109.907 49.809 109.903 49.8171 109.898 49.8243C109.893 49.8314 109.886 49.8374 109.878 49.8418C109.871 49.8463 109.863 49.8491 109.854 49.8502L107.128 50.2952Z" fill="#262625"/>
</svg>
