<svg width="150" height="80" viewBox="0 0 150 80" fill="none" xmlns="http://www.w3.org/2000/svg">
<path d="M26.0806 44.394C28.1574 44.3466 30.2221 44.4986 32.2601 44.0726C34.8501 43.5296 35.7723 41.2355 36.4597 38.9065C37.164 36.5226 35.4213 35.4615 33.4171 35.4441C31.2677 35.4275 29.0498 35.4258 26.7632 35.4391C26.7568 35.4392 26.7505 35.4376 26.7449 35.4346C26.7392 35.4315 26.7344 35.4271 26.7308 35.4217C26.7272 35.4163 26.725 35.41 26.7243 35.4035C26.7236 35.397 26.7245 35.3904 26.7269 35.3843L27.4894 33.4314C27.4972 33.4102 27.5111 33.3919 27.5293 33.379C27.5474 33.3661 27.569 33.3592 27.591 33.3592C30.6376 33.3509 33.7294 33.3517 36.8663 33.3617C39.5071 33.3716 43.45 33.9944 43.1668 37.661C43.0878 38.6706 42.8094 39.6255 42.3318 40.5256C40.7165 43.5645 38.3452 45.4576 35.218 46.2049C33.9012 46.5187 32.3981 46.6134 31.0257 46.6183C28.1534 46.6283 25.2488 46.6325 22.3119 46.6308C22.2934 46.6311 22.2751 46.6266 22.2587 46.6177C22.2423 46.6089 22.2282 46.596 22.2179 46.5801C22.2076 46.5643 22.2012 46.5461 22.1995 46.5271C22.1977 46.5081 22.2006 46.4889 22.2079 46.4714L25.1802 39.158C25.2008 39.1065 25.236 39.0624 25.2812 39.0314C25.3265 39.0003 25.3798 38.9837 25.4344 38.9837L27.8282 38.9812C27.851 38.981 27.8735 38.9867 27.8937 38.9976C27.9139 39.0086 27.9311 39.0246 27.9438 39.0441C27.9565 39.0636 27.9643 39.086 27.9665 39.1094C27.9688 39.1327 27.9653 39.1563 27.9565 39.178L25.9233 44.1573C25.8571 44.3184 25.9096 44.3973 26.0806 44.394Z" fill="#262625"/>
<path d="M81.2152 37.2734C80.7626 37.804 80.2591 38.2698 79.7169 38.7107C77.0721 40.8645 74.4306 43.0125 71.7923 45.1547C71.7404 45.1969 71.6798 45.2263 71.6151 45.2407C71.5505 45.255 71.4834 45.254 71.419 45.2377C71.3547 45.2214 71.2947 45.1902 71.2436 45.1464C71.1925 45.1027 71.1517 45.0476 71.1242 44.9853C70.2173 42.9096 69.287 40.7408 68.3334 38.4791C68.1656 38.0788 68.0284 37.6936 67.9219 37.3233C67.8799 37.1771 67.8412 37.178 67.8057 37.3258C67.7065 37.7368 67.5879 38.1702 67.4305 38.5513C66.443 40.9376 65.3723 43.5672 64.2185 46.44C64.1941 46.5012 64.1525 46.5536 64.099 46.5904C64.0456 46.6272 63.9827 46.6468 63.9184 46.6468L55.0183 46.6443C54.936 46.6443 54.8876 46.6028 54.8731 46.5197L54.2679 43.304C54.2606 43.2646 54.2401 43.2291 54.2101 43.2037C54.18 43.1782 54.1423 43.1643 54.1033 43.1645H45.697C45.605 43.1645 45.5268 43.1969 45.4622 43.2616L42.2381 46.4525C42.1155 46.5738 41.9522 46.6408 41.7831 46.6393L38.8736 46.6244C38.701 46.6227 38.6776 46.5613 38.8034 46.44L52.2347 33.4748C52.3154 33.3965 52.4219 33.3528 52.5324 33.3527L58.4723 33.3552C58.5073 33.3553 58.5412 33.3675 58.5685 33.3896C58.5957 33.4118 58.6147 33.4427 58.6224 33.4773L61.4568 45.5682C61.5375 45.9136 61.644 45.9219 61.7763 45.5931L66.6778 33.4997C66.6958 33.4562 66.7258 33.4191 66.7641 33.393C66.8023 33.3668 66.8472 33.3529 66.8932 33.3527L72.303 33.3577C72.3451 33.3576 72.3866 33.3696 72.4229 33.3925C72.4591 33.4153 72.4888 33.4481 72.5087 33.4872L74.3943 37.3955C74.4133 37.4338 74.4242 37.4758 74.4263 37.5187C74.4284 37.5616 74.4216 37.6046 74.4064 37.6446L72.9371 41.4482C72.7838 41.8451 72.8678 41.9082 73.1889 41.6375C76.4388 38.8876 79.7895 36.1517 83.2411 33.43C83.3057 33.3785 83.3791 33.3527 83.4614 33.3527H88.8494C88.8635 33.3528 88.8773 33.3564 88.8896 33.3633C88.902 33.3702 88.9125 33.3801 88.9202 33.3922C88.9278 33.4044 88.9325 33.4182 88.9337 33.4326C88.9348 33.4471 88.9325 33.4615 88.9269 33.4748L84.0351 45.5383C83.8931 45.8904 83.9568 45.936 84.2263 45.6753L96.8515 33.5122C96.9613 33.4059 97.0912 33.3527 97.2412 33.3527L103.118 33.3428C103.168 33.343 103.216 33.3602 103.255 33.3918C103.294 33.4234 103.322 33.4675 103.334 33.5171L106.357 46.4948C106.36 46.5107 106.361 46.5271 106.357 46.543C106.354 46.5589 106.347 46.5738 106.338 46.5865C106.328 46.5993 106.316 46.6095 106.302 46.6165C106.288 46.6235 106.273 46.627 106.258 46.6269L103.348 46.6194C103.245 46.6194 103.183 46.5671 103.162 46.4624L102.54 43.3089C102.531 43.2626 102.506 43.2209 102.47 43.1909C102.434 43.161 102.388 43.1446 102.341 43.1445L93.6057 43.1545C93.5219 43.1544 93.442 43.1875 93.383 43.2467L90.1734 46.4699C90.075 46.5679 89.9572 46.6177 89.82 46.6194L77.6014 46.6567C77.5895 46.6569 77.5778 46.654 77.5673 46.6483C77.5568 46.6426 77.5478 46.6342 77.5412 46.6238C77.5345 46.6135 77.5303 46.6016 77.529 46.5891C77.5277 46.5766 77.5293 46.5639 77.5336 46.5521L81.2878 37.3183C81.2907 37.3087 81.2904 37.2984 81.2869 37.289C81.2835 37.2796 81.277 37.2717 81.2686 37.2665C81.2603 37.2613 81.2504 37.2592 81.2407 37.2604C81.2311 37.2617 81.2221 37.2663 81.2152 37.2734ZM101.993 41.3087C102.006 41.3087 102.019 41.3056 102.031 41.2996C102.043 41.2936 102.054 41.2849 102.062 41.2741C102.071 41.2634 102.077 41.2509 102.08 41.2374C102.083 41.224 102.083 41.2101 102.08 41.1966L100.952 35.8387C100.948 35.8227 100.941 35.808 100.93 35.7961C100.919 35.7842 100.905 35.7756 100.89 35.771C100.874 35.7664 100.858 35.7661 100.843 35.7702C100.827 35.7742 100.813 35.7823 100.802 35.7938L95.4864 41.1468C95.474 41.1597 95.4656 41.1761 95.4622 41.1938C95.4588 41.2116 95.4606 41.23 95.4673 41.2468C95.474 41.2635 95.4854 41.2778 95.5 41.288C95.5146 41.2981 95.5317 41.3036 95.5493 41.3038L101.993 41.3087ZM53.7596 41.3137C53.7716 41.3135 53.7833 41.3107 53.7941 41.3054C53.8049 41.3001 53.8144 41.2924 53.822 41.2829C53.8296 41.2735 53.8351 41.2624 53.8381 41.2505C53.8411 41.2386 53.8416 41.2262 53.8395 41.2141L52.8641 36.1127C52.8612 36.0977 52.8545 36.0838 52.8447 36.0724C52.8348 36.061 52.8222 36.0526 52.808 36.048C52.7939 36.0434 52.7788 36.0428 52.7644 36.0463C52.75 36.0498 52.7367 36.0572 52.7261 36.0678L47.5462 41.1792C47.5339 41.1909 47.5253 41.2062 47.5217 41.223C47.518 41.2399 47.5194 41.2574 47.5258 41.2734C47.5321 41.2894 47.543 41.303 47.557 41.3125C47.5711 41.3219 47.5876 41.3267 47.6043 41.3262L53.7596 41.3137Z" fill="#262625"/>
<path d="M124.098 35.3655C122.852 35.4003 121.591 35.4211 120.315 35.4277C118.068 35.4394 116.267 36.3311 114.91 38.103C114.029 39.2538 112.608 42.3326 113.958 43.5631C114.825 44.3552 116.587 44.4922 117.7 44.5047C119.371 44.5229 121.199 44.5287 123.185 44.5221C123.229 44.5221 123.243 44.5429 123.226 44.5844L122.466 46.5622C122.459 46.5805 122.447 46.5963 122.431 46.6073C122.415 46.6184 122.396 46.6244 122.377 46.6244C119.082 46.6477 115.826 46.6394 112.61 46.5995C111.824 46.5912 110.948 46.4849 109.982 46.2807C106.314 45.511 106.346 41.9465 107.75 39.1841C109.904 34.942 114.094 33.3802 118.519 33.3628C121.723 33.3478 124.775 33.3478 127.673 33.3628C127.694 33.3627 127.715 33.368 127.733 33.3782C127.752 33.3885 127.768 33.4033 127.779 33.4215C127.791 33.4397 127.798 33.4607 127.8 33.4826C127.802 33.5045 127.799 33.5266 127.791 33.5471L126.296 37.3283C126.263 37.4097 126.204 37.4504 126.119 37.4504L123.565 37.4529C123.551 37.4528 123.536 37.449 123.523 37.4418C123.51 37.4347 123.499 37.4244 123.491 37.4118C123.483 37.3993 123.478 37.3849 123.477 37.3699C123.475 37.3549 123.477 37.3398 123.483 37.3258L124.207 35.5299C124.252 35.4169 124.216 35.3622 124.098 35.3655Z" fill="#262625"/>
</svg>
