<svg width="150" height="80" viewBox="0 0 150 80" fill="none" xmlns="http://www.w3.org/2000/svg">
<path d="M45.7187 46.9922C45.7187 46.782 45.6481 46.7525 45.5068 46.9038C39.0446 53.7928 27.9038 50.1096 26.5467 40.7515C25.9053 36.3346 27.8409 31.9856 31.4542 29.5812C33.9776 27.9017 36.7903 27.3801 39.8921 28.0166C39.9048 28.0192 39.918 28.0189 39.9306 28.0156C39.9433 28.0124 39.9551 28.0064 39.9652 27.9979C39.9753 27.9895 39.9835 27.9789 39.9891 27.9668C39.9948 27.9548 39.9978 27.9416 39.998 27.9282L39.9951 7.67382C39.9952 7.66389 39.997 7.65407 40.0007 7.64493C40.0043 7.6358 40.0096 7.62754 40.0163 7.62066C40.023 7.61378 40.0309 7.60842 40.0396 7.60489C40.0482 7.60137 40.0575 7.59976 40.0667 7.60016L42.7266 7.60605C42.7648 7.60605 42.7839 7.62569 42.7839 7.66498L42.7868 32.1005C42.7871 32.1238 42.7815 32.1468 42.7705 32.1672C42.7595 32.1875 42.7435 32.2046 42.724 32.2165C42.7045 32.2285 42.6824 32.2349 42.6597 32.2353C42.637 32.2356 42.6147 32.2297 42.5949 32.2183C41.9307 31.8569 41.2149 31.521 40.4475 31.2106C37.9909 30.2147 35.1993 30.5182 33.0204 31.9826C27.6691 35.5803 28.047 43.5448 33.6675 46.6239C38.303 49.1638 44.2441 46.4618 45.4839 41.1375C45.6385 40.4735 45.7158 39.2674 45.7158 37.5191C45.7158 27.5618 45.7158 17.6105 45.7158 7.66498C45.7158 7.64779 45.7225 7.6313 45.7343 7.61914C45.7461 7.60699 45.7621 7.60016 45.7788 7.60016L48.4445 7.6031C48.496 7.60507 48.5218 7.63257 48.5218 7.68561L48.5103 16.7845C48.5103 16.9691 48.5723 16.9946 48.6964 16.8611C55.8344 9.12645 68.3838 14.6011 67.8112 25.241C67.8093 25.2901 67.7844 25.3146 67.7367 25.3146L65.1054 25.3176C65.0444 25.3176 65.0157 25.2862 65.0195 25.2233C65.1646 22.9918 64.5633 21.0088 63.2157 19.2743C59.0669 13.9381 50.9584 15.6383 48.914 22.0175C48.6334 22.8916 48.4941 24.2549 48.496 26.1073C48.5227 41.6433 48.5265 57.0555 48.5075 72.3441C48.5075 72.3581 48.502 72.3716 48.4924 72.3816C48.4827 72.3915 48.4696 72.3971 48.4559 72.3971L45.7874 72.4C45.7397 72.4 45.7158 72.3755 45.7158 72.3264L45.7187 46.9922Z" fill="#262625"/>
<path d="M54.44 28.5828L59.3303 28.5857C59.4467 28.5857 59.505 28.6456 59.505 28.7655L59.5107 31.2317C59.5126 31.3771 59.442 31.4497 59.2988 31.4497L51.5682 31.4468C51.5502 31.4468 51.5325 31.4431 51.516 31.436C51.4995 31.4288 51.4845 31.4184 51.472 31.4052C51.4594 31.392 51.4496 31.3764 51.443 31.3593C51.4364 31.3421 51.4332 31.3238 51.4336 31.3054C51.4718 29.4785 51.4708 27.6654 51.4307 25.8661C51.3735 23.4028 51.76 21.6791 53.538 20.2323C54.2424 19.6568 55.0164 19.3081 55.8601 19.1863C59.5221 18.6589 62.4083 21.4669 62.1334 25.2473C62.1315 25.2945 62.1076 25.318 62.0618 25.318L59.4047 25.3151C59.3608 25.3151 59.3418 25.2935 59.3475 25.2503C59.4582 24.1954 59.1862 23.3468 58.5315 22.7045C56.805 21.0132 54.1737 22.4069 54.2424 24.8319C54.2748 26.0006 54.2758 27.1822 54.2453 28.3765C54.2414 28.514 54.3063 28.5828 54.44 28.5828Z" fill="#262625"/>
<path d="M84.2602 36.3849C84.8557 36.3653 85.1984 36.0284 85.2881 35.3743C85.2976 35.2976 85.3406 35.2584 85.4169 35.2564L86.545 35.2328C86.5572 35.2328 86.5692 35.2353 86.5804 35.2403C86.5915 35.2453 86.6016 35.2525 86.6099 35.2616C86.6182 35.2707 86.6246 35.2815 86.6287 35.2933C86.6328 35.3051 86.6346 35.3176 86.6338 35.3301C86.5746 36.3417 86.0917 36.9673 85.185 37.207C82.6883 37.867 81.6547 36.0048 81.8379 33.8126C81.9954 31.8915 83.2094 30.8602 85.165 31.3552C86.0697 31.585 86.5641 32.2097 86.6481 33.2292C86.6519 33.2881 86.6252 33.3176 86.5679 33.3176L85.3568 33.2999C85.3365 33.3 85.3169 33.2921 85.302 33.2779C85.2872 33.2636 85.2781 33.2441 85.2766 33.2233C85.2365 32.6517 84.954 32.3089 84.4291 32.195C82.7914 31.8384 82.737 36.4321 84.2602 36.3849Z" fill="#262625"/>
<path d="M65.0597 31.4636C65.0597 31.4363 65.0702 31.4101 65.089 31.3907C65.1078 31.3714 65.1333 31.3605 65.1599 31.3605L67.3388 31.3428C67.672 31.3405 68.0023 31.4045 68.311 31.5313C68.6196 31.6581 68.9006 31.8452 69.1377 32.0819C69.3749 32.3186 69.5637 32.6002 69.6932 32.9107C69.8228 33.2212 69.8906 33.5545 69.8928 33.8916L69.8985 34.6282C69.903 35.3088 69.6401 35.9634 69.1675 36.448C68.695 36.9326 68.0516 37.2076 67.3789 37.2123L65.2 37.23C65.1734 37.23 65.1479 37.2191 65.1291 37.1998C65.1103 37.1804 65.0998 37.1542 65.0998 37.1269L65.0597 31.4636ZM66.2909 32.4625L66.308 36.0926C66.308 36.12 66.3186 36.1462 66.3374 36.1656C66.3562 36.1849 66.3817 36.1958 66.4083 36.1958L67.0754 36.1928C67.2719 36.1921 67.4664 36.1504 67.6476 36.0701C67.8289 35.9899 67.9933 35.8726 68.1316 35.7251C68.2699 35.5776 68.3793 35.4027 68.4536 35.2104C68.5278 35.0182 68.5654 34.8123 68.5643 34.6046L68.5585 33.9269C68.5562 33.5086 68.3969 33.1083 68.1156 32.8139C67.8344 32.5195 67.4541 32.3549 67.0582 32.3564L66.3911 32.3594C66.3779 32.3594 66.3649 32.3621 66.3527 32.3672C66.3406 32.3724 66.3295 32.38 66.3202 32.3896C66.3109 32.3992 66.3035 32.4105 66.2985 32.423C66.2935 32.4356 66.2909 32.449 66.2909 32.4625Z" fill="#262625"/>
<path d="M72.2499 35.1172C72.2785 36.8674 74.6178 36.8616 74.6178 35.0878C74.6178 33.7972 74.6168 32.5832 74.6149 31.4459C74.6149 31.383 74.6445 31.3516 74.7037 31.3516L75.8117 31.3545C75.8766 31.3545 75.9091 31.3879 75.9091 31.4547C75.911 32.8062 75.9081 34.0751 75.9005 35.2616C75.8976 36.0424 75.388 36.8174 74.6607 37.1032C72.8999 37.7956 70.9128 37.0678 70.9472 34.8402C70.9643 33.6243 70.9643 32.4987 70.9472 31.4635C70.9468 31.4494 70.9492 31.4352 70.9542 31.422C70.9592 31.4088 70.9667 31.3968 70.9763 31.3866C70.9859 31.3764 70.9974 31.3684 71.0101 31.3629C71.0228 31.3573 71.0365 31.3545 71.0502 31.3545H72.1211C72.2108 31.3545 72.2547 31.4007 72.2528 31.493C72.2318 32.6991 72.2308 33.9072 72.2499 35.1172Z" fill="#262625"/>
<path d="M79.6794 32.4565L79.688 37.115C79.688 37.1431 79.6772 37.1701 79.6578 37.19C79.6385 37.2099 79.6123 37.221 79.5849 37.221L78.4969 37.2122C78.4696 37.2122 78.4434 37.201 78.424 37.1811C78.4047 37.1612 78.3939 37.1343 78.3939 37.1061L78.4024 32.4565C78.4024 32.4284 78.3916 32.4014 78.3723 32.3815C78.3529 32.3616 78.3267 32.3504 78.2994 32.3504L76.8449 32.3475C76.8185 32.3475 76.7931 32.3372 76.7739 32.3185C76.7548 32.2999 76.7432 32.2744 76.7418 32.2473L76.7017 31.4665C76.7009 31.4521 76.703 31.4376 76.7078 31.4241C76.7127 31.4105 76.7201 31.3981 76.7298 31.3876C76.7394 31.3771 76.7511 31.3688 76.764 31.3631C76.7768 31.3574 76.7907 31.3545 76.8048 31.3545L81.2427 31.3516C81.2701 31.3516 81.2963 31.3627 81.3156 31.3826C81.335 31.4025 81.3458 31.4295 81.3458 31.4576L81.3401 32.2473C81.3401 32.2754 81.3292 32.3024 81.3099 32.3223C81.2906 32.3422 81.2643 32.3534 81.237 32.3534L79.7825 32.3504C79.7552 32.3504 79.7289 32.3616 79.7096 32.3815C79.6903 32.4014 79.6794 32.4284 79.6794 32.4565Z" fill="#262625"/>
<path d="M90.8596 33.5556L90.8339 31.4635C90.8335 31.4494 90.8359 31.4352 90.8409 31.422C90.8459 31.4088 90.8534 31.3968 90.863 31.3866C90.8726 31.3764 90.8841 31.3684 90.8968 31.3629C90.9095 31.3573 90.9232 31.3545 90.9369 31.3545L91.9992 31.3604C92.0265 31.3604 92.0527 31.3716 92.0721 31.3915C92.0914 31.4114 92.1023 31.4383 92.1023 31.4665L92.0994 37.112C92.0994 37.1259 92.0967 37.1397 92.0915 37.1526C92.0864 37.1655 92.0788 37.1772 92.0692 37.187C92.0596 37.1969 92.0483 37.2047 92.0358 37.21C92.0233 37.2153 92.0099 37.2181 91.9963 37.2181L90.9398 37.2151C90.9125 37.2151 90.8862 37.204 90.8669 37.1841C90.8476 37.1642 90.8367 37.1372 90.8367 37.1091L90.8568 34.7577C90.8568 34.7296 90.8459 34.7026 90.8266 34.6827C90.8072 34.6628 90.781 34.6517 90.7537 34.6517H88.8353C88.808 34.6517 88.7818 34.6628 88.7625 34.6827C88.7431 34.7026 88.7323 34.7296 88.7323 34.7577L88.7638 37.1061C88.7638 37.1343 88.7529 37.1612 88.7336 37.1811C88.7142 37.201 88.688 37.2122 88.6607 37.2122L87.5984 37.2151C87.5711 37.2151 87.5449 37.204 87.5256 37.1841C87.5062 37.1642 87.4954 37.1372 87.4954 37.1091V31.4576C87.4954 31.4295 87.5062 31.4025 87.5256 31.3826C87.5449 31.3627 87.5711 31.3516 87.5984 31.3516L88.6607 31.3575C88.6875 31.3582 88.713 31.3697 88.7317 31.3895C88.7504 31.4094 88.7609 31.4359 88.7609 31.4635L88.7351 33.5526C88.7351 33.5802 88.7456 33.6068 88.7643 33.6266C88.783 33.6464 88.8085 33.6579 88.8353 33.6587L90.7566 33.6646C90.7703 33.6646 90.784 33.6617 90.7967 33.6562C90.8094 33.6507 90.8209 33.6426 90.8305 33.6325C90.8401 33.6223 90.8476 33.6103 90.8526 33.5971C90.8576 33.5838 90.86 33.5697 90.8596 33.5556Z" fill="#262625"/>
<path d="M42.8021 39.1085C42.8021 40.5644 42.2401 41.9606 41.2397 42.9901C40.2394 44.0195 38.8826 44.5979 37.4679 44.5979C36.0532 44.5979 34.6965 44.0195 33.6961 42.9901C32.6958 41.9606 32.1338 40.5644 32.1338 39.1085C32.1338 37.6526 32.6958 36.2564 33.6961 35.2269C34.6965 34.1975 36.0532 33.6191 37.4679 33.6191C38.8826 33.6191 40.2394 34.1975 41.2397 35.2269C42.2401 36.2564 42.8021 37.6526 42.8021 39.1085ZM40.0019 39.1085C40.0019 38.4177 39.7352 37.7552 39.2605 37.2667C38.7859 36.7782 38.1421 36.5038 37.4708 36.5038C36.7995 36.5038 36.1557 36.7782 35.6811 37.2667C35.2064 37.7552 34.9397 38.4177 34.9397 39.1085C34.9397 39.7993 35.2064 40.4618 35.6811 40.9503C36.1557 41.4388 36.7995 41.7132 37.4708 41.7132C38.1421 41.7132 38.7859 41.4388 39.2605 40.9503C39.7352 40.4618 40.0019 39.7993 40.0019 39.1085Z" fill="#262625"/>
<path d="M54.2567 37.4805L54.2596 72.2495C54.2596 72.2886 54.2445 72.326 54.2177 72.3537C54.1908 72.3813 54.1544 72.3968 54.1164 72.3968L51.594 72.3998C51.556 72.3998 51.5196 72.3842 51.4927 72.3566C51.4659 72.329 51.4508 72.2915 51.4508 72.2524V34.6254C51.4508 34.5863 51.4659 34.5488 51.4927 34.5212C51.5196 34.4936 51.556 34.478 51.594 34.478L59.3647 34.4751C59.4027 34.4751 59.4391 34.4906 59.4659 34.5182C59.4928 34.5459 59.5079 34.5834 59.5079 34.6224L59.5107 37.1977C59.5107 37.2368 59.4956 37.2742 59.4688 37.3019C59.4419 37.3295 59.4055 37.345 59.3676 37.345L54.3999 37.3332C54.3619 37.3332 54.3255 37.3487 54.2987 37.3764C54.2718 37.404 54.2567 37.4415 54.2567 37.4805Z" fill="#262625"/>
<path d="M74.8586 43.6321C74.8551 44.3128 74.5891 44.9641 74.1189 45.4429C73.6488 45.9217 73.0131 46.1886 72.3517 46.1851L71.8879 46.1826C71.5604 46.1808 71.2365 46.1127 70.9346 45.9821C70.6326 45.8515 70.3587 45.661 70.1283 45.4214C69.898 45.1818 69.7157 44.8979 69.592 44.5859C69.4682 44.2738 69.4054 43.9398 69.4071 43.6027L69.4119 42.6658C69.4154 41.9851 69.6814 41.3338 70.1516 40.855C70.6217 40.3762 71.2574 40.1093 71.9188 40.1128L72.3826 40.1153C72.7101 40.1171 73.0341 40.1852 73.336 40.3158C73.6379 40.4464 73.9118 40.6369 74.1422 40.8765C74.3725 41.1161 74.5548 41.4 74.6785 41.712C74.8023 42.0241 74.8651 42.3581 74.8634 42.6952L74.8586 43.6321ZM72.1389 45.3029C72.5224 45.3022 72.8898 45.074 73.1603 44.6684C73.4307 44.2629 73.5821 43.7133 73.5812 43.1405C73.5807 42.8568 73.5428 42.5761 73.4697 42.3141C73.3966 42.0522 73.2897 41.8143 73.1551 41.614C73.0205 41.4137 72.8608 41.2549 72.6852 41.1467C72.5096 41.0384 72.3215 40.9829 72.1316 40.9833C71.7481 40.9839 71.3807 41.2122 71.1103 41.6177C70.8398 42.0232 70.6884 42.5728 70.6893 43.1457C70.6898 43.4293 70.7277 43.7101 70.8008 43.972C70.8739 44.2339 70.9808 44.4718 71.1154 44.6721C71.25 44.8724 71.4097 45.0312 71.5853 45.1394C71.7609 45.2477 71.949 45.3032 72.1389 45.3029Z" fill="#262625"/>
<path d="M111.94 43.6219C111.939 43.9589 111.873 44.2924 111.747 44.6033C111.62 44.9143 111.436 45.1965 111.203 45.434C110.971 45.6715 110.695 45.8595 110.392 45.9874C110.089 46.1153 109.765 46.1805 109.437 46.1793L108.968 46.1777C108.64 46.1765 108.316 46.1089 108.014 45.9789C107.712 45.8488 107.438 45.6588 107.207 45.4196C106.976 45.1805 106.793 44.8969 106.669 44.5851C106.545 44.2733 106.482 43.9393 106.483 43.6023L106.486 42.6771C106.487 42.3401 106.553 42.0066 106.679 41.6956C106.805 41.3847 106.99 41.1025 107.222 40.865C107.455 40.6275 107.73 40.4395 108.033 40.3116C108.336 40.1837 108.661 40.1185 108.988 40.1196L109.458 40.1213C109.785 40.1225 110.109 40.1901 110.412 40.3201C110.714 40.4502 110.988 40.6402 111.219 40.8794C111.45 41.1185 111.632 41.4021 111.757 41.7139C111.881 42.0257 111.944 42.3597 111.943 42.6967L111.94 43.6219ZM109.208 45.3005C109.399 45.3011 109.587 45.246 109.763 45.138C109.94 45.0301 110.1 44.8716 110.235 44.6716C110.37 44.4715 110.478 44.2338 110.551 43.972C110.625 43.7102 110.664 43.4295 110.665 43.1459C110.665 42.8622 110.629 42.5812 110.557 42.3189C110.485 42.0566 110.379 41.8182 110.245 41.6171C110.112 41.4161 109.952 41.2564 109.777 41.1472C109.602 41.0381 109.413 40.9815 109.223 40.9809C109.033 40.9802 108.844 41.0354 108.668 41.1433C108.492 41.2512 108.332 41.4097 108.196 41.6098C108.061 41.8098 107.954 42.0475 107.88 42.3093C107.806 42.5711 107.768 42.8518 107.767 43.1354C107.766 43.4191 107.803 43.7001 107.874 43.9624C107.946 44.2247 108.052 44.4631 108.186 44.6642C108.32 44.8652 108.479 45.0249 108.655 45.1341C108.83 45.2432 109.018 45.2998 109.208 45.3005Z" fill="#262625"/>
<path d="M120.503 41.4567C120.45 41.5416 120.418 41.6383 120.41 41.7386C120.401 41.8389 120.416 41.9398 120.454 42.0328C120.491 42.1258 120.55 42.2082 120.624 42.2731C120.699 42.338 120.788 42.3834 120.883 42.4055C121.883 42.6382 123.586 42.9034 123.575 44.2588C123.567 45.0878 123.204 45.6457 122.484 45.9324C121.153 46.4687 118.865 46.345 118.937 44.3236C118.94 44.2353 118.985 44.1911 119.071 44.1911L120.076 44.194C120.172 44.194 120.221 44.2431 120.225 44.3413C120.291 45.8529 122.581 45.2076 122.229 44.3354C122.122 44.0742 121.943 43.9121 121.691 43.8493C120.735 43.6165 119.249 43.3366 119.105 42.2788C118.765 39.7831 122.911 39.1731 123.44 41.6158C123.484 41.8142 123.407 41.9134 123.208 41.9134H122.418C122.26 41.9134 122.167 41.8338 122.14 41.6747C122.006 40.8468 120.878 40.8438 120.503 41.4567Z" fill="#262625"/>
<path d="M66.325 43.7099L66.3822 45.9522C66.3826 45.9666 66.3802 45.9808 66.3753 45.9942C66.3703 46.0076 66.3628 46.0198 66.3532 46.0302C66.3437 46.0406 66.3322 46.049 66.3195 46.0548C66.3068 46.0606 66.2931 46.0638 66.2792 46.0642L65.1911 46.0937C65.177 46.0941 65.1629 46.0915 65.1497 46.0862C65.1365 46.0809 65.1245 46.073 65.1144 46.0628C65.1042 46.0526 65.0962 46.0405 65.0907 46.0271C65.0852 46.0136 65.0823 45.9992 65.0823 45.9847V40.3214C65.0823 40.3071 65.0851 40.2929 65.0904 40.2797C65.0957 40.2665 65.1035 40.2545 65.1134 40.2444C65.1232 40.2342 65.1349 40.2262 65.1477 40.2207C65.1606 40.2152 65.1744 40.2124 65.1883 40.2124L68.7071 40.2095C68.7213 40.2095 68.7353 40.2124 68.7484 40.218C68.7614 40.2237 68.7732 40.232 68.7831 40.2424C68.793 40.2529 68.8007 40.2652 68.8059 40.2788C68.811 40.2924 68.8135 40.3069 68.8131 40.3214L68.8045 41.1111C68.8038 41.1395 68.7923 41.1665 68.7725 41.1863C68.7527 41.2061 68.7262 41.2172 68.6986 41.2172L66.4338 41.226C66.4199 41.226 66.4061 41.2288 66.3932 41.2343C66.3804 41.2398 66.3687 41.2478 66.3589 41.258C66.349 41.2681 66.3412 41.2801 66.3359 41.2933C66.3306 41.3066 66.3278 41.3207 66.3278 41.335L66.3364 42.4577C66.3364 42.4866 66.3476 42.5143 66.3674 42.5348C66.3873 42.5552 66.4143 42.5667 66.4424 42.5667L68.5039 42.5696C68.532 42.5696 68.5589 42.5811 68.5788 42.6016C68.5986 42.622 68.6098 42.6497 68.6098 42.6787L68.6041 43.4889C68.6041 43.5179 68.5929 43.5456 68.573 43.566C68.5532 43.5865 68.5262 43.598 68.4981 43.598H66.4309C66.4167 43.598 66.4027 43.6009 66.3897 43.6065C66.3766 43.6122 66.3648 43.6205 66.355 43.6309C66.3451 43.6414 66.3373 43.6537 66.3322 43.6673C66.327 43.6809 66.3246 43.6954 66.325 43.7099Z" fill="#262625"/>
<path d="M77.1856 43.9044C77.197 44.8002 77.5979 45.2186 78.4167 45.2274C79.1841 45.2353 79.5802 44.7746 79.605 43.8455C79.6393 42.492 79.6422 41.3115 79.6136 40.3038C79.6116 40.2448 79.6393 40.2154 79.6966 40.2154L80.7617 40.2124C80.8247 40.2105 80.8562 40.2419 80.8562 40.3067C80.8352 41.448 80.8361 42.661 80.859 43.9457C80.8934 45.9788 78.7718 46.5592 77.2629 45.9994C76.1834 45.5957 75.8542 44.6057 75.8914 43.4978C75.9296 42.4508 75.9248 41.3802 75.8771 40.2861C75.8752 40.2429 75.8952 40.2203 75.9372 40.2183L77.1111 40.2095C77.1316 40.2095 77.1513 40.2182 77.1658 40.2336C77.1803 40.2491 77.1884 40.2701 77.1884 40.292C77.1712 41.4411 77.1703 42.6453 77.1856 43.9044Z" fill="#262625"/>
<path d="M85.7086 44.1195C85.9472 44.7108 86.0646 44.6862 86.0607 44.0458L86.0378 40.3038C86.0359 40.2409 86.0665 40.2095 86.1295 40.2095L87.1946 40.2154C87.2347 40.2173 87.2547 40.238 87.2547 40.2772L87.2576 45.8874C87.2576 46.0131 87.1965 46.076 87.0743 46.076L85.6513 46.0878C85.6 46.0887 85.5494 46.0741 85.5058 46.0459C85.4621 46.0176 85.4271 45.9769 85.4051 45.9287L83.3922 41.5737C83.2701 41.3105 83.2109 41.3252 83.2147 41.6179L83.2663 45.9463C83.2682 46.0269 83.23 46.0681 83.1517 46.0701L82.1668 46.0848C82.1526 46.0852 82.1385 46.0827 82.1254 46.0774C82.1122 46.0721 82.1002 46.0641 82.09 46.054C82.0799 46.0438 82.0718 46.0316 82.0663 46.0182C82.0608 46.0048 82.058 45.9904 82.058 45.9758V40.3627C82.058 40.2625 82.1076 40.2124 82.2069 40.2124L83.7673 40.2095C83.8723 40.2095 83.9486 40.2576 83.9964 40.3539C84.6568 41.6719 85.2275 42.9271 85.7086 44.1195Z" fill="#262625"/>
<path d="M88.3352 40.3018C88.3352 40.2898 88.3375 40.2779 88.342 40.2669C88.3464 40.2558 88.353 40.2457 88.3612 40.2372C88.3694 40.2287 88.3792 40.222 88.39 40.2174C88.4008 40.2128 88.4123 40.2105 88.424 40.2105L90.6286 40.2075C90.9601 40.2067 91.2885 40.2719 91.5951 40.3993C91.9016 40.5267 92.1802 40.7139 92.415 40.95C92.6498 41.1862 92.8362 41.4668 92.9635 41.7757C93.0908 42.0846 93.1565 42.4158 93.1568 42.7504V43.5283C93.1576 44.2029 92.8929 44.8503 92.421 45.3282C91.9491 45.8061 91.3086 46.0754 90.6401 46.077L88.4354 46.0799C88.4119 46.0799 88.3893 46.0703 88.3727 46.0532C88.356 46.0361 88.3467 46.0128 88.3467 45.9886L88.3352 40.3018ZM89.6122 41.3449L89.6408 44.9396C89.6408 44.955 89.6438 44.9702 89.6496 44.9843C89.6554 44.9984 89.6639 45.0112 89.6745 45.022C89.6852 45.0327 89.6979 45.0411 89.7117 45.0467C89.7256 45.0523 89.7404 45.0549 89.7554 45.0546L90.3767 45.0487C90.7604 45.0448 91.127 44.8838 91.3959 44.6009C91.6649 44.3181 91.8142 43.9365 91.8111 43.54L91.8054 42.7091C91.8039 42.5123 91.7648 42.3177 91.6905 42.1365C91.6161 41.9553 91.5078 41.791 91.372 41.6531C91.2361 41.5152 91.0752 41.4063 90.8985 41.3327C90.7218 41.259 90.5328 41.2221 90.3423 41.2241L89.721 41.23C89.6919 41.2307 89.6642 41.2432 89.6439 41.2647C89.6235 41.2861 89.6122 41.3149 89.6122 41.3449Z" fill="#262625"/>
<path d="M97.4854 44.8237L95.4383 44.8355C95.4143 44.8354 95.3909 44.843 95.3714 44.8573C95.3519 44.8716 95.3372 44.8918 95.3295 44.9151L94.983 45.9935C94.9759 46.0169 94.9618 46.0374 94.9429 46.0522C94.9239 46.067 94.9009 46.0753 94.8771 46.076L93.8692 46.0937C93.8506 46.0939 93.8322 46.0895 93.8156 46.0808C93.799 46.0721 93.7848 46.0593 93.774 46.0437C93.7633 46.028 93.7565 46.0099 93.7541 45.9909C93.7517 45.9718 93.7539 45.9525 93.7604 45.9346L95.7561 40.2861C95.7643 40.2633 95.7792 40.2438 95.7987 40.2301C95.8182 40.2163 95.8413 40.2092 95.8649 40.2095L97.1877 40.2124C97.2111 40.2129 97.2339 40.2208 97.2528 40.2351C97.2717 40.2493 97.286 40.2692 97.2936 40.292L99.2091 45.9169C99.215 45.9344 99.2167 45.9532 99.2142 45.9716C99.2117 45.99 99.205 46.0075 99.1947 46.0227C99.1844 46.0379 99.1707 46.0504 99.1548 46.0592C99.1389 46.0679 99.1212 46.0727 99.1032 46.0731L98.0323 46.0907C98.0072 46.0911 97.9826 46.0829 97.9624 46.0675C97.9422 46.052 97.9276 46.0302 97.9207 46.0053L97.5971 44.9062C97.5897 44.8819 97.5748 44.8607 97.5546 44.8458C97.5345 44.831 97.5102 44.8232 97.4854 44.8237ZM95.7589 43.6923C95.7544 43.7074 95.7534 43.7234 95.7561 43.7389C95.7587 43.7545 95.7649 43.7692 95.7741 43.7819C95.7833 43.7945 95.7953 43.8047 95.8091 43.8117C95.8229 43.8186 95.8381 43.8222 95.8534 43.8219L97.1046 43.8278C97.1198 43.8276 97.1346 43.8237 97.148 43.8166C97.1614 43.8094 97.1731 43.7991 97.1819 43.7866C97.1908 43.774 97.1968 43.7594 97.1992 43.7441C97.2017 43.7288 97.2007 43.713 97.1963 43.6982L96.5778 41.668C96.5717 41.6475 96.5594 41.6296 96.5426 41.6169C96.5259 41.6041 96.5056 41.5973 96.4848 41.5973C96.4639 41.5973 96.4437 41.6041 96.4269 41.6169C96.4102 41.6296 96.3978 41.6475 96.3917 41.668L95.7589 43.6923Z" fill="#262625"/>
<path d="M101.901 41.338L101.913 45.9699C101.913 45.9988 101.902 46.0266 101.882 46.047C101.862 46.0675 101.835 46.0789 101.807 46.0789L100.719 46.0848C100.691 46.0848 100.664 46.0733 100.644 46.0529C100.624 46.0325 100.613 46.0047 100.613 45.9758L100.63 41.3262C100.63 41.2973 100.619 41.2696 100.599 41.2491C100.579 41.2287 100.552 41.2172 100.524 41.2172L99.0667 41.2201C99.0386 41.2201 99.0116 41.2086 98.9918 41.1882C98.9719 41.1678 98.9607 41.14 98.9607 41.1111L98.955 40.3185C98.955 40.3042 98.9578 40.29 98.9631 40.2768C98.9684 40.2635 98.9762 40.2515 98.986 40.2414C98.9959 40.2313 99.0076 40.2233 99.0204 40.2178C99.0333 40.2123 99.047 40.2095 99.061 40.2095H103.545C103.559 40.2095 103.573 40.2124 103.586 40.218C103.599 40.2237 103.611 40.232 103.621 40.2424C103.631 40.2529 103.638 40.2652 103.643 40.2788C103.649 40.2924 103.651 40.3069 103.651 40.3214L103.636 41.1052C103.636 41.1336 103.624 41.1606 103.604 41.1804C103.585 41.2002 103.558 41.2113 103.53 41.2113L102.007 41.229C101.979 41.229 101.952 41.2405 101.932 41.2609C101.912 41.2813 101.901 41.3091 101.901 41.338Z" fill="#262625"/>
<path d="M105.5 40.2144H104.383C104.341 40.2144 104.306 40.25 104.306 40.2939V45.9984C104.306 46.0423 104.341 46.0779 104.383 46.0779H105.5C105.543 46.0779 105.577 46.0423 105.577 45.9984V40.2939C105.577 40.25 105.543 40.2144 105.5 40.2144Z" fill="#262625"/>
<path d="M116.915 44.3562L116.889 40.3077C116.888 40.2448 116.917 40.2134 116.978 40.2134H117.989C118.04 40.2134 118.066 40.2399 118.066 40.293V45.968C118.066 45.9977 118.055 46.0261 118.034 46.0471C118.014 46.0681 117.986 46.0799 117.957 46.0799L116.48 46.0888C116.362 46.0888 116.278 46.0348 116.228 45.9267L114.301 41.722C114.145 41.3802 114.067 41.3979 114.069 41.7751L114.098 45.912C114.098 45.9345 114.094 45.9569 114.086 45.9779C114.078 45.9988 114.066 46.0178 114.05 46.0337C114.035 46.0497 114.016 46.0622 113.996 46.0707C113.975 46.0791 113.954 46.0833 113.932 46.0829H113.067C112.964 46.0829 112.912 46.0298 112.912 45.9238L112.91 40.3637C112.91 40.2635 112.959 40.2134 113.058 40.2134L114.613 40.2075C114.718 40.2075 114.793 40.2566 114.837 40.3548L116.729 44.4004C116.855 44.6695 116.917 44.6548 116.915 44.3562Z" fill="#262625"/>
</svg>
