<svg width="150" height="80" viewBox="0 0 150 80" fill="none" xmlns="http://www.w3.org/2000/svg">
<path d="M58.492 29.5071C57.4841 30.1141 56.5966 30.8153 55.7176 31.5873C55.4828 31.7936 55.3787 31.7386 55.4055 31.4223C55.4226 31.2102 55.4322 31 55.4341 30.7918C55.4646 26.1029 55.4685 21.4532 55.4455 16.8429C55.4455 16.814 55.4567 16.7863 55.4766 16.7658C55.4964 16.7454 55.5234 16.7339 55.5515 16.7339L95.1124 16.731C95.2059 16.731 95.2527 16.7791 95.2527 16.8753L95.2613 32.1206C95.2613 32.2149 95.2269 32.2297 95.1582 32.1648C91.9543 29.0946 87.8227 27.2353 83.5565 26.2394C77.7461 24.884 71.9481 24.9242 66.1625 26.3602C63.3967 27.0477 60.8398 28.0967 58.492 29.5071Z" fill="#262625"/>
<path d="M96.6214 43.3878C94.7775 46.9767 91.2987 49.3221 87.691 50.76C81.6439 53.1673 74.7579 53.6417 68.4245 52.4543C64.6651 51.7471 60.9716 50.4477 57.8794 48.2231C56.3676 47.1368 55.166 45.9071 54.2746 44.534C52.6502 42.0393 52.3677 39.4287 53.4271 36.7022C54.8529 33.0337 58.7584 30.4202 62.303 28.9675C65.6014 27.6161 69.1756 26.8392 73.0257 26.6368C77.3988 26.409 81.5313 26.8853 85.4234 28.0659C87.8266 28.7947 90.0112 29.822 91.9772 31.148C94.033 32.5358 95.917 34.4657 96.8561 36.8053C97.0947 37.3966 97.2093 38.0654 97.1997 38.8119C97.1864 39.7646 97.1711 40.6475 97.1539 41.4608C97.1406 42.0796 96.963 42.7219 96.6214 43.3878ZM64.3273 41.9587C64.1689 42.8407 63.6831 43.3976 62.8699 43.6294C61.7533 43.9447 61.1205 43.2434 60.6423 42.3477C60.4515 41.9921 60.3417 41.5885 60.3131 41.1367C60.2234 39.6948 60.2377 38.5231 60.356 37.6215C60.4744 36.7061 60.9287 36.0549 61.7189 35.6679C62.9272 35.0727 64.0982 36.4075 64.1813 37.5272C64.1908 37.6549 64.2576 37.7187 64.3817 37.7187L67.8261 37.7158C67.9521 37.7158 68.0065 37.6529 67.9893 37.5272C67.7526 35.7534 66.9452 34.4657 65.5671 33.6643C63.685 32.5741 61.7237 32.4307 59.6832 33.2341C55.4771 34.89 55.1593 42.1267 58.0111 45.0673C59.8664 46.9826 63.4282 47.1947 65.4096 45.0938C65.5127 44.9838 65.59 45.0005 65.6415 45.1439L66.0166 46.1811C66.0719 46.3324 66.1788 46.408 66.3373 46.408L67.8032 46.3992C67.8328 46.3992 67.8612 46.387 67.8822 46.3655C67.9031 46.3439 67.9149 46.3147 67.9149 46.2842L67.9063 39.1861C67.9063 39.0879 67.8586 39.0387 67.7631 39.0387H62.3975C62.3001 39.0387 62.2515 39.0888 62.2515 39.189L62.2543 41.4932C62.2543 41.6052 62.3087 41.6651 62.4175 41.6729L64.187 41.7761C64.2996 41.782 64.3464 41.8429 64.3273 41.9587ZM82.7606 33.1752L82.8293 46.2342C82.8301 46.2922 82.853 46.3477 82.8932 46.3885C82.9334 46.4293 82.9876 46.4522 83.044 46.4522L88.3324 46.4227C89.1227 46.4185 89.9045 46.2544 90.6331 45.94C91.3618 45.6255 92.0229 45.1668 92.5788 44.5901C93.1348 44.0133 93.5746 43.3298 93.8733 42.5785C94.1719 41.8272 94.3235 41.0229 94.3193 40.2115L94.3136 39.0682C94.3045 37.43 93.6621 35.8625 92.5276 34.7104C91.3931 33.5584 89.8594 32.9161 88.2637 32.9247L82.9753 32.9512C82.9469 32.9512 82.9187 32.957 82.8925 32.9683C82.8662 32.9796 82.8424 32.9962 82.8225 33.017C82.8025 33.0378 82.7867 33.0625 82.7761 33.0897C82.7655 33.1169 82.7602 33.1459 82.7606 33.1752ZM76.8109 41.1043C76.8443 41.1043 76.8763 41.1179 76.8999 41.1422C76.9236 41.1665 76.9368 41.1995 76.9368 41.2339L76.9168 46.2754C76.9168 46.3098 76.9301 46.3428 76.9537 46.3671C76.9773 46.3914 77.0094 46.4051 77.0428 46.4051L80.596 46.408C80.6294 46.408 80.6615 46.3943 80.6851 46.37C80.7087 46.3457 80.722 46.3127 80.722 46.2783V33.131C80.722 33.0966 80.7087 33.0636 80.6851 33.0393C80.6615 33.015 80.6294 33.0013 80.596 33.0013L77.0428 33.0043C77.0094 33.0043 76.9773 33.0179 76.9537 33.0422C76.9301 33.0666 76.9168 33.0995 76.9168 33.1339L76.9368 37.81C76.9368 37.8271 76.9336 37.8439 76.9273 37.8597C76.9209 37.8754 76.9116 37.8897 76.8999 37.9017C76.8882 37.9138 76.8744 37.9233 76.8591 37.9298C76.8438 37.9363 76.8274 37.9397 76.8109 37.9397H73.7759C73.7593 37.9397 73.7429 37.9363 73.7277 37.9298C73.7124 37.9233 73.6985 37.9138 73.6868 37.9017C73.6751 37.8897 73.6658 37.8754 73.6595 37.8597C73.6531 37.8439 73.6499 37.8271 73.6499 37.81L73.6728 33.1339C73.6728 33.0995 73.6595 33.0666 73.6359 33.0422C73.6123 33.0179 73.5802 33.0043 73.5468 33.0043L69.9678 33.0013C69.9344 33.0013 69.9023 33.015 69.8787 33.0393C69.8551 33.0636 69.8418 33.0966 69.8418 33.131L69.839 46.2783C69.839 46.3127 69.8522 46.3457 69.8759 46.37C69.8995 46.3943 69.9315 46.408 69.9649 46.408L73.5468 46.4051C73.5802 46.4051 73.6123 46.3914 73.6359 46.3671C73.6595 46.3428 73.6728 46.3098 73.6728 46.2754L73.6499 41.2339C73.6499 41.1995 73.6632 41.1665 73.6868 41.1422C73.7104 41.1179 73.7424 41.1043 73.7759 41.1043H76.8109Z" fill="#262625"/>
<path d="M86.7266 35.9839C86.7266 35.9378 86.7444 35.8936 86.776 35.861C86.8077 35.8284 86.8507 35.8101 86.8955 35.8101H87.2448C88.0549 35.8087 88.8325 36.1832 89.4065 36.8513C89.9805 37.5193 90.3039 38.4262 90.3056 39.3724V40.0147C90.3064 40.4834 90.2282 40.9476 90.0754 41.3809C89.9226 41.8141 89.6982 42.208 89.4151 42.5399C89.1319 42.8718 88.7955 43.1352 88.4251 43.3152C88.0547 43.4952 87.6575 43.5882 87.2563 43.5889H86.9069C86.8621 43.5889 86.8192 43.5706 86.7875 43.538C86.7558 43.5054 86.738 43.4611 86.738 43.415L86.7266 35.9839Z" fill="#262625"/>
<path d="M81.7641 53.7658C86.6001 52.9113 91.6307 50.9401 95.1553 47.4396C95.1637 47.4311 95.1743 47.4254 95.1858 47.4233C95.1974 47.4212 95.2093 47.4227 95.2203 47.4277C95.2312 47.4327 95.2407 47.441 95.2474 47.4515C95.2542 47.4619 95.258 47.4742 95.2584 47.4868L95.2526 63.1269C95.2526 63.1644 95.2379 63.2004 95.2116 63.2269C95.1852 63.2534 95.1496 63.2683 95.1124 63.2683H55.6059C55.5679 63.2683 55.5315 63.2528 55.5046 63.2252C55.4778 63.1975 55.4627 63.1601 55.4627 63.121C55.4436 58.5991 55.4474 54.0329 55.4742 49.4226C55.4761 48.9846 55.4513 48.5524 55.3997 48.1262C55.3673 47.857 55.4493 47.8119 55.646 47.9906C59.162 51.1729 63.8977 52.9702 68.5361 53.7805C72.9416 54.5506 77.351 54.5456 81.7641 53.7658Z" fill="#262625"/>
</svg>
