<svg width="195" height="28" viewBox="0 0 195 28" fill="none" xmlns="http://www.w3.org/2000/svg">
<g id="bb-logo-horizontal">
<g id="Vector">
<path d="M30.6007 0.764911C30.6007 0.342666 30.258 0 29.8361 0C29.7452 0 0.830196 0 0.764911 0C0.342017 0 0 0.342666 0 0.764911C0 0.835718 0 27.2033 0 27.2351C0 27.6577 0.342341 28 0.764911 28C0.819478 28 4.69536 28 4.75999 28C5.18224 28 5.52491 27.6573 5.52491 27.2351C5.52491 27.2065 5.52491 17.8168 5.52491 17.8168C5.52491 17.3763 5.79384 16.995 6.17451 16.8307C10.0546 15.2742 24.1147 9.74767 24.1881 9.71877C24.2618 9.68953 24.3424 9.67459 24.4255 9.67459C24.7844 9.67459 25.0761 10.0153 25.0761 10.3745C25.0761 10.4259 25.0761 27.1545 25.0761 27.2348C25.0761 27.6577 25.4185 27.9994 25.8407 27.9994C25.9333 27.9994 29.7267 27.9994 29.8361 27.9994C30.2587 27.9994 30.601 27.6573 30.601 27.2348C30.6007 27.1344 30.6007 0.855856 30.6007 0.764911Z" fill="#FF6000"/>
<path d="M79.6204 3.17333H83.8678C84.0601 3.17333 84.2157 3.32891 84.2157 3.52217V7.16224C84.2157 7.32237 84.1234 7.46106 83.989 7.52764C83.9331 7.56629 79.6418 9.23806 79.6418 9.23806C79.6418 9.23806 79.6165 9.24747 79.6096 9.24942C79.5863 9.25624 79.5619 9.25982 79.5359 9.25982C79.4011 9.25982 79.2913 9.15881 79.2751 9.02856C79.2725 9.01882 79.2715 8.98081 79.2715 8.96879V3.52184C79.2718 3.32923 79.4274 3.17333 79.6204 3.17333Z" fill="#FF6000"/>
<path d="M90.8683 3.17365H86.6202C86.4282 3.17365 86.2727 3.32891 86.2727 3.52054V25.5656C86.2727 25.7585 86.4282 25.9138 86.6202 25.9138H90.8683C91.0609 25.9138 91.2162 25.7582 91.2162 25.5656V3.52087C91.2162 3.32891 91.0606 3.17365 90.8683 3.17365ZM57.2394 13.7541C57.154 13.7122 57.0615 13.6622 56.9682 13.6102C57.4256 13.2663 57.8348 12.8619 58.1889 12.4075C58.9879 11.4175 59.3929 10.3164 59.3929 9.13477C59.3929 7.41656 58.7277 5.97768 57.4178 4.85808C56.115 3.74661 54.5264 3.1821 52.6945 3.1821L44.6225 3.18307C44.6212 3.18307 44.6199 3.1821 44.6186 3.1821H43.8566L43.8536 3.18307H43.828C43.826 3.18307 43.8247 3.1821 43.8238 3.1821H43.0615C42.8805 3.1821 42.7344 3.32891 42.7344 3.5095V4.07856C42.7344 4.08115 42.7344 24.8968 42.7344 24.8968C42.7344 24.9056 42.735 24.9147 42.7354 24.9231C42.7354 24.9261 42.7344 25.5549 42.7344 25.5549C42.7344 25.7517 42.8948 25.9135 43.0926 25.9135H52.9102C55.0165 25.9135 56.8123 25.272 58.2463 24.0098C59.7174 22.7132 60.4641 21.0775 60.4641 19.1452C60.4638 17.6703 59.9233 16.1866 58.854 15.0465C58.3535 14.5246 57.8621 14.0968 57.2394 13.7541ZM47.4833 7.76767H52.0546C52.6909 7.76735 53.1918 7.95866 53.5919 8.35882C53.9622 8.70538 54.1499 9.20071 54.1499 9.82953C54.1499 10.4765 53.9521 11.0157 53.5604 11.4321C53.1706 11.8459 52.6636 12.0567 52.0546 12.0567H47.4833V7.76767ZM54.4325 20.4067C53.9739 20.866 53.3733 21.1083 52.6961 21.1083H47.4833V16.3061H52.267C53.057 16.3061 53.7082 16.5351 54.3143 17.0255C54.8811 17.4835 55.1331 17.9805 55.1331 18.6356C55.1325 19.3456 54.897 19.9423 54.4325 20.4067ZM76.853 9.70415H72.8096C72.6176 9.70415 72.4614 9.86006 72.4614 10.0527V10.4233C72.4607 10.4402 72.4594 10.4567 72.4594 10.4743V18.1796C72.4594 19.5769 72.0836 20.3622 71.5159 20.9696C70.8676 21.6186 70.0286 21.9431 69.2179 21.9431C67.232 21.9431 66.2596 20.7673 66.2596 18.4579V10.4743C66.2596 10.4476 66.2583 10.4229 66.257 10.3979V10.0527C66.257 9.85973 66.1014 9.70415 65.9088 9.70415H61.7445C61.5519 9.70415 61.3969 9.85941 61.3969 10.0527V18.3358C61.3969 20.6452 61.9234 22.4702 62.9359 23.888C64.111 25.5094 65.8948 26.3201 68.2448 26.3201C69.6236 26.3201 70.8386 25.9953 71.8926 25.3883C72.2574 25.1853 72.6218 24.9017 72.9869 24.6181C73.0311 24.573 73.0752 24.5298 73.1194 24.4843L73.4218 25.3064C73.5836 25.7124 73.8272 25.9148 74.1919 25.9148H76.8524C77.045 25.9148 77.2002 25.7592 77.2002 25.5659V10.0543C77.2009 9.86038 77.045 9.70415 76.853 9.70415ZM193.253 11.7309C192.078 10.1092 190.295 9.29977 187.944 9.29977C186.566 9.29977 185.351 9.62392 184.297 10.2316C184.189 10.2914 184.081 10.3599 183.973 10.432V4.13475C183.973 4.13117 183.974 4.12922 183.974 4.12565V3.52087C183.974 3.32891 183.818 3.17365 183.626 3.17365H179.337C179.144 3.17365 178.989 3.32891 178.989 3.52087V25.565C178.989 25.7579 179.144 25.9138 179.337 25.9138H183.384C183.577 25.9138 183.732 25.7579 183.732 25.565V24.9615C183.732 24.9517 183.73 24.941 183.73 24.9313V16.7147C183.851 15.9439 184.215 15.2557 184.783 14.6486C185.431 14 186.161 13.6755 186.971 13.6755C188.957 13.6755 189.93 14.8503 189.93 17.1607V24.9293C189.929 24.94 189.927 24.9504 189.927 24.9615V25.565C189.927 25.7582 190.082 25.9138 190.274 25.9138H194.023C194.548 25.9138 194.793 25.6702 194.793 25.1443V17.2818C194.793 14.9721 194.266 13.149 193.253 11.7309ZM108.445 3.17365H104.157C103.965 3.17365 103.809 3.32891 103.809 3.52054V10.028C103.566 9.9471 103.363 9.86688 103.16 9.78502C102.876 9.70382 102.634 9.62327 102.35 9.54175C101.621 9.38032 100.891 9.29847 100.202 9.29847C97.8116 9.29847 95.8664 10.1092 94.3674 11.7706C92.9081 13.3913 92.1789 15.4178 92.1789 17.8093C92.1789 20.1589 92.9081 22.1448 94.4077 23.8068C95.9073 25.4688 97.771 26.3195 99.9595 26.3195C101.902 26.3195 103.487 25.7238 104.692 24.5356L104.975 25.3058C105.137 25.7118 105.38 25.9141 105.745 25.9141H108.446C108.638 25.9141 108.794 25.7585 108.794 25.5653V3.52087C108.794 3.32891 108.638 3.17365 108.445 3.17365ZM103.971 19.179C103.889 19.4564 103.768 19.6935 103.606 19.9705C103.444 20.2882 103.241 20.5659 102.957 20.803C102.309 21.4367 101.498 21.7534 100.567 21.7534C99.5133 21.7534 98.6217 21.3568 97.9328 20.5656C97.2435 19.8137 96.8791 18.8633 96.8791 17.7145C96.8791 16.5663 97.2439 15.6152 98.014 14.863C98.7435 14.0718 99.675 13.6755 100.81 13.6755C102.147 13.6755 103.294 14.0789 103.971 15.0527V19.179ZM125.364 13.7541C125.279 13.7122 125.186 13.6622 125.093 13.6102C125.55 13.2663 125.96 12.8619 126.313 12.4075C127.112 11.4175 127.517 10.3164 127.517 9.13477C127.517 7.41656 126.853 5.97768 125.542 4.85808C124.24 3.74661 122.651 3.1821 120.819 3.1821L112.747 3.18307C112.746 3.18307 112.745 3.1821 112.743 3.1821H111.981C111.981 3.1821 111.98 3.18307 111.979 3.18307H111.952C111.951 3.18307 111.95 3.1821 111.948 3.1821H111.186C111.005 3.1821 110.859 3.32891 110.859 3.5095V4.07856C110.859 4.08115 110.859 24.8968 110.859 24.8968C110.859 24.9056 110.86 24.9147 110.86 24.9231C110.86 24.9261 110.859 25.5549 110.859 25.5549C110.859 25.7517 111.019 25.9135 111.217 25.9135H121.034C123.141 25.9135 124.937 25.272 126.371 24.0098C127.842 22.7132 128.588 21.0775 128.588 19.1452C128.588 17.6703 128.047 16.1866 126.978 15.0465C126.477 14.5246 125.987 14.0968 125.364 13.7541ZM115.608 7.76767H120.18C120.816 7.76735 121.316 7.95866 121.717 8.35882C122.087 8.70506 122.275 9.20038 122.275 9.82953C122.275 10.4765 122.077 11.0157 121.685 11.4321C121.295 11.8459 120.789 12.0567 120.18 12.0567H115.608L115.608 7.76767ZM122.557 20.4067C122.098 20.866 121.497 21.1083 120.82 21.1083H115.608V16.3061H120.391C121.182 16.3061 121.832 16.5351 122.439 17.0255C123.006 17.4835 123.257 17.9805 123.257 18.6356C123.257 19.3456 123.022 19.9423 122.557 20.4067ZM154.986 9.29945C153.608 9.29945 152.392 9.6236 151.338 10.2313C150.973 10.434 150.609 10.7179 150.244 11.0011C150.2 11.0456 150.156 11.0894 150.111 11.1346L149.809 10.3119C149.647 9.90715 149.404 9.70382 149.039 9.70382H146.378C146.186 9.70382 146.03 9.8594 146.03 10.0523V25.5646C146.03 25.7576 146.186 25.9135 146.378 25.9135H150.422C150.614 25.9135 150.77 25.7576 150.77 25.5646V25.1943C150.77 25.1778 150.771 25.1615 150.771 25.144V17.4387C150.751 15.0153 151.891 13.6745 154.013 13.6745C155.999 13.6752 156.972 15.1034 156.972 17.4134V25.144C156.972 25.17 156.974 25.1944 156.975 25.2194V25.5643C156.975 25.7572 157.13 25.9131 157.323 25.9131H161.487C161.679 25.9131 161.835 25.7572 161.835 25.5643V17.2812C161.835 14.9718 161.308 13.1477 160.295 11.7299C159.119 10.1092 157.336 9.29945 154.986 9.29945ZM141.806 10.5418C140.502 9.6629 138.952 9.24845 137.228 9.30952C133.852 9.42612 131.43 11.042 130.03 14.1117C129.361 15.5769 129.133 17.235 129.351 19.0393C129.704 21.9684 131.153 24.0933 133.659 25.3545C134.948 26.0041 136.347 26.3195 137.935 26.3195C138.467 26.3195 139.029 26.2828 139.607 26.2097C140.929 26.0427 142.037 25.7017 142.992 25.1671C143.516 24.8738 143.55 24.778 143.325 24.2277C142.97 23.3579 142.073 21.2892 142.063 21.2675L142.047 21.2379C142.025 21.196 141.989 21.1262 141.889 21.0914C141.813 21.0638 141.719 21.0729 141.638 21.1116C141.588 21.1324 141.54 21.1587 141.493 21.1863C140.531 21.7553 139.456 22.0642 138.204 22.1321C137.242 22.1844 136.362 21.9671 135.619 21.4812C134.909 21.0167 134.425 20.4006 134.108 19.5499H136.95C139.341 19.5499 141.733 19.5499 144.124 19.5476C144.772 19.5473 144.904 19.4898 144.958 18.8318L144.968 18.7178C145.012 18.2172 145.114 17.0431 145.05 16.2538C144.849 13.7798 143.758 11.8579 141.806 10.5418ZM140.368 16.1265H134.059C134.085 15.5275 134.376 14.9072 134.869 14.4057C135.505 13.7574 136.368 13.4004 137.298 13.4004H137.34C137.787 13.4056 138.213 13.4806 138.608 13.6236C139.607 13.9857 140.433 15.1758 140.368 16.1265ZM177.184 21.5319L176.107 20.6049C176.105 20.6029 176.104 20.6013 176.103 20.6L175.544 20.0829C175.403 19.9527 175.097 19.9809 174.967 20.1222C174.967 20.1222 174.78 20.3272 174.55 20.5555C174.548 20.5581 174.546 20.562 174.543 20.5656L174.15 20.9297C173.907 21.1324 173.664 21.2944 173.461 21.4159C172.894 21.7807 172.245 21.9427 171.475 21.9427C170.381 21.9427 169.45 21.5377 168.679 20.727C167.91 19.9566 167.545 18.9841 167.545 17.8093C167.545 16.6738 167.95 15.702 168.72 14.8916C169.49 14.0812 170.422 13.6758 171.516 13.6758C172.547 13.6758 173.434 14.0721 174.178 14.8299C174.183 14.8357 174.187 14.8432 174.192 14.8497L174.578 15.2645C174.709 15.4061 174.987 15.4087 175.128 15.2771L175.311 15.1047C175.316 15.1014 175.32 15.0982 175.325 15.0943L177.001 13.4917L177.611 12.9597C177.755 12.8327 177.77 12.6128 177.645 12.4676L177.165 11.9131C177.162 11.9092 177.158 11.907 177.155 11.9047C175.611 10.1806 173.668 9.29977 171.395 9.29977C171.336 9.29977 171.28 9.30302 171.222 9.30367C171.223 9.30269 171.223 9.30075 171.224 9.29977C167.426 9.32088 164.217 11.8306 163.145 15.2817C162.94 15.9261 162.817 16.603 162.778 17.311C162.777 17.3224 162.776 17.3338 162.775 17.3455C162.771 17.4338 162.769 17.5241 162.767 17.6144C162.766 17.6683 162.763 17.7219 162.763 17.7762L162.764 17.7752C162.764 17.7872 162.763 17.7973 162.763 17.8093C162.763 20.2005 163.614 22.2263 165.357 23.8873C167.018 25.5088 169.046 26.3195 171.355 26.3195C174.108 26.3195 176.232 25.2181 177.689 23.0175L177.805 22.8476L177.806 22.8457L177.976 22.5959C178.075 22.4498 178.048 22.2552 177.919 22.1402C177.908 22.1311 177.202 21.5471 177.184 21.5319ZM83.9516 9.70415C83.9259 9.70415 83.9013 9.70805 83.8779 9.71487C83.8711 9.7165 83.8551 9.72266 83.8486 9.72494C83.8486 9.72494 79.5544 11.398 79.4986 11.4367C79.3641 11.5032 79.2718 11.6419 79.2718 11.8021V25.5666C79.2718 25.7595 79.4277 25.9148 79.6197 25.9148H83.8675C84.0601 25.9148 84.2157 25.7592 84.2157 25.5666V9.9838C84.2157 9.97179 84.214 9.94548 84.2121 9.93573C84.1962 9.80549 84.0864 9.70415 83.9516 9.70415Z" fill="white"/>
</g>
</g>
</svg>
