<svg width="150" height="80" viewBox="0 0 150 80" fill="none" xmlns="http://www.w3.org/2000/svg">
<path d="M26.3775 35.5297C26.3317 35.5572 26.3088 35.5985 26.3088 35.6535L26.3116 52.7404C26.3116 52.9172 26.2267 53.0232 26.0568 53.0586C24.2454 53.4377 22.3938 53.478 20.5022 53.1794C20.3743 53.1598 20.3104 53.0831 20.3104 52.9496V27.0202C20.3105 26.9684 20.3285 26.9184 20.3611 26.8795C20.3937 26.8405 20.4387 26.8151 20.4879 26.808C22.3337 26.5271 24.1843 26.5645 26.0396 26.92C26.1162 26.9351 26.1853 26.9772 26.2349 27.039C26.2846 27.1009 26.3117 27.1786 26.3116 27.2589L26.3088 33.5821C26.3088 33.6129 26.3147 33.6434 26.3261 33.6719C26.3375 33.7003 26.3542 33.7261 26.3752 33.7477C26.3963 33.7694 26.4212 33.7865 26.4486 33.798C26.4761 33.8095 26.5054 33.8153 26.535 33.8149L28.9086 33.806C29.0555 33.806 29.129 33.7294 29.129 33.5762L29.0918 28.4109C29.0918 28.2204 29.1729 28.1723 29.3352 28.2666C34.9012 31.4724 37.3636 38.217 35.3279 44.387C34.3391 47.3865 32.3473 49.8312 29.3524 51.7209C29.1882 51.823 29.1061 51.7759 29.1061 51.5794L29.1176 35.7507C29.1176 35.6793 29.0902 35.6108 29.0414 35.5601C28.9927 35.5093 28.9264 35.4804 28.857 35.4796L26.5407 35.4679C26.5082 35.4679 26.4777 35.4757 26.4491 35.4914C26.4243 35.5032 26.4004 35.516 26.3775 35.5297Z" fill="#262625"/>
<path d="M15.58 32.4093C15.4636 32.4505 15.3586 32.5153 15.2651 32.6037C14.7593 33.0752 14.2506 33.5044 13.739 33.8914C13.6226 33.9798 13.4928 34.0249 13.3496 34.0269L11.3797 34.0475C11.3589 34.0476 11.3384 34.042 11.3202 34.0314C11.3021 34.0209 11.287 34.0056 11.2763 33.9872C11.2656 33.9688 11.2597 33.9478 11.2593 33.9264C11.2589 33.9049 11.2639 33.8837 11.2738 33.8648C12.7111 31.1462 14.7659 29.1308 17.4383 27.8186C17.4566 27.8096 17.4769 27.8056 17.4971 27.8069C17.5174 27.8081 17.537 27.8147 17.5541 27.8258C17.5713 27.837 17.5854 27.8525 17.5952 27.8708C17.605 27.8891 17.6101 27.9097 17.6101 27.9305L17.6072 52.0449C17.6074 52.0661 17.6022 52.0871 17.5922 52.1057C17.5823 52.1244 17.5678 52.1401 17.5501 52.1516C17.5324 52.163 17.5121 52.1698 17.4911 52.1712C17.47 52.1726 17.4489 52.1687 17.4297 52.1598C15.2136 51.0902 13.3153 49.4048 11.9581 47.2686C9.98821 44.1629 9.41939 40.5996 10.2516 36.5786C10.2668 36.503 10.3072 36.4351 10.3661 36.3862C10.425 36.3374 10.4989 36.3106 10.5752 36.3105L15.4455 36.3193C15.5244 36.3193 15.6002 36.2867 15.656 36.2287C15.7119 36.1707 15.7432 36.092 15.7432 36.0099V32.5271C15.743 32.5071 15.738 32.4874 15.7289 32.4698C15.7198 32.4521 15.7068 32.4368 15.6909 32.4253C15.6749 32.4138 15.6566 32.4064 15.6373 32.4036C15.6181 32.4008 15.5984 32.4027 15.58 32.4093Z" fill="#262625"/>
<path d="M46.6516 41.4861C46.643 44.026 44.6961 44.7715 42.5687 44.3737C42.4599 44.3541 42.3959 44.2873 42.3769 44.1733C42.3349 43.9396 42.3482 43.7058 42.4169 43.4721C42.4456 43.3719 42.5105 43.3179 42.6116 43.31C43.7397 43.2275 45.2143 43.643 45.2257 41.8338C45.2467 38.6241 45.2525 35.5567 45.2429 32.6318C45.2429 32.4904 45.3116 32.4177 45.4491 32.4138L46.4884 32.3843C46.5105 32.3839 46.5324 32.388 46.5528 32.3965C46.5733 32.4049 46.592 32.4174 46.6077 32.4333C46.6234 32.4492 46.6359 32.4682 46.6444 32.4891C46.653 32.51 46.6573 32.5325 46.6573 32.5552C46.665 35.928 46.6631 38.905 46.6516 41.4861Z" fill="#262625"/>
<path d="M54.5714 39.9239C54.5563 39.8839 54.5297 39.8495 54.4949 39.8253C54.4601 39.8012 54.4189 39.7883 54.3767 39.7884L50.5286 39.7913C50.4587 39.7912 50.3904 39.8127 50.3327 39.8532C50.2749 39.8937 50.2304 39.9512 50.205 40.0182L49.2859 42.3725C49.2325 42.5061 49.1361 42.5709 48.9967 42.5669L48.2065 42.5345C48.0232 42.5286 47.966 42.4383 48.0347 42.2635L51.7597 32.6224C51.7903 32.5439 51.8456 32.4898 51.9258 32.4604C52.298 32.3307 53.1913 32.2718 53.3689 32.7432C54.4531 35.6485 55.6585 38.816 56.9851 42.2458C57.0652 42.4501 56.9984 42.5503 56.7847 42.5463L55.814 42.5227C55.6461 42.5188 55.5315 42.4373 55.4704 42.2782L54.5714 39.9239ZM50.7862 38.4772C50.7796 38.4943 50.7772 38.5129 50.7793 38.5312C50.7813 38.5495 50.7877 38.567 50.7979 38.5822C50.8081 38.5973 50.8218 38.6097 50.8377 38.6181C50.8537 38.6265 50.8714 38.6307 50.8893 38.6304H53.9243C53.9422 38.6307 53.9599 38.6265 53.9759 38.6181C53.9918 38.6097 54.0055 38.5973 54.0157 38.5822C54.0259 38.567 54.0323 38.5495 54.0343 38.5312C54.0364 38.5129 54.034 38.4943 54.0274 38.4772L52.507 34.5524C52.4987 34.5321 52.4848 34.5148 52.4669 34.5027C52.4491 34.4905 52.4282 34.484 52.4068 34.484C52.3854 34.484 52.3645 34.4905 52.3467 34.5027C52.3289 34.5148 52.3149 34.5321 52.3066 34.5524L50.7862 38.4772Z" fill="#262625"/>
<path d="M62.4823 40.3747C62.8889 39.6086 62.216 38.8071 61.5833 38.4565C60.7854 38.0125 59.9942 37.5322 59.2097 37.0156C57.5948 35.9519 57.5862 33.7656 59.3213 32.805C60.4666 32.1715 61.8037 32.3424 63.0206 32.7166C63.2688 32.7913 63.3957 32.9622 63.4014 33.2293L63.4071 33.6507C63.411 33.9139 63.2917 34.0062 63.0492 33.9277C62.3793 33.7116 61.7073 33.5819 61.0335 33.5387C59.496 33.4444 58.6485 35.1888 60.3006 36.0963C61.0813 36.5265 61.8629 36.993 62.6455 37.4959C63.6152 38.1206 64.0485 38.9564 63.9454 40.0034C63.7908 41.565 62.3277 42.4755 60.9362 42.5256C60.1192 42.5551 59.2402 42.4461 58.2992 42.1986C58.0644 42.1377 57.9432 41.9815 57.9356 41.7301L57.9241 41.3028C57.9184 41.0671 58.0272 40.9757 58.2505 41.0288C59.6048 41.3411 61.6577 41.9186 62.4823 40.3747Z" fill="#262625"/>
<path d="M71.9025 36.5153L71.871 32.5847C71.871 32.5396 71.888 32.4962 71.9185 32.4638C71.9489 32.4313 71.9904 32.4123 72.0342 32.4108L73.1108 32.3843C73.1332 32.3839 73.1555 32.3881 73.1763 32.3967C73.1971 32.4052 73.2161 32.418 73.2321 32.4342C73.2481 32.4503 73.2608 32.4696 73.2694 32.4909C73.2781 32.5122 73.2826 32.5351 73.2826 32.5581V42.3877C73.2826 42.4113 73.278 42.4347 73.2689 42.4564C73.2599 42.4781 73.2467 42.4976 73.2301 42.5139C73.2135 42.5302 73.1938 42.5428 73.1723 42.551C73.1508 42.5592 73.128 42.5628 73.1051 42.5616L72.0371 42.5056C71.9938 42.5033 71.953 42.484 71.9231 42.4517C71.8933 42.4193 71.8767 42.3764 71.8767 42.3318L71.8939 38.0357C71.8939 37.9896 71.8761 37.9454 71.8444 37.9128C71.8128 37.8802 71.7698 37.8619 71.725 37.8619L67.3386 37.8501C67.2938 37.8501 67.2508 37.8684 67.2191 37.901C67.1874 37.9336 67.1696 37.9778 67.1696 38.0239L67.1754 42.3701C67.1754 42.3934 67.1708 42.4165 67.162 42.438C67.1531 42.4595 67.1402 42.4789 67.1239 42.4951C67.1076 42.5113 67.0883 42.524 67.0671 42.5324C67.046 42.5408 67.0234 42.5447 67.0007 42.5439L65.9671 42.5174C65.9228 42.5166 65.8805 42.498 65.8495 42.4654C65.8184 42.4329 65.801 42.3891 65.801 42.3435L65.8039 32.6023C65.8039 32.5572 65.8209 32.5139 65.8513 32.4815C65.8818 32.449 65.9233 32.43 65.9671 32.4285L67.015 32.3872C67.0382 32.386 67.0613 32.3897 67.083 32.3981C67.1047 32.4065 67.1245 32.4194 67.1411 32.4359C67.1578 32.4525 67.1709 32.4725 67.1798 32.4945C67.1886 32.5165 67.193 32.5402 67.1925 32.564L67.161 36.5271C67.1607 36.5504 67.1648 36.5736 67.1733 36.5952C67.1818 36.6169 67.1945 36.6365 67.2105 36.653C67.2265 36.6695 67.2456 36.6825 67.2666 36.6913C67.2877 36.7 67.3102 36.7043 67.3328 36.7039L71.7364 36.6892C71.7807 36.6884 71.823 36.6697 71.854 36.6372C71.8851 36.6047 71.9025 36.5609 71.9025 36.5153Z" fill="#262625"/>
<path d="M86.1298 37.8614L81.7634 37.8584C81.7156 37.8584 81.6697 37.878 81.6359 37.9128C81.6021 37.9476 81.5831 37.9948 81.5831 38.044L81.5773 42.3548C81.5773 42.3794 81.5726 42.4038 81.5633 42.4265C81.5541 42.4492 81.5405 42.4698 81.5235 42.4871C81.5064 42.5044 81.4862 42.518 81.464 42.5272C81.4418 42.5363 81.418 42.5408 81.3941 42.5404L80.4091 42.5287C80.3618 42.5279 80.3167 42.508 80.2834 42.4732C80.2502 42.4385 80.2316 42.3917 80.2316 42.343L80.2603 32.5959C80.261 32.5482 80.2795 32.5026 80.312 32.4686C80.3446 32.4346 80.3886 32.4148 80.4349 32.4132L81.397 32.3897C81.4206 32.3893 81.4442 32.3937 81.4662 32.4027C81.4882 32.4116 81.5083 32.425 81.5253 32.442C81.5424 32.4589 81.556 32.4792 81.5654 32.5015C81.5748 32.5239 81.5798 32.548 81.5802 32.5724L81.5888 36.5295C81.5888 36.5788 81.6078 36.626 81.6416 36.6608C81.6754 36.6956 81.7213 36.7152 81.7692 36.7152L86.1384 36.6857C86.1858 36.6849 86.2309 36.665 86.2641 36.6303C86.2973 36.5956 86.3159 36.5488 86.3159 36.5001L86.2844 32.6048C86.2844 32.5565 86.3026 32.5102 86.3352 32.4755C86.3678 32.4409 86.4123 32.4207 86.4591 32.4191L87.5185 32.3985C87.5424 32.3981 87.5662 32.4026 87.5884 32.4118C87.6106 32.4209 87.6308 32.4346 87.6479 32.4518C87.6649 32.4691 87.6785 32.4897 87.6877 32.5124C87.697 32.5351 87.7017 32.5595 87.7017 32.5841L87.6989 42.3636C87.6989 42.3885 87.694 42.4132 87.6846 42.4361C87.6752 42.459 87.6614 42.4797 87.644 42.497C87.6267 42.5144 87.6061 42.5279 87.5835 42.5369C87.561 42.5458 87.5369 42.5501 87.5128 42.5493L86.4677 42.511C86.4208 42.5094 86.3764 42.4892 86.3438 42.4546C86.3112 42.4199 86.293 42.3736 86.293 42.3253L86.3102 38.047C86.3102 37.9978 86.2912 37.9505 86.2574 37.9157C86.2235 37.8809 86.1777 37.8614 86.1298 37.8614Z" fill="#262625"/>
<path d="M99.0512 38.1484C99.0646 39.2845 98.639 40.3797 97.8679 41.1929C97.0968 42.0061 96.0433 42.4707 94.9393 42.4846L94.1663 42.4943C93.6196 42.5012 93.077 42.3972 92.5693 42.1883C92.0617 41.9794 91.5991 41.6696 91.2078 41.2766C90.8165 40.8837 90.5043 40.4153 90.2889 39.8982C90.0736 39.381 89.9593 38.8253 89.9526 38.2628L89.9352 36.7955C89.9217 35.6594 90.3473 34.5642 91.1185 33.751C91.8896 32.9378 92.9431 32.4732 94.0471 32.4593L94.8201 32.4495C95.3668 32.4427 95.9094 32.5467 96.417 32.7556C96.9246 32.9645 97.3873 33.2743 97.7785 33.6673C98.1698 34.0602 98.4821 34.5286 98.6974 35.0457C98.9128 35.5628 99.0271 36.1186 99.0338 36.6811L99.0512 38.1484ZM94.4932 41.4468C95.3384 41.4468 96.1489 41.0277 96.7465 40.2817C97.3442 39.5357 97.6799 38.524 97.6799 37.469C97.6799 36.414 97.3442 35.4022 96.7465 34.6563C96.1489 33.9103 95.3384 33.4912 94.4932 33.4912C93.648 33.4912 92.8374 33.9103 92.2398 34.6563C91.6422 35.4022 91.3064 36.414 91.3064 37.469C91.3064 38.524 91.6422 39.5357 92.2398 40.2817C92.8374 41.0277 93.648 41.4468 94.4932 41.4468Z" fill="#262625"/>
<path d="M102.696 41.3684L106.759 41.3566C106.816 41.3566 106.871 41.3798 106.912 41.4212C106.953 41.4625 106.976 41.5187 106.977 41.5776L106.988 42.3024C106.988 42.3321 106.983 42.3615 106.972 42.389C106.962 42.4166 106.946 42.4416 106.925 42.4627C106.905 42.4838 106.881 42.5006 106.854 42.512C106.828 42.5234 106.799 42.5293 106.77 42.5293L101.325 42.5087C101.267 42.5087 101.212 42.4851 101.171 42.4431C101.13 42.4011 101.107 42.3442 101.107 42.2848L101.116 32.6379C101.116 32.5805 101.138 32.5256 101.177 32.4844C101.216 32.4433 101.269 32.4191 101.325 32.4169L102.255 32.3845C102.284 32.3833 102.314 32.3882 102.341 32.3989C102.369 32.4096 102.394 32.4259 102.415 32.4468C102.436 32.4677 102.453 32.4928 102.464 32.5206C102.476 32.5484 102.481 32.5782 102.481 32.6084L102.479 41.1445C102.479 41.2039 102.501 41.2608 102.542 41.3028C102.583 41.3448 102.638 41.3684 102.696 41.3684Z" fill="#262625"/>
<path d="M108.329 32.544C108.329 32.4953 108.349 32.4488 108.382 32.4147C108.416 32.3805 108.462 32.3613 108.509 32.3613L112.125 32.379C112.71 32.3821 113.288 32.5037 113.827 32.7368C114.366 32.97 114.855 33.3101 115.266 33.7378C115.677 34.1655 116.002 34.6724 116.223 35.2294C116.443 35.7865 116.555 36.3829 116.552 36.9844L116.546 37.9686C116.539 39.1824 116.064 40.3439 115.226 41.1975C114.387 42.0512 113.253 42.5272 112.074 42.5209L108.457 42.5033C108.433 42.5033 108.41 42.4984 108.388 42.4888C108.366 42.4793 108.346 42.4654 108.329 42.4478C108.312 42.4303 108.299 42.4095 108.29 42.3866C108.281 42.3638 108.277 42.3393 108.277 42.3147L108.329 32.544ZM109.677 33.7786L109.654 41.1508C109.654 41.2112 109.677 41.2693 109.719 41.3123C109.76 41.3553 109.816 41.3799 109.875 41.3806L111.782 41.3865C112.65 41.3896 113.485 41.0278 114.101 40.3807C114.717 39.7336 115.065 38.8543 115.069 37.9361L115.074 37.0286C115.076 36.5739 114.993 36.1234 114.829 35.7027C114.666 35.2821 114.426 34.8995 114.123 34.5769C113.82 34.2543 113.46 33.998 113.063 33.8226C112.666 33.6472 112.24 33.5562 111.81 33.5547L109.903 33.5488C109.874 33.5484 109.844 33.554 109.817 33.5654C109.79 33.5768 109.765 33.5937 109.744 33.615C109.722 33.6364 109.706 33.6619 109.694 33.69C109.683 33.718 109.677 33.7482 109.677 33.7786Z" fill="#262625"/>
<path d="M119.741 32.4053H118.756C118.648 32.4053 118.561 32.495 118.561 32.6056V42.3351C118.561 42.4457 118.648 42.5354 118.756 42.5354H119.741C119.848 42.5354 119.936 42.4457 119.936 42.3351V32.6056C119.936 32.495 119.848 32.4053 119.741 32.4053Z" fill="#262625"/>
<path d="M128.425 39.8006C128.587 40.0579 128.668 40.0333 128.668 39.7269L128.662 32.5728C128.661 32.4588 128.716 32.4019 128.829 32.4019L129.722 32.4107C129.84 32.4107 129.899 32.4716 129.899 32.5934L129.896 42.2963C129.896 42.4593 129.817 42.5408 129.659 42.5408C129.287 42.5408 128.565 42.6263 128.339 42.2609C126.896 39.9587 125.325 37.515 123.626 34.93C123.546 34.8082 123.507 34.8209 123.509 34.9683L123.54 42.2786C123.54 42.4338 123.465 42.5123 123.314 42.5143L122.607 42.5261C122.576 42.5265 122.546 42.5205 122.517 42.5086C122.489 42.4966 122.463 42.4789 122.441 42.4564C122.419 42.4339 122.402 42.4071 122.39 42.3776C122.378 42.3481 122.372 42.3165 122.372 42.2845L122.361 32.6405C122.361 32.4853 122.436 32.4068 122.587 32.4048L123.497 32.4019C123.565 32.4017 123.632 32.4189 123.692 32.4518C123.752 32.4847 123.803 32.5323 123.841 32.5904L128.425 39.8006Z" fill="#262625"/>
<path d="M138.641 40.8861L138.621 38.2726C138.619 38.1488 138.679 38.083 138.801 38.0752L139.861 38.0221C140.008 38.0162 140.081 38.0879 140.081 38.2372V41.9204C140.081 41.9627 140.066 42.0037 140.039 42.0357C140.012 42.0677 139.974 42.0885 139.932 42.0942C138.887 42.2327 137.934 42.5568 136.86 42.5391C133.378 42.492 131.738 40.232 132.047 36.7551C132.27 34.2447 133.586 32.8146 135.995 32.465C137.127 32.3 138.408 32.406 139.838 32.7832C140.036 32.8343 140.13 32.9649 140.118 33.1751L140.09 33.7202C140.087 33.7585 140.077 33.7958 140.059 33.8296C140.041 33.8633 140.016 33.8926 139.986 33.9153C139.956 33.9381 139.922 33.9538 139.885 33.9613C139.849 33.9688 139.811 33.968 139.775 33.9589C138.551 33.6465 137.443 33.5238 136.451 33.5905C135.216 33.675 134.349 34.3282 133.851 35.55C133.201 37.1352 133.358 39.5867 134.841 40.6769C135.801 41.3812 137.318 41.6287 138.466 41.1543C138.518 41.1326 138.562 41.0954 138.593 41.0477C138.625 40.9999 138.641 40.9436 138.641 40.8861Z" fill="#262625"/>
</svg>
