<svg width="150" height="80" viewBox="0 0 150 80" fill="none" xmlns="http://www.w3.org/2000/svg">
<path d="M47.1634 24.5356L47.1576 20.9728C47.1576 20.9581 47.1607 20.9436 47.1668 20.93C47.1729 20.9164 47.1818 20.904 47.1931 20.8936C47.2043 20.8832 47.2177 20.875 47.2324 20.8694C47.2471 20.8637 47.2628 20.8608 47.2788 20.8608H67.8781C67.9102 20.8608 67.941 20.8726 67.9638 20.8936C67.9865 20.9146 67.9993 20.9431 67.9993 20.9728L67.9964 39.8879C67.9964 39.9176 67.9836 39.9461 67.9609 39.9671C67.9382 39.9881 67.9073 39.9999 67.8752 39.9999L64.0444 40.0026C64.0123 40.0026 63.9814 39.9908 63.9587 39.9698C63.936 39.9488 63.9232 39.9203 63.9232 39.8906L63.9261 24.7569C63.9261 24.7272 63.9134 24.6987 63.8906 24.6777C63.8679 24.6567 63.8371 24.6449 63.805 24.6449L47.2845 24.6476C47.2524 24.6476 47.2216 24.6358 47.1988 24.6148C47.1761 24.5938 47.1634 24.5653 47.1634 24.5356Z" fill="#262625"/>
<path d="M89.3913 34.0653L89.4028 38.1081C89.4028 38.1307 89.4126 38.1524 89.4299 38.1684C89.4472 38.1844 89.4707 38.1934 89.4951 38.1934L94.8866 38.1907C94.911 38.1907 94.9345 38.1997 94.9518 38.2157C94.9692 38.2317 94.9789 38.2534 94.9789 38.2761L94.9673 39.9721C94.9673 39.9947 94.9576 40.0164 94.9403 40.0324C94.923 40.0485 94.8995 40.0574 94.875 40.0574H87.3432C87.3311 40.0574 87.3191 40.0552 87.3079 40.0509C87.2967 40.0467 87.2865 40.0404 87.2779 40.0324C87.2693 40.0245 87.2625 40.0151 87.2579 40.0048C87.2533 39.9944 87.2509 39.9833 87.2509 39.9721L87.248 27.3905C87.248 27.3679 87.2577 27.3462 87.275 27.3302C87.2923 27.3142 87.3158 27.3052 87.3403 27.3052H94.8808C94.9053 27.3052 94.9288 27.3142 94.9461 27.3302C94.9634 27.3462 94.9731 27.3679 94.9731 27.3905L94.9644 29.0439C94.9644 29.0665 94.9547 29.0882 94.9374 29.1042C94.9201 29.1202 94.8966 29.1292 94.8721 29.1292L89.4865 29.1372C89.462 29.1372 89.4385 29.1462 89.4212 29.1622C89.4039 29.1782 89.3942 29.1999 89.3942 29.2225L89.3999 32.0466C89.3999 32.0692 89.4097 32.0909 89.427 32.1069C89.4443 32.123 89.4678 32.1319 89.4922 32.1319L94.7106 32.1293C94.7351 32.1293 94.7586 32.1383 94.7759 32.1543C94.7932 32.1703 94.8029 32.192 94.8029 32.2146V33.8973C94.8029 33.9199 94.7932 33.9417 94.7759 33.9577C94.7586 33.9737 94.7351 33.9826 94.7106 33.9826L89.4836 33.98C89.4591 33.98 89.4356 33.989 89.4183 34.005C89.401 34.021 89.3913 34.0427 89.3913 34.0653Z" fill="#262625"/>
<path d="M100.578 34.0927L100.575 38.0821C100.575 38.1125 100.588 38.1417 100.612 38.1632C100.635 38.1847 100.666 38.1968 100.699 38.1968L106.062 38.1888C106.095 38.1888 106.126 38.2009 106.15 38.2224C106.173 38.2439 106.186 38.273 106.186 38.3035L106.189 39.9435C106.189 39.9739 106.176 40.0031 106.152 40.0246C106.129 40.0461 106.098 40.0582 106.065 40.0582H98.6021C98.5692 40.0582 98.5376 40.0461 98.5144 40.0246C98.4911 40.0031 98.4781 39.9739 98.4781 39.9435L98.4636 27.4179C98.4636 27.3875 98.4767 27.3583 98.5 27.3368C98.5232 27.3153 98.5548 27.3032 98.5877 27.3032L106.065 27.3112C106.098 27.3112 106.129 27.3233 106.152 27.3448C106.176 27.3663 106.189 27.3955 106.189 27.4259L106.195 29.0179C106.195 29.033 106.191 29.0479 106.185 29.0618C106.179 29.0757 106.17 29.0884 106.158 29.099C106.147 29.1097 106.133 29.1181 106.118 29.1239C106.103 29.1296 106.087 29.1326 106.07 29.1326H100.699C100.666 29.1326 100.635 29.1447 100.612 29.1662C100.588 29.1877 100.575 29.2169 100.575 29.2473L100.587 32.0153C100.587 32.0457 100.6 32.0749 100.623 32.0964C100.646 32.1179 100.678 32.13 100.711 32.13L105.897 32.1273C105.914 32.1273 105.93 32.1304 105.946 32.1363C105.961 32.1422 105.975 32.1509 105.986 32.1618C105.998 32.1728 106.007 32.1857 106.013 32.2C106.019 32.2142 106.022 32.2294 106.021 32.2447L105.995 33.8714C105.995 33.9013 105.981 33.9298 105.958 33.9507C105.935 33.9717 105.904 33.9834 105.871 33.9834L100.702 33.978C100.669 33.978 100.638 33.9901 100.614 34.0116C100.591 34.0331 100.578 34.0623 100.578 34.0927Z" fill="#262625"/>
<path d="M79.7744 34.7828C81.1878 36.5606 82.5725 38.3047 83.9283 40.0149C83.9292 40.0165 83.9298 40.0182 83.9299 40.02C83.9299 40.0218 83.9295 40.0235 83.9286 40.0251C83.9278 40.0267 83.9265 40.0281 83.9249 40.0291C83.9234 40.0301 83.9215 40.0307 83.9196 40.0309C83.585 40.0647 82.7533 40.0736 81.4244 40.0576C81.3609 40.0576 81.3109 40.0336 81.2744 39.9856L77.5647 35.1002C77.2263 34.6557 77.057 34.7055 77.057 35.2495L77.0657 39.9989C77.0657 40.0363 77.0445 40.0549 77.0022 40.0549L74.9743 40.0629C74.9262 40.0629 74.9022 40.0398 74.9022 39.9936L74.8993 27.404C74.8993 27.38 74.9096 27.3569 74.928 27.3399C74.9464 27.3229 74.9714 27.3133 74.9974 27.3133C76.1166 27.3062 77.1772 27.3071 78.1791 27.316C80.7782 27.3427 82.8898 28.724 82.6706 31.3348C82.5302 32.9917 81.5898 34.0717 79.8494 34.5748C79.7186 34.6122 79.6936 34.6815 79.7744 34.7828ZM77.0339 29.2707L77.0109 32.9775C77.0109 32.996 77.0148 33.0144 77.0225 33.0315C77.0302 33.0487 77.0414 33.0643 77.0556 33.0774C77.0698 33.0905 77.0867 33.1009 77.1052 33.108C77.1238 33.1151 77.1437 33.1188 77.1637 33.1188L78.1099 33.1241C78.4356 33.1259 78.7584 33.0822 79.0599 32.9958C79.3613 32.9093 79.6355 32.7817 79.8667 32.6202C80.0979 32.4587 80.2816 32.2665 80.4074 32.0546C80.5331 31.8428 80.5983 31.6154 80.5994 31.3854V30.8947C80.6015 30.4312 80.343 29.9855 79.8805 29.6555C79.4181 29.3255 78.7896 29.1382 78.133 29.1347L77.1868 29.1294C77.1463 29.1294 77.1074 29.1443 77.0787 29.1708C77.05 29.1973 77.0339 29.2332 77.0339 29.2707Z" fill="#262625"/>
<path d="M119.845 33.4436C119.776 33.6641 119.686 33.8836 119.577 34.1023C118.588 36.0703 117.584 38.0979 116.565 40.1851C116.446 40.434 116.326 40.434 116.207 40.1851L112.844 33.1903C112.744 32.9787 112.672 32.9867 112.627 33.2143L111.352 39.8864C111.348 39.9075 111.336 39.9266 111.319 39.9403C111.302 39.9539 111.28 39.9613 111.257 39.9611H109.333C109.298 39.9611 109.284 39.9451 109.29 39.9131C110.157 35.8472 110.994 31.9316 111.799 28.1662C111.844 27.9599 111.859 27.7395 111.846 27.5048C111.844 27.4854 111.848 27.466 111.857 27.4483C111.866 27.4306 111.88 27.4153 111.896 27.4036C111.913 27.392 111.933 27.3844 111.954 27.3816C111.975 27.3788 111.996 27.3808 112.016 27.3875C112.041 27.3946 112.064 27.4053 112.085 27.4195C112.114 27.4373 112.135 27.4604 112.149 27.4888C113.533 30.3902 114.924 33.2898 116.32 36.1877C116.328 36.204 116.341 36.2179 116.358 36.2275C116.375 36.2372 116.394 36.2424 116.413 36.2424C116.433 36.2424 116.452 36.2372 116.469 36.2275C116.486 36.2179 116.499 36.204 116.507 36.1877L120.782 27.5875C120.913 27.3208 121.006 27.3315 121.062 27.6195L123.399 39.8704C123.401 39.8823 123.401 39.8946 123.398 39.9063C123.395 39.9181 123.389 39.9291 123.38 39.9385C123.372 39.9479 123.362 39.9555 123.35 39.9608C123.338 39.9661 123.325 39.9689 123.312 39.9691L121.472 39.9717C121.448 39.972 121.424 39.964 121.406 39.9494C121.387 39.9347 121.375 39.9143 121.371 39.8917L120.263 33.4676C120.163 32.8934 120.024 32.8854 119.845 33.4436Z" fill="#262625"/>
<path d="M58.0691 48.537C56.1749 47.7565 54.3595 47.2063 52.6229 46.8863C45.7978 45.624 39.4256 46.6383 33.5063 49.929C33.4678 49.9486 33.4284 49.9521 33.388 49.9397C33.3784 49.9361 33.3755 49.9299 33.3793 49.921C33.3813 49.9121 33.3861 49.9041 33.3938 49.897C37.5996 46.4498 41.7939 43.0115 45.9766 39.5821C46.0131 39.5523 46.0604 39.5363 46.109 39.5372C46.1577 39.5382 46.2042 39.5562 46.2391 39.5875C47.0007 40.2515 48.1459 39.9288 48.544 39.0621C48.9969 38.0808 47.7565 36.9181 46.6978 37.3741C45.9593 37.6905 45.6555 38.215 45.7862 38.9474C45.8055 39.0648 45.7545 39.1448 45.6334 39.1874L42.0073 40.4328C41.892 40.4719 41.8016 40.4444 41.7362 40.3501L40.9689 39.2381C40.938 39.1935 40.9217 39.1417 40.9217 39.0888C40.9217 39.0359 40.938 38.984 40.9689 38.9394L47.0786 30.1179C47.1574 30.0024 47.2372 30.0024 47.318 30.1179L60.9192 49.7343C61.1057 50.001 61.0538 50.0481 60.7634 49.8757C59.9403 49.3832 59.0422 48.937 58.0691 48.537Z" fill="#262625"/>
<path d="M30.6307 55.3216L47.1107 55.319C47.136 55.319 47.1602 55.3282 47.178 55.3447C47.1959 55.3612 47.2059 55.3836 47.2059 55.407L47.229 59.047C47.229 59.0704 47.219 59.0928 47.2011 59.1093C47.1832 59.1258 47.159 59.135 47.1338 59.135L26.6152 59.1377C26.59 59.1377 26.5658 59.1284 26.5479 59.1119C26.53 59.0954 26.52 59.073 26.52 59.0497V40.0333C26.52 40.01 26.53 39.9876 26.5479 39.9711C26.5658 39.9546 26.59 39.9453 26.6152 39.9453H30.4316C30.4569 39.9453 30.4811 39.9546 30.4989 39.9711C30.5168 39.9876 30.5268 40.01 30.5268 40.0333L30.5355 55.2336C30.5355 55.257 30.5455 55.2794 30.5633 55.2959C30.5812 55.3124 30.6054 55.3216 30.6307 55.3216Z" fill="#262625"/>
<path d="M76.8202 49.8951L79.0414 52.5298C79.1529 52.6613 79.1183 52.7262 78.9376 52.7244L78.5683 52.7191C78.3952 52.7173 78.2568 52.6516 78.1529 52.5218L76.1366 49.9964C75.7173 49.4737 75.524 49.5377 75.5567 50.1884C75.5952 50.9457 75.6096 51.728 75.6 52.5351C75.5993 52.578 75.5808 52.619 75.5485 52.6494C75.5162 52.6797 75.4726 52.6971 75.4269 52.6978L74.9971 52.7084C74.926 52.7084 74.8904 52.6747 74.8904 52.6071L74.8933 46.4683C74.8933 46.3741 74.9442 46.3261 75.0462 46.3243C75.5846 46.3154 76.1154 46.3234 76.6385 46.3483C77.8789 46.407 78.6318 47.2097 78.4472 48.3377C78.3145 49.1555 77.801 49.6106 76.9068 49.703C76.7548 49.719 76.726 49.783 76.8202 49.8951ZM75.5481 47.023V49.039C75.5481 49.0808 75.566 49.1208 75.5979 49.1503C75.6299 49.1798 75.6731 49.1964 75.7183 49.1964H76.5462C76.8599 49.1964 77.1607 49.0935 77.3825 48.9105C77.6043 48.7275 77.7289 48.4792 77.7289 48.2203V47.8417C77.7289 47.5828 77.6043 47.3346 77.3825 47.1515C77.1607 46.9685 76.8599 46.8657 76.5462 46.8657H75.7183C75.6731 46.8657 75.6299 46.8822 75.5979 46.9117C75.566 46.9412 75.5481 46.9813 75.5481 47.023Z" fill="#262625"/>
<path d="M81.8679 52.1335L84.4987 52.1309C84.5283 52.1308 84.5568 52.1413 84.5783 52.1602C84.5998 52.1791 84.6126 52.2049 84.6141 52.2322L84.6314 52.5976C84.6322 52.612 84.6298 52.6264 84.6243 52.64C84.6189 52.6536 84.6105 52.666 84.5997 52.6764C84.5889 52.6869 84.5759 52.6953 84.5615 52.701C84.5471 52.7066 84.5317 52.7096 84.516 52.7096L81.2188 52.7016C81.1882 52.7016 81.1589 52.6903 81.1373 52.6703C81.1156 52.6503 81.1035 52.6232 81.1035 52.5949L81.115 46.4321C81.115 46.4038 81.1272 46.3767 81.1488 46.3567C81.1704 46.3367 81.1998 46.3254 81.2304 46.3254L84.5073 46.3228C84.5235 46.3227 84.5395 46.3257 84.5543 46.3318C84.5692 46.3378 84.5824 46.3466 84.5933 46.3577C84.6042 46.3687 84.6124 46.3818 84.6175 46.396C84.6226 46.4102 84.6244 46.4252 84.6227 46.4401L84.5824 46.8374C84.5802 46.8643 84.567 46.8894 84.5456 46.9077C84.5242 46.926 84.4961 46.9362 84.467 46.9361L81.8737 46.9041C81.8436 46.9041 81.8146 46.915 81.7931 46.9344C81.7715 46.9538 81.759 46.9803 81.7583 47.0081L81.7554 48.7468C81.7554 48.7751 81.7675 48.8022 81.7892 48.8222C81.8108 48.8422 81.8402 48.8535 81.8708 48.8535L84.4785 48.8295C84.5081 48.8294 84.5366 48.8399 84.5581 48.8588C84.5796 48.8777 84.5924 48.9035 84.5939 48.9308L84.617 49.3522C84.6177 49.3666 84.6153 49.381 84.6099 49.3946C84.6045 49.4082 84.5961 49.4206 84.5853 49.431C84.5745 49.4415 84.5615 49.4499 84.5471 49.4556C84.5327 49.4612 84.5172 49.4642 84.5016 49.4642H81.8737C81.8431 49.4642 81.8137 49.4754 81.7921 49.4954C81.7704 49.5154 81.7583 49.5425 81.7583 49.5708L81.7525 52.0269C81.7525 52.0552 81.7647 52.0823 81.7863 52.1023C81.8079 52.1223 81.8373 52.1335 81.8679 52.1335Z" fill="#262625"/>
<path d="M88.0911 50.7586L87.2834 52.6573C87.2767 52.6738 87.2649 52.6881 87.2496 52.6985C87.2342 52.7089 87.2159 52.715 87.1968 52.7159L86.7065 52.7319C86.6899 52.7327 86.6735 52.7295 86.6587 52.7228C86.6438 52.7161 86.6311 52.706 86.6216 52.6935C86.6121 52.681 86.6061 52.6664 86.6043 52.6513C86.6025 52.6361 86.6049 52.6207 86.6113 52.6066L89.4469 46.4625C89.4545 46.4459 89.4673 46.4317 89.4837 46.4219C89.5 46.4121 89.5192 46.407 89.5387 46.4072C89.5582 46.4075 89.5772 46.4132 89.5932 46.4235C89.6092 46.4338 89.6216 46.4483 89.6286 46.4651L92.3171 52.5959C92.3227 52.6097 92.3246 52.6245 92.3227 52.6391C92.3207 52.6537 92.3149 52.6676 92.3059 52.6797C92.2968 52.6918 92.2846 52.7016 92.2705 52.7084C92.2564 52.7152 92.2407 52.7187 92.2248 52.7186L91.6998 52.7053C91.6803 52.7048 91.6613 52.699 91.6454 52.6886C91.6295 52.6781 91.6173 52.6635 91.6104 52.6466L90.8517 50.7586C90.8446 50.7412 90.832 50.7263 90.8155 50.7158C90.799 50.7054 90.7794 50.6998 90.7594 50.6999H88.1805C88.161 50.7003 88.142 50.7061 88.1261 50.7166C88.1102 50.727 88.098 50.7417 88.0911 50.7586ZM89.5738 47.7878C89.5665 47.7711 89.5539 47.7568 89.5377 47.7467C89.5215 47.7367 89.5025 47.7313 89.4829 47.7313C89.4634 47.7313 89.4444 47.7367 89.4282 47.7467C89.412 47.7568 89.3994 47.7711 89.3921 47.7878L88.4228 49.9959C88.4166 50.0098 88.4142 50.0249 88.4159 50.0398C88.4176 50.0548 88.4232 50.0692 88.4324 50.0816C88.4415 50.094 88.4539 50.1041 88.4683 50.1111C88.4828 50.118 88.4989 50.1215 88.5151 50.1212L90.4536 50.1185C90.4696 50.1184 90.4854 50.1146 90.4994 50.1075C90.5135 50.1004 90.5255 50.0902 90.5343 50.0778C90.5431 50.0654 90.5485 50.0513 90.5501 50.0365C90.5516 50.0218 90.5492 50.0069 90.543 49.9932L89.5738 47.7878Z" fill="#262625"/>
<path d="M94.3243 46.4648C94.3243 46.4266 94.3408 46.39 94.37 46.363C94.3992 46.336 94.4388 46.3208 94.4801 46.3208L96.6753 46.3261C97.0773 46.3268 97.4751 46.4008 97.8462 46.5438C98.2172 46.6867 98.5542 46.8959 98.8378 47.1594C99.1215 47.4229 99.3463 47.7355 99.4994 48.0793C99.6525 48.4232 99.731 48.7916 99.7302 49.1635V49.8889C99.7294 50.2608 99.6495 50.6289 99.495 50.9722C99.3405 51.3156 99.1144 51.6274 98.8297 51.8899C98.5449 52.1524 98.2071 52.3604 97.8355 52.5021C97.4639 52.6437 97.0657 52.7163 96.6638 52.7156L94.4686 52.7103C94.4481 52.7103 94.4279 52.7065 94.409 52.6993C94.3901 52.6921 94.3729 52.6815 94.3584 52.6681C94.344 52.6547 94.3325 52.6388 94.3247 52.6214C94.3168 52.6039 94.3128 52.5852 94.3128 52.5663L94.3243 46.4648ZM95.008 47.0488L94.9734 51.9876C94.973 52.0167 94.9788 52.0455 94.9905 52.0725C95.0022 52.0995 95.0195 52.1241 95.0415 52.1449C95.0634 52.1657 95.0896 52.1823 95.1185 52.1937C95.1474 52.2052 95.1785 52.2112 95.2099 52.2116L96.5109 52.2196C97.1704 52.2238 97.8046 51.9817 98.2742 51.5466C98.7437 51.1115 99.0101 50.5191 99.0148 49.8995L99.0206 49.1902C99.0229 48.8834 98.9609 48.5792 98.838 48.2949C98.7152 48.0107 98.5339 47.752 98.3046 47.5336C98.0753 47.3151 97.8025 47.1413 97.5016 47.022C97.2008 46.9027 96.8779 46.8402 96.5513 46.8381L95.2503 46.8301C95.2189 46.8298 95.1877 46.8352 95.1585 46.846C95.1293 46.8568 95.1027 46.8728 95.0802 46.8931C95.0577 46.9134 95.0397 46.9376 95.0273 46.9643C95.015 46.991 95.0084 47.0197 95.008 47.0488Z" fill="#262625"/>
<path d="M103.258 49.09L104.997 46.3673C105.005 46.3553 105.016 46.3454 105.029 46.3384C105.042 46.3314 105.057 46.3276 105.072 46.3273L105.675 46.322C105.691 46.3222 105.706 46.3263 105.72 46.3338C105.733 46.3413 105.744 46.3519 105.752 46.3646C105.76 46.3773 105.763 46.3917 105.763 46.4062C105.763 46.4207 105.758 46.4349 105.75 46.4473L103.526 49.762C103.517 49.7755 103.512 49.7913 103.512 49.8074L103.546 52.5888C103.546 52.6094 103.538 52.6293 103.523 52.6446C103.508 52.6599 103.488 52.6694 103.466 52.6714L102.929 52.7328C102.916 52.7343 102.904 52.7333 102.891 52.7298C102.879 52.7264 102.868 52.7205 102.858 52.7127C102.849 52.7048 102.841 52.6952 102.836 52.6844C102.831 52.6736 102.828 52.6619 102.828 52.6501L102.837 49.8367C102.837 49.8206 102.832 49.8049 102.822 49.7914L100.578 46.4393C100.57 46.4267 100.565 46.4122 100.565 46.3975C100.565 46.3828 100.569 46.3682 100.577 46.3555C100.585 46.3427 100.597 46.3321 100.61 46.3248C100.624 46.3175 100.64 46.3138 100.656 46.314L101.293 46.3273C101.309 46.3276 101.323 46.3314 101.337 46.3384C101.35 46.3454 101.361 46.3553 101.368 46.3673L103.102 49.09C103.11 49.1028 103.121 49.1134 103.135 49.1208C103.149 49.1282 103.164 49.1321 103.18 49.1321C103.196 49.1321 103.211 49.1282 103.225 49.1208C103.239 49.1134 103.25 49.1028 103.258 49.09Z" fill="#262625"/>
<path d="M107.665 52.736L107.149 52.688C107.137 52.687 107.125 52.6837 107.115 52.6785C107.104 52.6732 107.095 52.666 107.087 52.6572C107.08 52.6485 107.074 52.6385 107.071 52.6277C107.068 52.617 107.067 52.6057 107.068 52.5946L107.928 46.5038C107.93 46.4851 107.938 46.4674 107.952 46.4538C107.966 46.4402 107.985 46.4314 108.005 46.4289C108.025 46.4265 108.046 46.4304 108.063 46.4401C108.081 46.4499 108.094 46.4648 108.101 46.4825L110.449 51.5519C110.456 51.5668 110.467 51.5795 110.482 51.5884C110.497 51.5973 110.514 51.6021 110.531 51.6021C110.549 51.6021 110.566 51.5973 110.581 51.5884C110.595 51.5795 110.607 51.5668 110.614 51.5519L113.068 46.4798C113.076 46.4634 113.09 46.4499 113.107 46.4413C113.124 46.4327 113.144 46.4295 113.163 46.4322C113.183 46.435 113.2 46.4434 113.214 46.4563C113.228 46.4693 113.236 46.4859 113.239 46.5038L114.052 52.6453C114.053 52.6575 114.052 52.6698 114.047 52.6814C114.043 52.693 114.036 52.7035 114.026 52.7122C114.017 52.7209 114.006 52.7275 113.993 52.7316C113.981 52.7357 113.967 52.7372 113.954 52.736L113.429 52.6773C113.409 52.6749 113.39 52.6662 113.376 52.6527C113.362 52.6391 113.353 52.6214 113.351 52.6026L112.93 48.4639C112.928 48.4458 112.92 48.4288 112.906 48.4155C112.893 48.4022 112.875 48.3934 112.856 48.3903C112.836 48.3873 112.817 48.3903 112.799 48.3987C112.782 48.4072 112.768 48.4207 112.76 48.4372L110.625 52.8586C110.618 52.8735 110.607 52.8862 110.592 52.8951C110.577 52.904 110.56 52.9088 110.543 52.9088C110.525 52.9088 110.508 52.904 110.494 52.8951C110.479 52.8862 110.468 52.8735 110.461 52.8586L108.349 48.4132C108.341 48.3967 108.327 48.3832 108.31 48.3747C108.292 48.3663 108.272 48.3633 108.253 48.3663C108.234 48.3694 108.216 48.3782 108.202 48.3915C108.189 48.4048 108.181 48.4218 108.179 48.4399L107.764 52.6613C107.762 52.6722 107.759 52.6827 107.753 52.6924C107.748 52.702 107.74 52.7106 107.731 52.7175C107.722 52.7245 107.712 52.7297 107.7 52.7328C107.689 52.736 107.677 52.7371 107.665 52.736Z" fill="#262625"/>
<path d="M116.576 46.3262H116.166C116.095 46.3262 116.037 46.3799 116.037 46.4462V52.585C116.037 52.6512 116.095 52.705 116.166 52.705H116.576C116.648 52.705 116.706 52.6512 116.706 52.585V46.4462C116.706 46.3799 116.648 46.3262 116.576 46.3262Z" fill="#262625"/>
<path d="M121.094 48.7727C121.098 48.7794 121.104 48.785 121.111 48.7888C121.118 48.7927 121.126 48.7947 121.134 48.7947C121.142 48.7947 121.151 48.7927 121.158 48.7888C121.165 48.785 121.171 48.7794 121.175 48.7727L122.565 46.498C122.64 46.3736 122.755 46.3122 122.911 46.314L123.228 46.3193C123.386 46.3211 123.425 46.3851 123.344 46.5113L121.601 49.1887C121.572 49.2338 121.556 49.2856 121.555 49.3387C121.555 49.3917 121.57 49.444 121.599 49.4901L123.427 52.4021C123.529 52.5639 123.483 52.6697 123.289 52.7195C123.099 52.7675 122.942 52.7284 122.819 52.6021C122.723 52.5029 122.639 52.3938 122.568 52.2768C122.093 51.507 121.63 50.7585 121.18 50.0314C121.175 50.0226 121.167 50.0152 121.158 50.01C121.149 50.0047 121.138 50.0018 121.128 50.0015C121.117 50.0012 121.107 50.0036 121.098 50.0084C121.089 50.0132 121.081 50.0202 121.076 50.0287L119.504 52.4981C119.418 52.6315 119.291 52.7035 119.124 52.7141L118.832 52.7328C118.661 52.7435 118.62 52.6804 118.708 52.5435L120.67 49.4714C120.718 49.3967 120.718 49.3221 120.67 49.2474L118.855 46.426C118.813 46.3585 118.834 46.3247 118.919 46.3247L119.458 46.322C119.545 46.322 119.609 46.3567 119.651 46.426L121.094 48.7727Z" fill="#262625"/>
</svg>
