<svg width="150" height="80" viewBox="0 0 150 80" fill="none" xmlns="http://www.w3.org/2000/svg">
<path d="M46.7712 44.8963C49.1782 40.8144 50.4409 36.5419 50.5592 32.0789C50.5649 31.8727 50.6231 31.856 50.7339 32.0288C52.9023 35.384 54.2814 39.0642 54.8712 43.0695C54.8772 43.1115 54.8724 43.1544 54.8573 43.1937C54.8423 43.233 54.8174 43.2674 54.7853 43.2934C51.0001 46.291 46.9955 48.9507 42.7713 51.2726C42.7379 51.2906 42.6992 51.2952 42.663 51.2854C42.6269 51.2755 42.596 51.252 42.5766 51.2195C40.9646 48.5117 38.3247 45.3412 35.3871 44.6341C32.6413 43.974 26.6915 43.0989 25.111 46.4197C25.084 46.4753 25.0458 46.5245 24.9989 46.5641C24.9521 46.6037 24.8976 46.6327 24.839 46.6495C22.5972 47.2624 21.0224 48.7828 21.595 51.3138C21.6466 51.5437 21.7392 51.5623 21.8728 51.3698C21.9663 51.2323 22.0236 51.0771 22.0446 50.9043C22.0491 50.8637 22.0619 50.8246 22.0823 50.7896C22.1028 50.7546 22.1302 50.7244 22.163 50.701C22.1957 50.6776 22.2329 50.6616 22.2723 50.6539C22.3116 50.6463 22.352 50.6473 22.391 50.6567C23.1812 50.8473 24.0078 50.864 24.8705 50.7068C24.9774 50.6892 25.0815 50.7009 25.1826 50.7422C25.5682 50.9072 25.9652 51.027 26.3737 51.1017C27.3272 51.2785 28.0487 51.8383 28.5526 52.6781C29.3028 53.9303 28.3837 55.4684 27.2298 55.99C22.935 57.9268 18.687 59.351 14.4857 60.2624C14.4669 60.2662 14.4476 60.2659 14.429 60.2614C14.4103 60.2569 14.3929 60.2484 14.3777 60.2364C14.3625 60.2244 14.35 60.2092 14.341 60.1919C14.3319 60.1745 14.3266 60.1554 14.3254 60.1357C14.2051 57.6469 14.3588 55.2347 14.7863 52.8991C16.0061 46.2576 19.7082 40.1347 24.8104 36.0332C25.8927 35.163 27.0933 34.3222 28.4123 33.5109C30.888 31.9905 33.0984 30.1725 35.0435 28.0569C37.2825 25.6202 38.1844 22.5705 35.639 19.9334C35.6009 19.8941 35.599 19.8538 35.6333 19.8126L35.682 19.7566C35.7049 19.7291 35.7297 19.7271 35.7564 19.7507C42.296 25.0505 45.8989 31.9267 46.565 40.3793C46.6796 41.8388 46.6538 43.3111 46.4877 44.7961C46.4343 45.2735 46.5288 45.3068 46.7712 44.8963Z" fill="#262625"/>
<path d="M120.994 36.7079C121.076 36.9711 121.16 36.9721 121.246 36.7108C121.988 34.4656 123.826 33.1455 126.056 32.7153C129.65 32.0229 134.225 32.7684 135.327 36.8935C135.848 38.8461 135.843 40.7701 135.31 42.6657C134.48 45.6211 132.118 46.7467 129.257 47.0708C126.222 47.4126 122.28 46.3165 121.218 42.9162C121.114 42.5901 121.018 42.5921 120.928 42.9221C119.835 47.003 114.675 47.5835 111.282 46.7791C106.481 45.6388 105.55 40.6827 106.893 36.4545C106.9 36.4336 106.902 36.4114 106.898 36.3896C106.895 36.3678 106.886 36.3472 106.873 36.3293C106.86 36.3115 106.844 36.2969 106.824 36.2869C106.805 36.2769 106.783 36.2717 106.761 36.2718L100.631 36.2688C100.452 36.2688 100.361 36.3612 100.359 36.5458L100.356 37.8452C100.356 38.0515 100.457 38.1546 100.66 38.1546L105.484 38.1458C105.562 38.1458 105.637 38.178 105.693 38.2355C105.748 38.293 105.779 38.3709 105.779 38.4522L105.782 41.3486C105.782 41.4002 105.762 41.4497 105.727 41.4861C105.691 41.5226 105.643 41.5431 105.593 41.5431L100.562 41.5372C100.408 41.5352 100.331 41.6138 100.333 41.7729L100.376 46.3607C100.377 46.4006 100.369 46.4401 100.353 46.4766C100.337 46.5131 100.314 46.5457 100.285 46.5722C100.256 46.5987 100.222 46.6186 100.185 46.6303C100.148 46.6421 100.108 46.6456 100.07 46.6406C98.77 46.4736 97.5331 46.4736 96.3592 46.6406C96.3201 46.6465 96.2803 46.6437 96.2424 46.6323C96.2044 46.621 96.1693 46.6014 96.1395 46.5748C96.1096 46.5483 96.0856 46.5154 96.0692 46.4784C96.0527 46.4415 96.0442 46.4013 96.0443 46.3607L96.0672 33.0895C96.0672 33.0372 96.0874 32.987 96.1233 32.9499C96.1593 32.9129 96.2081 32.8921 96.259 32.8921H106.999C107.034 32.8921 107.069 32.8994 107.102 32.9136C107.134 32.9277 107.164 32.9485 107.188 32.9746C107.213 33.0007 107.232 33.0317 107.245 33.0656C107.257 33.0995 107.263 33.1357 107.262 33.172L107.216 35.2199C107.209 35.5263 107.289 35.5528 107.457 35.2994C108.119 34.2956 109.016 33.5885 110.146 33.1779C113.859 31.8255 119.603 32.3058 120.994 36.7079ZM116.204 38.4669C116.09 36.8935 114.873 35.7797 113.341 36.0891C110.896 36.5812 110.638 39.8577 111.411 41.7788C111.898 42.9889 112.801 43.5399 114.12 43.4318C115.365 43.3287 115.803 42.5596 116.256 41.4694C116.3 41.3614 116.379 41.3074 116.493 41.3074L120.633 41.2926C120.67 41.2926 120.705 41.2781 120.731 41.2521C120.756 41.2261 120.771 41.1909 120.771 41.1542L120.762 38.8146C120.762 38.7826 120.75 38.7519 120.727 38.7292C120.705 38.7065 120.674 38.6938 120.642 38.6938L116.436 38.6909C116.291 38.6909 116.214 38.6162 116.204 38.4669ZM131.073 40.8772C131.459 38.7439 130.698 35.7885 128.018 36.0419C125.678 36.2629 125.269 38.6702 125.501 40.6798C125.681 42.2208 126.643 43.5084 128.207 43.5644C129.882 43.6263 130.783 42.4595 131.073 40.8772Z" fill="#262625"/>
<path d="M66.9257 40.1773L66.8971 33.2648C66.8967 33.2286 66.9034 33.1926 66.9168 33.159C66.9301 33.1254 66.9499 33.0949 66.9749 33.0691C67 33.0434 67.0298 33.0229 67.0626 33.009C67.0954 32.995 67.1307 32.9878 67.1663 32.9878L70.9428 32.9908C70.9952 32.9908 71.0455 33.0122 71.0825 33.0503C71.1196 33.0884 71.1404 33.1401 71.1404 33.1941L71.1175 44.0844C71.1175 44.5126 71.1871 44.5244 71.3265 44.1198L75.0601 33.2648C75.0875 33.1831 75.1392 33.1122 75.208 33.062C75.2768 33.0118 75.3592 32.9849 75.4438 32.9849L80.5174 32.9878C80.5957 32.988 80.6719 33.0135 80.7352 33.0606C80.7984 33.1077 80.8454 33.174 80.8696 33.2501L84.4686 44.3024C84.5087 44.4262 84.5478 44.4262 84.586 44.3024C84.6203 44.1905 84.6366 44.0756 84.6347 43.9577C84.6098 40.3374 84.5984 36.7387 84.6003 33.1617C84.6003 33.1241 84.6151 33.0882 84.6414 33.0616C84.6677 33.0351 84.7034 33.0202 84.7406 33.0202H95.386C95.5234 33.0202 95.5912 33.09 95.5893 33.2294L95.5864 36.0581C95.5864 36.0905 95.5802 36.1225 95.5683 36.1524C95.5563 36.1822 95.5387 36.2093 95.5166 36.2321C95.4945 36.2548 95.4683 36.2728 95.4395 36.2849C95.4107 36.297 95.3798 36.303 95.3488 36.3026L89.0526 36.2909C88.8961 36.2889 88.8159 36.3685 88.8121 36.5295L88.792 37.9114C88.7917 37.9473 88.7982 37.9829 88.8113 38.0161C88.8243 38.0493 88.8437 38.0796 88.8682 38.105C88.8927 38.1305 88.9218 38.1508 88.954 38.1646C88.9861 38.1784 89.0206 38.1855 89.0555 38.1855L94.0288 38.156C94.1086 38.156 94.185 38.1886 94.2414 38.2466C94.2978 38.3046 94.3295 38.3833 94.3295 38.4654L94.3266 41.3589C94.3266 41.4034 94.3097 41.4461 94.2796 41.4776C94.2496 41.5091 94.2088 41.5268 94.1663 41.5268L88.961 41.5327C88.9393 41.5327 88.9178 41.5372 88.8978 41.5458C88.8778 41.5544 88.8597 41.567 88.8445 41.583C88.8293 41.5989 88.8174 41.6177 88.8093 41.6384C88.8013 41.6592 88.7974 41.6813 88.7978 41.7036L88.8178 46.477C88.8178 46.5634 88.7758 46.6066 88.6918 46.6066H80.861C80.7006 46.6066 80.5956 46.5281 80.546 46.3709L80.2654 45.4545C80.2468 45.3945 80.2088 45.3429 80.1578 45.308C80.1068 45.2732 80.0458 45.2573 79.9848 45.263C78.578 45.4025 77.155 45.4045 75.7158 45.2689C75.6614 45.2629 75.6066 45.2774 75.561 45.3097C75.5154 45.3421 75.482 45.3902 75.4667 45.4457L75.2033 46.4004C75.167 46.5379 75.0792 46.6066 74.9399 46.6066H66.522C66.4298 46.6068 66.3391 46.5821 66.2592 46.535C66.1793 46.488 66.113 46.4202 66.0668 46.3385L61.961 39.146C61.8159 38.8907 61.7434 38.9113 61.7434 39.2079L61.7691 46.3061C61.7691 46.4573 61.6956 46.533 61.5487 46.533H57.9525C57.9039 46.533 57.8573 46.5131 57.8229 46.4777C57.7885 46.4424 57.7692 46.3944 57.7692 46.3444V33.2618C57.7692 33.2134 57.7879 33.1669 57.8212 33.1327C57.8545 33.0984 57.8997 33.0792 57.9467 33.0792H62.4219C62.5918 33.0792 62.7197 33.1548 62.8056 33.306L66.7482 40.2274C66.8685 40.4376 66.9277 40.4209 66.9257 40.1773ZM76.5232 41.7478C76.5187 41.7625 76.5176 41.7781 76.5201 41.7934C76.5225 41.8086 76.5285 41.823 76.5374 41.8353C76.5464 41.8477 76.5581 41.8577 76.5715 41.8645C76.585 41.8714 76.5998 41.8748 76.6148 41.8745L79.0772 41.8686C79.0919 41.8687 79.1063 41.8653 79.1195 41.8587C79.1327 41.852 79.1442 41.8423 79.1531 41.8303C79.162 41.8183 79.168 41.8043 79.1707 41.7895C79.1735 41.7747 79.1728 41.7594 79.1688 41.7449L77.929 37.4577C77.923 37.4379 77.9111 37.4206 77.8948 37.4083C77.8786 37.3961 77.859 37.3894 77.8388 37.3894C77.8187 37.3894 77.7991 37.3961 77.7829 37.4083C77.7666 37.4206 77.7547 37.4379 77.7487 37.4577L76.5232 41.7478Z" fill="#262625"/>
<path d="M27.5502 47.1005C27.3918 47.2871 27.198 47.4334 26.969 47.5395C26.8201 47.6063 26.7924 47.5709 26.8859 47.4334L27.8165 46.0368C27.8852 45.9327 27.9806 45.8826 28.1028 45.8865C29.0725 45.9042 30.0135 45.8747 30.9259 45.7981C30.966 45.7942 31.0004 45.806 31.029 45.8335C31.0366 45.8413 31.0405 45.8511 31.0405 45.8629C31.0424 45.8885 31.0309 45.9052 31.0061 45.913C30.5537 46.0584 30.0956 46.1792 29.6318 46.2754C29.5344 46.2951 29.4743 46.354 29.4514 46.4522C29.4323 46.5367 29.4352 46.6221 29.46 46.7086C29.4924 46.8147 29.4819 46.9148 29.4285 47.0091C29.1784 47.4511 28.8072 47.6269 28.3147 47.5365C28.2078 47.5169 28.1162 47.4678 28.0398 47.3892L27.7535 47.0946C27.6829 47.0219 27.6151 47.0239 27.5502 47.1005Z" fill="#262625"/>
<path d="M24.5472 47.624C24.5377 47.6187 24.5292 47.6116 24.5224 47.6029C24.5156 47.5942 24.5105 47.5842 24.5076 47.5734C24.5046 47.5627 24.5038 47.5514 24.5052 47.5404C24.5067 47.5293 24.5102 47.5187 24.5157 47.509L24.5415 47.4619C24.5744 47.4011 24.6157 47.3459 24.663 47.2995C24.7104 47.2531 24.7628 47.2164 24.8174 47.1915C24.8719 47.1665 24.9275 47.1539 24.9809 47.1543C25.0343 47.1547 25.0844 47.1681 25.1285 47.1938L25.1829 47.2262C25.2708 47.2778 25.3289 47.3752 25.3444 47.4972C25.36 47.6192 25.3318 47.7558 25.2659 47.8774L25.2401 47.9275C25.2299 47.9466 25.2126 47.9607 25.1922 47.9668C25.1718 47.9729 25.1499 47.9704 25.1313 47.9599L24.5472 47.624Z" fill="#262625"/>
<path d="M91.1823 50.984C91.9267 51.3906 93.009 51.5143 93.0605 52.6252C93.1636 54.8351 90.3978 55.2122 90.0943 52.9787C90.0851 52.9116 90.1002 52.8433 90.1367 52.7873C90.1732 52.7312 90.2285 52.6913 90.2918 52.6753C90.7098 52.5692 90.9484 52.7342 91.0076 53.1703C91.0286 53.3255 91.1078 53.4345 91.2453 53.4973C91.6862 53.7016 92.0088 53.5759 92.213 53.1202C92.2699 52.9912 92.2807 52.8457 92.2435 52.7093C92.2063 52.5729 92.1235 52.4544 92.0097 52.3747C91.7635 52.1999 91.5001 52.0683 91.2195 51.9799C89.0291 51.2845 90.853 48.0728 92.5022 49.5136C92.7408 49.7238 92.8992 50.0303 92.9775 50.433C93.0176 50.6333 92.9393 50.7472 92.7427 50.7747L92.5881 50.7954C92.359 50.8268 92.2187 50.7276 92.1672 50.4978C91.9868 49.7052 90.9675 49.9792 91.0191 50.7305C91.0286 50.8464 91.083 50.9309 91.1823 50.984Z" fill="#262625"/>
<path d="M121.641 52.7041C121.727 52.9477 121.819 52.9506 121.916 52.713C122.294 51.774 122.662 50.8301 123.019 49.8814C123.154 49.5219 123.404 49.3038 123.769 49.2272C123.82 49.2163 123.874 49.2173 123.925 49.2302C123.976 49.243 124.023 49.2674 124.064 49.3015C124.105 49.3356 124.138 49.3786 124.161 49.4274C124.183 49.4762 124.195 49.5296 124.195 49.5838L124.198 54.036C124.198 54.1171 124.172 54.1958 124.123 54.259C124.074 54.3222 124.006 54.3662 123.929 54.3836C123.881 54.3935 123.832 54.3954 123.78 54.3895C123.523 54.3581 123.398 54.2088 123.405 53.9417L123.483 51.3369C123.483 51.3227 123.479 51.3086 123.473 51.2963C123.466 51.284 123.455 51.2739 123.443 51.2672C123.431 51.2604 123.417 51.2573 123.404 51.2582C123.39 51.2591 123.376 51.2639 123.365 51.2721C123.306 51.3134 123.264 51.3703 123.239 51.443C122.909 52.3839 122.557 53.2895 122.183 54.1597C122.159 54.2163 122.121 54.2658 122.073 54.3034C122.025 54.3411 121.968 54.3657 121.908 54.3748C121.595 54.418 121.392 54.2717 121.301 53.9358C121.039 52.9693 120.743 52.107 120.413 51.3487C120.186 50.8282 120.079 50.8527 120.092 51.4224L120.153 54.0477C120.158 54.2638 120.056 54.3758 119.846 54.3836L119.763 54.3866C119.471 54.3964 119.339 54.252 119.365 53.9535C119.493 52.543 119.492 51.0973 119.362 49.6162C119.357 49.5533 119.372 49.4904 119.407 49.4382C119.441 49.3861 119.492 49.3479 119.551 49.3304C120.001 49.1948 120.333 49.2655 120.528 49.7488C120.946 50.7997 121.317 51.7848 121.641 52.7041Z" fill="#262625"/>
<path d="M58.3758 51.438L59.713 51.4321C59.9229 51.4321 60.0489 51.5382 60.0909 51.7504C60.0966 51.7818 60.0976 51.8132 60.0938 51.8447C60.0632 52.1098 59.9182 52.2395 59.6586 52.2336L58.3501 52.1953C58.2413 52.1933 58.1888 52.2483 58.1926 52.3603L58.2298 54.0103C58.2322 54.1058 58.1981 54.1984 58.135 54.2683C58.0719 54.3382 57.9846 54.38 57.892 54.3846L57.7574 54.3934C57.557 54.4052 57.4568 54.307 57.4568 54.0987V49.5198C57.4568 49.3725 57.5293 49.2989 57.6744 49.2989H59.733C59.9162 49.2969 60.0193 49.3892 60.0422 49.5758L60.0565 49.7055C60.0909 49.9726 59.9764 50.1072 59.713 50.1092L58.3214 50.1121C58.3035 50.1121 58.2858 50.1158 58.2693 50.1229C58.2528 50.1301 58.2378 50.1405 58.2253 50.1537C58.2127 50.1669 58.2029 50.1825 58.1963 50.1996C58.1897 50.2168 58.1865 50.2351 58.1869 50.2535L58.2069 51.2701C58.2077 51.3149 58.2258 51.3576 58.2574 51.389C58.289 51.4205 58.3315 51.4381 58.3758 51.438Z" fill="#262625"/>
<path d="M61.534 49.2988H61.3278C61.1665 49.2988 61.0358 49.4334 61.0358 49.5994V54.0663C61.0358 54.2323 61.1665 54.3668 61.3278 54.3668H61.534C61.6953 54.3668 61.826 54.2323 61.826 54.0663V49.5994C61.826 49.4334 61.6953 49.2988 61.534 49.2988Z" fill="#262625"/>
<path d="M63.5293 50.478L63.5408 53.9579C63.5419 54.063 63.5042 54.1647 63.4352 54.2428C63.3662 54.3209 63.271 54.3696 63.1686 54.3792C63.1228 54.3831 63.076 54.3812 63.0283 54.3733C62.8412 54.3439 62.7477 54.2319 62.7477 54.0374L62.762 49.5175C62.7619 49.4668 62.7804 49.4179 62.8139 49.3807C62.8473 49.3436 62.8933 49.3208 62.9424 49.3171C64.0848 49.2199 65.5994 49.0666 65.9745 50.5222C66.1845 51.3335 65.9201 51.9601 65.1814 52.4021C65.0726 52.4689 65.0526 52.5563 65.1213 52.6643L65.9201 53.896C66.0671 54.1258 66.0146 54.2839 65.7626 54.3704C65.7225 54.3841 65.6825 54.391 65.6424 54.391C65.3713 54.393 65.1642 54.2761 65.0211 54.0404L63.8071 52.0338C63.7875 52.0026 63.7769 51.9663 63.7764 51.9291C63.776 51.892 63.7857 51.8554 63.8046 51.8237C63.8234 51.792 63.8506 51.7664 63.8829 51.7499C63.9153 51.7334 63.9515 51.7266 63.9874 51.7303C64.5458 51.7833 65.2387 51.6065 65.1843 50.8787C65.1537 50.4878 64.9523 50.2541 64.5801 50.1775C64.3873 50.1382 64.2003 50.1009 64.0189 50.0655C63.6925 49.9987 63.5293 50.1362 63.5293 50.478Z" fill="#262625"/>
<path d="M67.8643 53.5536L69.482 53.5507C69.5053 53.5506 69.5284 53.5555 69.5498 53.5649C69.5712 53.5743 69.5905 53.5882 69.6066 53.6055C69.6227 53.6229 69.6352 53.6434 69.6433 53.6659C69.6514 53.6884 69.655 53.7123 69.6538 53.7363L69.628 54.2166C69.6258 54.2619 69.6068 54.3046 69.5748 54.3359C69.5428 54.3672 69.5003 54.3846 69.4562 54.3845L67.0769 54.3786C67.0313 54.3786 66.9877 54.36 66.9554 54.3269C66.9232 54.2937 66.9051 54.2487 66.9051 54.2018V49.4756C66.9051 49.4287 66.9232 49.3838 66.9554 49.3506C66.9877 49.3175 67.0313 49.2988 67.0769 49.2988H69.4591C69.5047 49.2988 69.5484 49.3175 69.5806 49.3506C69.6128 49.3838 69.6309 49.4287 69.6309 49.4756L69.6366 49.9294C69.6366 49.9526 69.6322 49.9756 69.6235 49.997C69.6149 50.0185 69.6023 50.038 69.5863 50.0544C69.5703 50.0708 69.5514 50.0838 69.5306 50.0927C69.5097 50.1016 69.4874 50.1062 69.4648 50.1062L67.8471 50.1121C67.8243 50.1121 67.8017 50.1167 67.7807 50.1258C67.7597 50.1349 67.7406 50.1482 67.7246 50.1649C67.7086 50.1816 67.696 50.2015 67.6876 50.2232C67.6791 50.245 67.6749 50.2683 67.6753 50.2918L67.6954 51.2642C67.6961 51.3105 67.7145 51.3547 67.7467 51.3873C67.7788 51.4198 67.8221 51.438 67.8672 51.438L69.4734 51.4292C69.4967 51.4291 69.5198 51.434 69.5412 51.4434C69.5626 51.4528 69.582 51.4667 69.598 51.484C69.6141 51.5014 69.6266 51.5219 69.6347 51.5444C69.6428 51.5669 69.6464 51.5908 69.6452 51.6148L69.628 52.0686C69.6258 52.1144 69.6063 52.1576 69.5737 52.1889C69.5411 52.2203 69.498 52.2373 69.4534 52.2365L67.8528 52.2247C67.8073 52.2247 67.7636 52.2434 67.7314 52.2765C67.6991 52.3097 67.681 52.3546 67.681 52.4015L67.6925 53.3798C67.6933 53.4261 67.7117 53.4703 67.7438 53.5029C67.776 53.5354 67.8192 53.5536 67.8643 53.5536Z" fill="#262625"/>
<path d="M73.6481 52.6174L73.6996 54.0111C73.7012 54.0598 73.6933 54.1082 73.6765 54.1537C73.6598 54.1992 73.6344 54.2408 73.602 54.2761C73.5695 54.3114 73.5305 54.3398 73.4873 54.3596C73.4441 54.3793 73.3976 54.3901 73.3503 54.3912L73.253 54.3942C72.9838 54.4001 72.8493 54.2645 72.8493 53.9876L72.8464 49.609C72.8464 49.5288 72.877 49.4517 72.9316 49.3944C72.9862 49.3371 73.0605 49.3041 73.1384 49.3026C74.3754 49.2761 75.8528 49.114 75.9158 50.8407C75.9616 52.1106 74.8592 52.4112 73.8571 52.3964C73.712 52.3945 73.6424 52.4681 73.6481 52.6174ZM73.5393 50.2455L73.5622 51.4536C73.5622 51.4864 73.5749 51.5179 73.5974 51.5411C73.62 51.5643 73.6506 51.5773 73.6825 51.5773L74.1721 51.5685C74.2815 51.5666 74.3896 51.5466 74.4901 51.5097C74.5906 51.4729 74.6816 51.4198 74.7579 51.3536C74.8343 51.2874 74.8944 51.2093 74.9348 51.1238C74.9753 51.0383 74.9953 50.9471 74.9938 50.8554V50.7965C74.9923 50.7048 74.9693 50.6144 74.926 50.5304C74.8827 50.4464 74.8201 50.3705 74.7417 50.307C74.6632 50.2435 74.5705 50.1937 74.4689 50.1604C74.3672 50.1271 74.2586 50.111 74.1492 50.1129L73.6596 50.1217C73.6277 50.1217 73.5971 50.1348 73.5745 50.158C73.552 50.1812 73.5393 50.2127 73.5393 50.2455Z" fill="#262625"/>
<path d="M77.4843 52.9689C78.0741 54.0021 78.6124 53.9157 79.0992 52.7096C79.1105 52.6803 79.1163 52.6493 79.1163 52.6182L79.1077 49.5745C79.1077 49.3879 79.1984 49.2955 79.3797 49.2975L79.6489 49.3004C79.8188 49.3004 79.8989 49.3888 79.8894 49.5656C79.8455 50.3848 79.8436 51.309 79.8837 52.3383C79.9381 53.7202 79.2824 54.7633 77.7535 54.4127C76.8916 54.2123 76.5795 53.4992 76.6225 52.6595C76.6759 51.6164 76.6549 50.6372 76.5595 49.7218C76.529 49.4291 76.6559 49.2847 76.9403 49.2887L77.0949 49.2916C77.3011 49.2955 77.4041 49.4036 77.4041 49.6157L77.3898 52.6064C77.3898 52.7338 77.4224 52.8588 77.4843 52.9689Z" fill="#262625"/>
<path d="M81.5619 51.7738C81.6268 52.4594 81.6516 53.2088 81.6363 54.022C81.6325 54.2499 81.5199 54.3707 81.2985 54.3844L81.1639 54.3903C80.9635 54.4021 80.8633 54.3049 80.8633 54.0986L80.8661 49.5138C80.8661 49.394 80.9234 49.3252 81.0379 49.3076C81.2689 49.2702 81.4874 49.283 81.6936 49.3459C81.7928 49.3753 81.8616 49.4392 81.8997 49.5374L83.088 52.6165C83.2139 52.9465 83.3361 52.9455 83.4545 52.6136C83.7618 51.7453 84.1034 50.8093 84.4795 49.8055C84.6684 49.2968 85.0197 49.1396 85.5331 49.3341C85.619 49.3675 85.662 49.4323 85.662 49.5286L85.6648 54.078C85.665 54.1561 85.6362 54.2314 85.5841 54.2888C85.5321 54.3462 85.4607 54.3814 85.3843 54.3874L85.2697 54.3962C85.0063 54.4139 84.8736 54.2872 84.8717 54.0161C84.8641 53.3227 84.8727 52.6794 84.8975 52.0861C84.9452 50.9507 84.7992 50.9232 84.4594 52.0036C84.2399 52.7049 83.9803 53.4091 83.6806 54.1163C83.6513 54.1876 83.6036 54.2494 83.5426 54.295C83.4816 54.3407 83.4096 54.3685 83.3342 54.3756C83.0746 54.3992 82.8942 54.2783 82.7931 54.0132C82.4991 53.2333 82.1975 52.4594 81.8883 51.6913C81.5981 50.9684 81.4893 50.9959 81.5619 51.7738Z" fill="#262625"/>
<path d="M87.3258 52.6179L87.3744 54.0734C87.3802 54.2659 87.2904 54.3691 87.1053 54.3828L86.965 54.3946C86.7092 54.4143 86.5823 54.2925 86.5842 54.0292L86.5956 49.5034C86.5956 49.4764 86.6008 49.4498 86.611 49.4249C86.6211 49.4 86.6359 49.3775 86.6545 49.3586C86.6732 49.3397 86.6953 49.3247 86.7196 49.3147C86.7439 49.3047 86.7699 49.2997 86.7961 49.3001C87.7409 49.3119 89.0494 49.0673 89.4961 50.2489C89.666 50.6948 89.6478 51.1309 89.4417 51.5571C89.0695 52.3291 88.3107 52.4234 87.5376 52.3998C87.3907 52.3959 87.32 52.4686 87.3258 52.6179ZM87.3258 50.2135L87.3315 51.4569C87.3315 51.4819 87.3411 51.5059 87.3583 51.5236C87.3755 51.5413 87.3988 51.5512 87.4231 51.5512L87.9814 51.5483C88.1885 51.5472 88.3869 51.4793 88.5329 51.3594C88.6789 51.2396 88.7607 51.0775 88.7602 50.9089V50.7498C88.76 50.6661 88.7395 50.5833 88.7 50.5062C88.6604 50.4291 88.6025 50.3591 88.5297 50.3002C88.4568 50.2414 88.3704 50.1949 88.2753 50.1633C88.1803 50.1317 88.0784 50.1158 87.9757 50.1163L87.4174 50.1192C87.3931 50.1192 87.3698 50.1291 87.3526 50.1468C87.3354 50.1645 87.3258 50.1885 87.3258 50.2135Z" fill="#262625"/>
<path d="M96.1328 49.5808C96.1328 49.5417 96.1402 49.503 96.1548 49.4669C96.1693 49.4308 96.1906 49.398 96.2174 49.3704C96.2443 49.3427 96.2762 49.3208 96.3113 49.3059C96.3464 49.2909 96.384 49.2832 96.4219 49.2832H97.822C98.1341 49.2832 98.4431 49.3464 98.7315 49.4691C99.0198 49.5919 99.2818 49.7718 99.5025 49.9986C99.7231 50.2255 99.8982 50.4947 100.018 50.7911C100.137 51.0875 100.198 51.4051 100.198 51.7259V51.9321C100.198 52.58 99.9481 53.2013 99.5025 53.6593C99.0568 54.1174 98.4523 54.3748 97.822 54.3748H96.4219C96.3452 54.3748 96.2717 54.3434 96.2174 54.2876C96.1632 54.2318 96.1328 54.1561 96.1328 54.0772V49.5808ZM96.9574 50.1878L96.9745 53.4761C96.9745 53.4988 96.9833 53.5205 96.9989 53.5365C97.0144 53.5525 97.0355 53.5616 97.0576 53.5616L97.8077 53.5586C98.0149 53.5575 98.2199 53.5129 98.4109 53.4275C98.6019 53.342 98.7752 53.2173 98.9209 53.0605C99.0666 52.9038 99.1818 52.7179 99.26 52.5137C99.3383 52.3095 99.3779 52.0908 99.3768 51.8702V51.7701C99.3744 51.3247 99.206 50.8985 98.9085 50.5852C98.611 50.2718 98.2089 50.0971 97.7905 50.0994L97.0404 50.1023C97.0184 50.1023 96.9972 50.1113 96.9817 50.1274C96.9661 50.1434 96.9574 50.1651 96.9574 50.1878Z" fill="#262625"/>
<path d="M101.933 53.5536L103.537 53.5507C103.56 53.5506 103.583 53.5555 103.604 53.5649C103.625 53.5744 103.645 53.5883 103.66 53.6057C103.676 53.6231 103.689 53.6437 103.696 53.6661C103.704 53.6886 103.707 53.7125 103.706 53.7363L103.677 54.2195C103.674 54.2635 103.655 54.3048 103.624 54.3349C103.592 54.365 103.551 54.3817 103.508 54.3816H101.109C101.064 54.3816 101.021 54.3633 100.989 54.3307C100.958 54.2981 100.94 54.2538 100.94 54.2077L100.937 49.4727C100.937 49.4266 100.955 49.3823 100.986 49.3497C101.018 49.3171 101.061 49.2988 101.106 49.2988H103.517C103.561 49.2988 103.603 49.3163 103.634 49.3476C103.666 49.379 103.684 49.4217 103.686 49.4668L103.697 49.9294C103.698 49.9522 103.694 49.9749 103.685 49.9961C103.677 50.0174 103.665 50.0368 103.65 50.0532C103.634 50.0696 103.616 50.0827 103.596 50.0918C103.575 50.1009 103.553 50.1058 103.531 50.1062L101.922 50.1121C101.9 50.1121 101.877 50.1167 101.857 50.1256C101.836 50.1345 101.817 50.1476 101.801 50.164C101.786 50.1805 101.773 50.2 101.765 50.2214C101.757 50.2429 101.753 50.2658 101.753 50.2889L101.77 51.2701C101.771 51.3156 101.789 51.3591 101.821 51.3911C101.852 51.423 101.895 51.441 101.939 51.4409L103.517 51.4321C103.561 51.4321 103.604 51.45 103.635 51.482C103.667 51.5139 103.685 51.5574 103.686 51.603L103.694 52.0391C103.695 52.0622 103.691 52.0851 103.682 52.1065C103.674 52.128 103.662 52.1475 103.646 52.1639C103.63 52.1804 103.611 52.1935 103.591 52.2024C103.57 52.2113 103.548 52.2159 103.525 52.2159L101.933 52.2277C101.889 52.2277 101.846 52.246 101.814 52.2786C101.782 52.3112 101.764 52.3554 101.764 52.4015V53.3798C101.764 53.4259 101.782 53.4701 101.814 53.5027C101.846 53.5353 101.889 53.5536 101.933 53.5536Z" fill="#262625"/>
<path d="M105.398 52.6097L105.43 54.0564C105.435 54.2469 105.346 54.352 105.16 54.3717L105.012 54.3894C104.963 54.3947 104.914 54.3896 104.868 54.3743C104.822 54.359 104.779 54.3338 104.743 54.3005C104.707 54.2671 104.678 54.2263 104.658 54.1807C104.638 54.1351 104.628 54.0857 104.628 54.0358L104.631 49.5924C104.631 49.5151 104.661 49.4409 104.714 49.3861C104.767 49.3314 104.839 49.3007 104.914 49.3007C105.991 49.3007 107.445 49.0827 107.646 50.6178C107.812 51.8995 106.758 52.5095 105.641 52.3798C105.611 52.376 105.579 52.3792 105.55 52.389C105.52 52.3989 105.493 52.4153 105.47 52.4371C105.447 52.4588 105.428 52.4855 105.416 52.5153C105.404 52.5451 105.397 52.5772 105.398 52.6097ZM105.395 50.2731L105.407 51.3986C105.407 51.4199 105.411 51.4409 105.42 51.4604C105.428 51.4799 105.44 51.4976 105.455 51.5124C105.47 51.5271 105.487 51.5388 105.507 51.5465C105.526 51.5543 105.546 51.5581 105.567 51.5577L105.991 51.5548C106.104 51.5533 106.216 51.534 106.32 51.4978C106.424 51.4616 106.519 51.4093 106.598 51.3439C106.677 51.2785 106.74 51.2013 106.782 51.1166C106.824 51.032 106.845 50.9416 106.844 50.8506V50.7858C106.842 50.6022 106.748 50.4274 106.585 50.2998C106.422 50.1722 106.202 50.1021 105.974 50.1051L105.55 50.1081C105.529 50.1084 105.509 50.113 105.49 50.1215C105.471 50.13 105.454 50.1423 105.439 50.1576C105.425 50.1729 105.414 50.191 105.406 50.2108C105.399 50.2306 105.395 50.2518 105.395 50.2731Z" fill="#262625"/>
<path d="M110.343 52.8219L108.903 52.9191C108.782 52.927 108.702 52.9898 108.662 53.1077L108.37 53.9415C108.327 54.0659 108.249 54.1741 108.146 54.2523C108.043 54.3305 107.919 54.3752 107.792 54.3806C107.765 54.3806 107.737 54.3796 107.709 54.3776C107.453 54.3658 107.372 54.2372 107.465 53.9916L108.888 50.2613C109.4 48.9236 109.908 48.9246 110.412 50.2643L111.806 53.971C111.888 54.191 111.817 54.3246 111.594 54.3717C111.443 54.4051 111.291 54.3786 111.136 54.2922C111.03 54.2319 110.95 54.1302 110.915 54.0093L110.638 53.037C110.619 52.9715 110.58 52.9145 110.526 52.8754C110.472 52.8363 110.408 52.8174 110.343 52.8219ZM109.112 51.8377C109.105 51.8599 109.103 51.8833 109.107 51.9062C109.111 51.9291 109.12 51.9508 109.133 51.9695C109.146 51.9881 109.164 52.0033 109.184 52.0137C109.204 52.0241 109.227 52.0294 109.249 52.0293L110.031 52.0263C110.053 52.0261 110.076 52.0204 110.096 52.0097C110.116 51.9989 110.133 51.9834 110.146 51.9644C110.159 51.9455 110.168 51.9236 110.171 51.9005C110.175 51.8774 110.173 51.8539 110.165 51.8318L109.767 50.6355C109.758 50.6061 109.74 50.5804 109.715 50.5622C109.691 50.544 109.661 50.5342 109.631 50.5342C109.601 50.5342 109.572 50.544 109.547 50.5622C109.523 50.5804 109.505 50.6061 109.495 50.6355L109.112 51.8377Z" fill="#262625"/>
<path d="M113.003 50.2814L113.08 53.9203C113.086 54.2111 112.949 54.3692 112.668 54.3947C112.58 54.4026 112.493 54.3741 112.405 54.3093C112.369 54.2837 112.34 54.2497 112.32 54.2102C112.301 54.1708 112.29 54.1269 112.29 54.0824L112.293 49.53C112.293 49.4716 112.315 49.4155 112.355 49.3737C112.394 49.3319 112.448 49.3076 112.505 49.3061C113.435 49.2855 114.91 49.0497 115.397 50.1959C115.798 51.1369 115.572 51.8725 114.721 52.4029C114.61 52.4736 114.591 52.564 114.664 52.674L115.457 53.8968C115.598 54.1128 115.55 54.268 115.314 54.3623C115.26 54.3839 115.204 54.3937 115.145 54.3918C114.876 54.378 114.67 54.2523 114.529 54.0146L113.378 52.0935C113.354 52.0529 113.341 52.0058 113.342 51.9581C113.343 51.9103 113.357 51.8638 113.383 51.8242C113.409 51.7847 113.446 51.7537 113.489 51.7351C113.532 51.7164 113.579 51.711 113.624 51.7193C114.048 51.792 114.369 51.678 114.586 51.3775C114.652 51.287 114.697 51.1825 114.718 51.0718C114.74 50.9611 114.737 50.8469 114.71 50.7378C114.682 50.6286 114.632 50.5272 114.561 50.4411C114.491 50.355 114.403 50.2863 114.303 50.2401C113.982 50.0928 113.592 50.0535 113.132 50.1223C113.096 50.1279 113.063 50.1472 113.039 50.1764C113.015 50.2057 113.003 50.243 113.003 50.2814Z" fill="#262625"/>
<path d="M117.752 50.256L117.778 54.001C117.779 54.0537 117.769 54.106 117.749 54.1547C117.729 54.2034 117.7 54.2474 117.663 54.2843C117.626 54.3212 117.582 54.35 117.534 54.3692C117.486 54.3884 117.435 54.3974 117.383 54.3959L117.26 54.39C117.173 54.3869 117.09 54.3491 117.03 54.2847C116.969 54.2203 116.936 54.1344 116.936 54.0452L116.951 50.2531C116.951 50.2321 116.947 50.2114 116.938 50.1923C116.93 50.1731 116.918 50.156 116.902 50.1421C116.887 50.1281 116.869 50.1177 116.849 50.1114C116.829 50.1052 116.808 50.1032 116.788 50.1057C116.6 50.1313 116.421 50.1146 116.249 50.0556C116.087 49.9987 115.997 49.8769 115.98 49.6903C115.967 49.5547 116.01 49.4516 116.109 49.3809C116.187 49.3239 116.274 49.2954 116.37 49.2954C117.045 49.2994 117.707 49.2994 118.354 49.2954C118.558 49.2935 118.665 49.3976 118.674 49.6078L118.68 49.8111C118.69 50.0291 118.589 50.1293 118.377 50.1116L117.944 50.0763C117.816 50.0645 117.752 50.1244 117.752 50.256Z" fill="#262625"/>
<path d="M125.953 50.1086C125.902 50.1106 125.877 50.1381 125.879 50.1912L125.89 51.3668C125.892 51.4199 125.919 51.4464 125.97 51.4464L127.448 51.4022C127.675 51.3963 127.81 51.5073 127.854 51.7351C127.864 51.7823 127.867 51.8284 127.863 51.8736C127.854 51.9741 127.809 52.0674 127.736 52.1342C127.663 52.2011 127.568 52.2364 127.471 52.2331L126.025 52.1889C125.931 52.1869 125.884 52.2331 125.884 52.3274V53.4117C125.886 53.504 125.932 53.5512 126.022 53.5531L127.479 53.5561C127.733 53.5561 127.863 53.6867 127.869 53.948C127.87 53.9951 127.864 54.0413 127.848 54.0865C127.786 54.2848 127.652 54.384 127.448 54.384H125.472C125.191 54.384 125.051 54.2397 125.051 53.9509L125.054 49.6195C125.054 49.5343 125.087 49.4527 125.145 49.3924C125.204 49.3322 125.283 49.2984 125.366 49.2984L127.539 49.2954C127.732 49.2954 127.83 49.3956 127.834 49.596L127.837 49.7285C127.841 49.98 127.721 50.1067 127.476 50.1086H125.953Z" fill="#262625"/>
<path d="M129.57 50.8382C129.522 50.8657 129.498 50.9168 129.498 50.9914C129.515 51.9658 129.55 52.9391 129.601 53.9114C129.614 54.1747 129.496 54.3308 129.246 54.3799C129.21 54.3858 129.174 54.3868 129.14 54.3829C128.896 54.3534 128.774 54.212 128.774 53.9586V49.5742C128.774 49.4642 128.823 49.3866 128.923 49.3414C129.3 49.1705 129.602 49.2648 129.827 49.6243C130.429 50.5809 130.983 51.5189 131.491 52.4382C131.748 52.9057 131.871 52.8703 131.857 52.3321L131.791 49.6184C131.786 49.4062 131.886 49.2992 132.092 49.2972L132.33 49.2942C132.368 49.2939 132.405 49.3012 132.44 49.3158C132.475 49.3305 132.507 49.3521 132.534 49.3795C132.561 49.4069 132.582 49.4395 132.597 49.4755C132.611 49.5114 132.619 49.55 132.619 49.5889V53.9586C132.619 54.0146 132.608 54.07 132.587 54.1216C132.566 54.1733 132.536 54.2202 132.497 54.2597C132.459 54.2991 132.413 54.3303 132.362 54.3514C132.312 54.3726 132.258 54.3833 132.204 54.3829C131.927 54.379 131.71 54.2523 131.554 54.0028C130.884 52.9342 130.278 51.895 129.736 50.8854C129.719 50.8567 129.693 50.8357 129.662 50.8269C129.631 50.8181 129.598 50.8222 129.57 50.8382Z" fill="#262625"/>
<path d="M133.967 50.1145L133.372 50.1028C133.328 50.102 133.287 50.0842 133.256 50.0529C133.225 50.0217 133.207 49.9794 133.205 49.9348L133.185 49.4751C133.185 49.4518 133.188 49.4286 133.197 49.4068C133.205 49.385 133.217 49.3652 133.233 49.3484C133.249 49.3316 133.268 49.3183 133.288 49.3092C133.309 49.3001 133.332 49.2954 133.354 49.2954L135.53 49.2984C135.575 49.2984 135.618 49.3167 135.65 49.3493C135.682 49.3819 135.699 49.4261 135.699 49.4722L135.694 49.9377C135.693 49.9828 135.675 50.0259 135.644 50.0578C135.613 50.0896 135.571 50.1079 135.528 50.1086L135.104 50.1116C135.059 50.1116 135.016 50.1299 134.984 50.1625C134.953 50.1951 134.935 50.2393 134.935 50.2854L134.958 54.2338C134.958 54.2574 134.953 54.2807 134.944 54.3024C134.935 54.3241 134.922 54.3437 134.905 54.3599C134.889 54.3762 134.869 54.3888 134.848 54.397C134.826 54.4052 134.803 54.4088 134.78 54.4076L134.273 54.384C134.23 54.3818 134.188 54.362 134.159 54.329C134.129 54.2961 134.112 54.2524 134.113 54.2073L134.133 50.2884C134.133 50.2428 134.116 50.199 134.085 50.1665C134.054 50.134 134.011 50.1153 133.967 50.1145Z" fill="#262625"/>
</svg>
