<svg width="17" height="18" viewBox="0 0 17 18" fill="none" xmlns="http://www.w3.org/2000/svg">
<path d="M0.265625 9.15234C0.265625 4.60352 3.95117 0.917969 8.5 0.917969C13.0488 0.917969 16.7344 4.60352 16.7344 9.15234C16.7344 13.7012 13.0488 17.3867 8.5 17.3867C3.95117 17.3867 0.265625 13.7012 0.265625 9.15234ZM15.1406 9.15234C15.1406 5.5 12.1523 2.51172 8.5 2.51172C4.81445 2.51172 1.85938 5.5 1.85938 9.15234C1.85938 12.8379 4.81445 15.793 8.5 15.793C12.1523 15.793 15.1406 12.8379 15.1406 9.15234ZM8.83203 4.86914L12.8828 8.88672C13.0488 9.05273 13.0488 9.28516 12.8828 9.45117L8.83203 13.4688C8.69922 13.6348 8.43359 13.6348 8.26758 13.4688L7.63672 12.8379C7.4707 12.6719 7.4707 12.4062 7.63672 12.2734L9.96094 10.0156H4.64844C4.41602 10.0156 4.25 9.84961 4.25 9.61719V8.6875C4.25 8.48828 4.41602 8.28906 4.64844 8.28906H9.96094L7.63672 6.06445C7.4707 5.93164 7.4707 5.66602 7.63672 5.5L8.26758 4.86914C8.43359 4.70312 8.69922 4.70312 8.83203 4.86914Z" fill="#1B1B1A"/>
</svg>
