<svg width="13" height="9" viewBox="0 0 13 9" fill="none" xmlns="http://www.w3.org/2000/svg">
<path id="icon:after" d="M8.06641 0.998047C8.20312 0.888672 8.39453 0.888672 8.53125 0.998047L12.1406 4.60742C12.25 4.74414 12.25 4.93555 12.1406 5.07227L8.53125 8.68164C8.39453 8.79102 8.20312 8.79102 8.06641 8.68164L7.51953 8.13477C7.41016 7.99805 7.41016 7.80664 7.54688 7.66992L9.73438 5.53711H0.328125C0.136719 5.53711 0 5.40039 0 5.20898V4.44336C0 4.2793 0.136719 4.11523 0.328125 4.11523H9.73438L7.54688 2.00977C7.41016 1.87305 7.41016 1.68164 7.51953 1.54492L8.06641 0.998047Z" fill="white"/>
</svg>
