<svg width="29" height="24" viewBox="0 0 29 24" fill="none" xmlns="http://www.w3.org/2000/svg">
<path id="twitter" d="M25.6011 5.74414C25.6011 6.02246 25.6011 6.24512 25.6011 6.52344C25.6011 14.2607 19.7563 23.1113 9.01318 23.1113C5.67334 23.1113 2.61182 22.165 0.0512695 20.4951C0.496582 20.5508 0.941895 20.6064 1.44287 20.6064C4.17041 20.6064 6.67529 19.6602 8.6792 18.1016C6.11865 18.0459 3.94775 16.376 3.22412 14.0381C3.61377 14.0938 3.94775 14.1494 4.3374 14.1494C4.83838 14.1494 5.39502 14.0381 5.84033 13.9268C3.16846 13.3701 1.16455 11.0322 1.16455 8.19336V8.1377C1.94385 8.58301 2.89014 8.80566 3.83643 8.86133C2.22217 7.80371 1.22021 6.02246 1.22021 4.01855C1.22021 2.90527 1.49854 1.90332 1.99951 1.06836C4.89404 4.5752 9.23584 6.91309 14.0786 7.19141C13.9673 6.74609 13.9116 6.30078 13.9116 5.85547C13.9116 2.62695 16.5278 0.0107422 19.7563 0.0107422C21.4263 0.0107422 22.9292 0.678711 24.0425 1.84766C25.3228 1.56934 26.603 1.06836 27.7163 0.400391C27.271 1.79199 26.3804 2.90527 25.1558 3.62891C26.3247 3.51758 27.4937 3.18359 28.4956 2.73828C27.7163 3.90723 26.7144 4.90918 25.6011 5.74414Z" fill="#1B1B1A"/>
</svg>
